<svg width="47" height="47" viewBox="0 0 47 47" fill="none" xmlns="http://www.w3.org/2000/svg">
<path d="M41.5361 31.1179C40.2903 34.0642 38.3417 36.6604 35.8607 38.6796C33.3796 40.6989 30.4417 42.0796 27.3038 42.701C24.1659 43.3225 20.9236 43.1659 17.8602 42.2448C14.7968 41.3237 12.0057 39.6662 9.73089 37.4172C7.45608 35.1682 5.76682 32.3962 4.8108 29.3436C3.85479 26.2909 3.66112 23.0506 4.24673 19.9058C4.83234 16.761 6.17941 13.8075 8.17015 11.3036C10.1609 8.79966 12.7347 6.82152 15.6666 5.5421M43.0832 23.5C43.0832 20.9283 42.5767 18.3818 41.5925 16.0058C40.6084 13.6298 39.1659 11.471 37.3474 9.65251C35.5289 7.83403 33.3701 6.39153 30.9941 5.40738C28.6182 4.42322 26.0716 3.91669 23.4999 3.91669V23.5H43.0832Z" stroke="white" stroke-width="4" stroke-linecap="round" stroke-linejoin="round"/>
</svg>
