<svg width="132" height="130" viewBox="0 0 132 130" fill="none" xmlns="http://www.w3.org/2000/svg">
<path d="M87.4472 86.7131V81.7769C87.4472 79.1586 86.3174 76.6475 84.3063 74.796C82.2953 72.9446 79.5677 71.9044 76.7236 71.9044H55.2764C52.4323 71.9044 49.7047 72.9446 47.6936 74.796C45.6825 76.6475 44.5527 79.1586 44.5527 81.7769V86.7131M76.7236 52.1595C76.7236 57.6119 71.9225 62.032 66 62.032C60.0775 62.032 55.2764 57.6119 55.2764 52.1595C55.2764 46.7071 60.0775 42.287 66 42.287C71.9225 42.287 76.7236 46.7071 76.7236 52.1595Z" stroke="#1E1E1E" stroke-width="4" stroke-linecap="round" stroke-linejoin="round"/>
<path d="M66 118.853C96.3757 118.853 121 94.6659 121 64.8291C121 34.9923 96.3757 10.8048 66 10.8048C35.6243 10.8048 11 34.9923 11 64.8291C11 94.6659 35.6243 118.853 66 118.853Z" stroke="#1E1E1E" stroke-width="4" stroke-linecap="round" stroke-linejoin="round"/>
</svg>
