<?xml version="1.0" standalone="no"?>
<!DOCTYPE svg PUBLIC "-//W3C//DTD SVG 20010904//EN"
 "http://www.w3.org/TR/2001/REC-SVG-20010904/DTD/svg10.dtd">
<svg version="1.0" xmlns="http://www.w3.org/2000/svg"
 width="512.000000pt" height="512.000000pt" viewBox="0 0 512.000000 512.000000"
 preserveAspectRatio="xMidYMid meet">

<g transform="translate(0.000000,512.000000) scale(0.100000,-0.100000)"
fill="#000000" stroke="none">
<path d="M340 5025 c-106 -33 -214 -143 -245 -250 -13 -44 -15 -275 -13 -1725
l3 -1675 29 -63 c37 -80 122 -161 203 -194 l58 -23 968 -3 967 -2 0 -135 0
-135 -231 0 c-278 0 -305 -5 -371 -71 l-48 -48 -478 -3 c-470 -3 -478 -3 -518
-25 -95 -51 -139 -122 -138 -228 0 -82 22 -134 79 -183 71 -63 61 -62 585 -62
l477 0 26 -39 c15 -23 44 -47 69 -60 44 -21 50 -21 798 -21 748 0 754 0 798
21 25 13 54 37 69 60 l26 39 470 0 c327 0 481 4 508 12 51 15 114 69 142 122
30 57 30 165 0 221 -27 51 -67 91 -118 119 -39 21 -51 21 -517 24 l-478 3 -48
48 c-66 66 -93 71 -371 71 l-231 0 0 135 0 135 968 2 967 3 58 23 c81 33 166
114 203 194 l29 63 0 1695 0 1695 -29 60 c-38 76 -110 149 -184 183 l-57 27
-2190 2 c-1854 1 -2197 0 -2235 -12z m4323 -1122 l227 -6 0 -1236 0 -1236 -24
-52 c-29 -62 -86 -107 -155 -122 -66 -14 -4236 -14 -4302 0 -69 15 -126 60
-155 122 l-24 52 0 1243 0 1242 2103 0 c1157 0 2206 -3 2330 -7z m-2003 -2948
l0 -135 -100 0 -100 0 0 135 0 135 100 0 100 0 0 -135z m500 -384 c0 -75 -3
-93 -23 -122 -12 -18 -34 -39 -47 -46 -19 -10 -171 -13 -652 -13 l-628 0 0
123 c0 82 4 127 12 135 9 9 173 12 675 12 l663 0 0 -89z m-1510 -121 l0 -100
-459 0 -458 0 -26 24 c-51 47 -45 114 13 154 l33 22 448 0 449 0 0 -100z
m2763 72 c32 -30 41 -65 27 -107 -22 -66 -10 -65 -515 -65 l-455 0 0 100 0
101 459 -3 459 -3 25 -23z"/>
<path d="M563 3558 c-12 -6 -27 -24 -34 -41 -10 -24 -10 -34 2 -56 29 -51 27
-51 565 -48 478 2 503 3 523 21 29 26 29 86 0 112 -20 18 -45 19 -528 21 -342
1 -513 -2 -528 -9z"/>
<path d="M2747 3368 c-15 -16 -107 -265 -290 -793 -147 -423 -267 -779 -267
-791 0 -51 79 -84 123 -51 20 14 557 1547 557 1589 0 32 -41 68 -77 68 -13 0
-34 -10 -46 -22z"/>
<path d="M545 3185 c-14 -13 -25 -36 -25 -50 0 -14 11 -37 25 -50 23 -24 30
-25 142 -25 129 0 155 9 167 55 7 29 -15 79 -39 89 -9 3 -68 6 -131 6 -109 0
-116 -1 -139 -25z"/>
<path d="M985 3185 c-30 -30 -32 -64 -4 -99 19 -25 25 -26 114 -26 89 0 95 1
114 26 28 35 26 69 -4 99 -22 23 -32 25 -110 25 -78 0 -88 -2 -110 -25z"/>
<path d="M1821 2796 c-168 -77 -304 -145 -319 -160 -37 -36 -37 -96 -1 -132
26 -26 578 -280 631 -291 20 -4 33 1 52 20 33 33 34 76 4 105 -13 11 -122 64
-243 117 -120 53 -228 101 -238 107 -17 8 20 28 221 117 133 59 251 116 262
126 11 10 20 31 20 47 0 35 -40 78 -72 77 -13 0 -155 -60 -317 -133z"/>
<path d="M2921 2919 c-53 -21 -66 -72 -28 -113 13 -14 116 -66 252 -126 127
-55 233 -104 237 -109 5 -4 -103 -56 -238 -116 -143 -63 -251 -117 -260 -129
-8 -11 -14 -31 -14 -44 0 -28 42 -72 69 -72 11 0 159 62 327 137 327 147 344
158 344 225 0 57 -35 79 -353 222 -167 75 -306 136 -308 135 -2 0 -15 -5 -28
-10z"/>
</g>
</svg>
