<?xml version="1.0" encoding="utf-8"?>
<!-- Generator: Adobe Illustrator 28.0.0, SVG Export Plug-In . SVG Version: 6.00 Build 0)  -->
<svg version="1.1" id="Layer_1" xmlns="http://www.w3.org/2000/svg" xmlns:xlink="http://www.w3.org/1999/xlink" x="0px" y="0px"
	 viewBox="0 0 512 512" style="enable-background:new 0 0 512 512;" xml:space="preserve">
<g>
	<path d="M256,23.27v23.27c57.91,0.01,110.13,23.41,148.11,61.35c37.94,37.98,61.34,90.19,61.35,148.11
		c-0.01,57.91-23.41,110.13-61.35,148.11c-37.98,37.94-90.19,61.34-148.11,61.35c-57.91-0.01-110.13-23.41-148.11-61.35
		C69.95,366.13,46.56,313.91,46.55,256c0.01-57.91,23.41-110.13,61.35-148.11c37.97-37.94,90.19-61.33,148.1-61.34V23.27V0
		C114.61,0.02,0.02,114.61,0,256c0.02,141.39,114.61,255.98,256,256c141.39-0.02,255.98-114.61,256-256
		C511.98,114.61,397.39,0.02,256,0V23.27z"/>
	<path d="M204.63,179.37L281.27,256l-76.63,76.63c-9.09,9.09-9.09,23.82,0,32.91s23.82,9.09,32.91,0l93.09-93.09
		c4.33-4.33,6.82-10.33,6.82-16.46s-2.48-12.12-6.82-16.46l-93.09-93.09c-9.09-9.09-23.82-9.09-32.91,0
		C195.55,155.54,195.55,170.28,204.63,179.37L204.63,179.37z"/>
</g>
</svg>
