<?xml version="1.0" encoding="UTF-8"?>
<svg version="1.1" xmlns="http://www.w3.org/2000/svg" width="600" height="600">
<path d="M0 0 C1.90944099 1.35455894 1.90944099 1.35455894 3.76956177 3.06088257 C4.46234348 3.69387646 5.1551252 4.32687035 5.8689003 4.97904587 C9.39659655 8.32441366 12.87162977 11.7157979 16.31201172 15.15087891 C17.10000656 15.93390884 17.8880014 16.71693878 18.69987488 17.5236969 C21.27923352 20.08856892 23.8547887 22.65721368 26.4296875 25.2265625 C27.31349216 26.10753979 28.19729683 26.98851707 29.10788345 27.89619064 C33.29608354 32.07099289 37.48254037 36.24752912 41.66598785 40.42709315 C46.48016931 45.23677897 51.30085272 50.03982186 56.12719715 54.83730185 C60.32296572 59.0088505 64.51046833 63.18862991 68.69501114 67.37144089 C70.47155864 69.14496025 72.25060871 70.91597642 74.03219223 72.6844368 C76.51669465 75.1519234 78.99160338 77.62865601 81.46435547 80.10791016 C82.20200638 80.83634628 82.93965729 81.56478241 83.69966125 82.31529236 C84.37239578 82.99359604 85.04513031 83.67189972 85.73825073 84.37075806 C86.61588231 85.24618979 86.61588231 85.24618979 87.51124382 86.13930702 C90.15595913 89.44475306 91.40139427 92.96506858 91.1875 97.1875 C90.51618193 101.33486483 89.08917419 103.42826623 86.23831463 106.47947025 C85.42036714 107.35607685 84.60241965 108.23268345 83.75968587 109.13585389 C78.56334258 114.52889031 73.2971094 119.84757554 67.99946594 125.14097595 C66.69645605 126.44657455 65.39365928 127.75238587 64.09105557 129.05838972 C60.5337167 132.62374115 56.97329849 136.18600313 53.41232193 139.74772084 C49.56394327 143.59795989 45.71841286 147.45104205 41.87246704 151.30371094 C33.47687235 159.71284388 25.07754044 168.11823721 16.67737985 176.52280879 C11.43185394 181.77110215 6.18706376 187.02013034 0.94240379 192.26928902 C-13.58362189 206.80749652 -28.11058579 221.34476509 -42.64100933 235.87857723 C-43.56948142 236.80726888 -44.4979535 237.73596053 -45.4545611 238.69279436 C-46.38520406 239.62365559 -47.31584702 240.55451683 -48.27469128 241.51358598 C-50.16042399 243.39976216 -52.04615533 245.28593969 -53.93188477 247.17211914 C-54.39942968 247.63977345 -54.8669746 248.10742776 -55.34868755 248.58925341 C-70.53000219 263.77420373 -85.70515002 278.96529708 -100.87663911 294.16006385 C-116.93075879 310.23877033 -132.99030449 326.31203777 -149.05612117 342.37905699 C-157.80909577 351.13294897 -166.55962877 359.88925131 -175.30399132 368.65174675 C-182.74305564 376.10618351 -190.18720295 383.55549636 -197.63809475 390.99811208 C-201.44009133 394.79619339 -205.23959827 398.59668187 -209.03263664 402.40371132 C-212.50311962 405.88687886 -215.98041999 409.36308407 -219.46333513 412.8338191 C-220.72352802 414.09204566 -221.98117749 415.35282573 -223.23604008 416.61636841 C-224.93965796 418.33102439 -226.65223457 420.03620517 -228.3673811 421.73931789 C-229.09793225 422.48126184 -229.09793225 422.48126184 -229.84324202 423.23819456 C-233.9702486 427.30278279 -238.39249371 430.01733269 -244.15795898 430.89225769 C-245.3137571 431.07514091 -245.3137571 431.07514091 -246.49290466 431.26171875 C-247.31895706 431.38184326 -248.14500946 431.50196777 -248.99609375 431.62573242 C-249.88156387 431.76272049 -250.767034 431.89970856 -251.67933655 432.04084778 C-254.59725942 432.48936072 -257.51717528 432.92289232 -260.4375 433.35546875 C-262.48055915 433.66446734 -264.52352661 433.97407279 -266.56640625 434.28425598 C-270.8491256 434.93210396 -275.13287238 435.57253089 -279.41748047 436.20776367 C-284.87516637 437.01752107 -290.32988589 437.84556122 -295.78395081 438.67931652 C-300.00564906 439.32255144 -304.22879528 439.95583874 -308.4524231 440.58626747 C-310.46206114 440.88742616 -312.47125188 441.19158716 -314.47994995 441.49895287 C-342.89481028 445.83156314 -342.89481028 445.83156314 -349.10253906 443.06193542 C-352.33881537 440.60754141 -353.89684751 437.82025186 -355 434 C-354.89566606 431.24655531 -354.67831593 428.68958304 -354.30615234 425.97363281 C-354.20814016 425.1866161 -354.11012798 424.39959938 -354.00914574 423.58873367 C-353.68828005 421.05684849 -353.34665367 418.52847495 -353 416 C-352.89045235 415.18530746 -352.78090469 414.37061493 -352.66803741 413.53123474 C-351.85197029 407.48897158 -350.98396207 401.45476597 -350.1015625 395.421875 C-349.96496593 394.48603828 -349.82836937 393.55020157 -349.68763351 392.58600616 C-348.96735373 387.65715814 -348.24265498 382.72898186 -347.51464844 377.80126953 C-346.91652939 373.74680477 -346.32747798 369.69117505 -345.74609375 365.63427734 C-345.03756262 360.69020739 -344.31419291 355.74852671 -343.57999802 350.80820465 C-343.30457259 348.93831268 -343.03427909 347.06765699 -342.7693367 345.19625092 C-342.39906729 342.58910773 -342.00972657 339.98548294 -341.61572266 337.38183594 C-341.51168625 336.61817215 -341.40764984 335.85450836 -341.30046082 335.06770325 C-341.18846848 334.35343674 -341.07647614 333.63917023 -340.96109009 332.90325928 C-340.87150843 332.29060085 -340.78192677 331.67794243 -340.68963051 331.0467186 C-338.81892018 325.49473448 -334.58974831 321.29960956 -330.51139259 317.256917 C-329.96660684 316.70892477 -329.42182109 316.16093254 -328.86052668 315.59633449 C-327.03603859 313.76355313 -325.20452824 311.93795808 -323.37295532 310.11225891 C-322.04929618 308.7855788 -320.7260716 307.45846501 -319.40324438 306.1309554 C-315.76846392 302.48587949 -312.12745971 298.84707651 -308.48539209 295.20928371 C-304.5580828 291.28443877 -300.63651544 287.35386381 -296.71418762 283.42404175 C-289.03012405 275.72722179 -281.3405826 268.03589715 -273.64896871 260.3466231 C-267.39894906 254.09838546 -261.15069605 247.84838649 -254.90369797 241.59712791 C-254.01508131 240.70791606 -253.12646465 239.81870421 -252.21092021 238.90254655 C-250.40580253 237.09621715 -248.60068606 235.28988654 -246.79557078 233.48355474 C-234.67390687 221.35410268 -222.55030862 209.22658697 -210.42273903 197.10303974 C-209.94855626 196.62901335 -209.47437349 196.15498696 -208.98582155 195.66659613 C-206.5824763 193.26405666 -204.17911106 190.8615372 -201.77573784 188.45902572 C-201.0597622 187.74330672 -201.0597622 187.74330672 -200.32932241 187.01312874 C-199.36407189 186.04822488 -198.39882044 185.08332195 -197.43356804 184.11841996 C-182.40915654 169.09936748 -167.39140811 154.07368126 -152.37890625 139.04272461 C-135.51219615 122.15530465 -118.64049207 105.27289672 -101.76142824 88.39782208 C-92.82420728 79.46251588 -83.88921559 70.52500715 -74.96001053 61.58168983 C-67.35989406 53.96968345 -59.754582 46.36291587 -52.14245249 38.76292197 C-48.2574704 34.88384489 -44.37496126 31.00237398 -40.49890709 27.11437416 C-36.9523605 23.5570244 -33.39899456 20.0066397 -29.84000807 16.46173682 C-28.55207923 15.17647026 -27.26669068 13.8886522 -25.98408277 12.59807567 C-24.24297589 10.84690247 -22.49291658 9.10519207 -20.74028969 7.36555958 C-20.24220027 6.86016082 -19.74411086 6.35476206 -19.23092782 5.83404818 C-13.31711689 0.01101598 -7.98362282 -2.44983547 0 0 Z M-7.77175999 31.65150547 C-8.54950244 32.43146853 -9.32724489 33.2114316 -10.1285553 34.01502991 C-11.01868317 34.90522827 -11.90881104 35.79542664 -12.82591248 36.71260071 C-13.82026278 37.71208607 -14.81456978 38.71161451 -15.80883789 39.71118164 C-16.8499575 40.75421898 -17.89130397 41.79702992 -18.93286133 42.83963013 C-21.18239477 45.09233431 -23.43036246 47.34658568 -25.67717171 49.60200691 C-29.23464836 53.17297607 -32.7959088 56.74015519 -36.35777283 60.30674744 C-44.57088774 68.5319299 -52.77904339 76.76205569 -60.98709106 84.99229431 C-68.48980502 92.5152137 -75.99357893 100.03706747 -83.50143617 107.55485433 C-87.03646859 111.09485066 -90.56905144 114.63726753 -94.09974396 118.18159211 C-96.30772963 120.39708362 -98.51782686 122.61045969 -100.72847748 124.82329178 C-101.74676077 125.8434338 -102.7641861 126.86443312 -103.78064537 127.88639259 C-105.17891489 129.29198333 -106.58067861 130.69409538 -107.9825592 132.09608459 C-108.76294084 132.87868684 -109.54332247 133.66128908 -110.34735203 134.46760654 C-112.45441432 136.47914778 -114.58845126 138.39278232 -116.7916193 140.29498386 C-121.15537218 144.08695018 -125.25965866 148.10267949 -129.35153198 152.18417358 C-130.55410745 153.37805897 -130.55410745 153.37805897 -131.78097737 154.59606326 C-134.44862323 157.24576821 -137.11277083 159.89896098 -139.77685547 162.55224609 C-141.20626249 163.97369269 -142.63604363 165.39476218 -144.06587534 166.81578158 C-150.8381881 173.54643905 -157.60339266 180.28422173 -164.3671875 187.0234375 C-164.90132918 187.55560428 -165.43547086 188.08777106 -165.98579866 188.63606411 C-176.60357958 199.21468323 -187.21860671 209.79606233 -197.82795525 220.38313866 C-200.15414399 222.70435881 -202.48037063 225.02554097 -204.80664062 227.34667969 C-205.38476187 227.92353026 -205.96288312 228.50038084 -206.55852319 229.09471174 C-215.9383006 238.45309716 -225.33181596 247.79757014 -234.73083304 257.13662796 C-244.3921892 266.73685931 -254.0402746 276.35027119 -263.67575943 285.97646964 C-269.08158025 291.37638317 -274.4931595 296.77024116 -279.91985703 302.14918137 C-284.53709408 306.72581869 -289.14229759 311.31414374 -293.73221211 315.91818927 C-296.07310875 318.26555051 -298.42111716 320.60490909 -300.78104973 322.93315315 C-303.3406431 325.46017684 -305.87773848 328.00785537 -308.41036987 330.56185913 C-309.15782215 331.28960364 -309.90527443 332.01734814 -310.67537677 332.76714551 C-315.36633666 337.55875605 -317.2428629 341.34694811 -318 348 C-318.19212067 349.10582428 -318.38424133 350.21164856 -318.58218384 351.35098267 C-318.81534805 352.91482193 -318.81534805 352.91482193 -319.05322266 354.51025391 C-319.23325836 355.70824615 -319.41329407 356.9062384 -319.5987854 358.14053345 C-319.87859756 360.03936783 -319.87859756 360.03936783 -320.1640625 361.9765625 C-320.3628478 363.3145856 -320.56177417 364.65258775 -320.76083374 365.99057007 C-321.17482448 368.77886952 -321.586293 371.56752711 -321.99609375 374.35644531 C-322.51939308 377.91555358 -323.05030523 381.47347943 -323.58326149 385.03115273 C-323.99515866 387.78797951 -324.40235818 390.54548521 -324.80823898 393.30320358 C-325.09555114 395.24836437 -325.38728245 397.19287079 -325.67910767 399.13735962 C-325.85283905 400.32904755 -326.02657043 401.52073547 -326.20556641 402.74853516 C-326.35941803 403.78950348 -326.51326965 404.8304718 -326.67178345 405.90298462 C-327.03059618 409.2887022 -327.05432933 412.5978216 -327 416 C-313.33999846 415.17268966 -299.86185563 413.3900016 -286.32128906 411.46386719 C-283.51491233 411.06632238 -280.70701496 410.68536662 -277.89648438 410.31835938 C-274.45941155 409.86942443 -271.02737842 409.39214399 -267.59698105 408.89484024 C-265.68311331 408.62429797 -263.76537821 408.38157318 -261.84768677 408.13961792 C-253.76039057 406.92577172 -249.51504615 404.95497614 -244 399 C-242.2120347 397.23974712 -240.42143869 395.48216427 -238.62890625 393.7265625 C-237.12834695 392.2262112 -235.63325859 390.72056167 -234.1388855 389.21405029 C-232.52546486 387.58766731 -230.90876729 385.96460304 -229.29125977 384.34228516 C-225.85799254 380.89768516 -222.42869316 377.44915219 -219 374 C-215.02141817 369.99767795 -211.0411508 365.99706185 -207.05661011 362.00067139 C-205.47712934 360.41478994 -203.90073203 358.82588904 -202.32446289 357.23681641 C-201.34015755 356.24887293 -200.35570837 355.26107273 -199.37109375 354.2734375 C-198.52474365 353.42185059 -197.67839355 352.57026367 -196.80639648 351.69287109 C-194.73067344 349.70111597 -192.64981217 347.82957238 -190.46604919 345.96562862 C-185.33294091 341.48509997 -180.5454074 336.68072317 -175.73681641 331.85707092 C-174.71954892 330.84024026 -173.7020614 329.82362969 -172.68437481 328.80721849 C-169.90681915 326.03188596 -167.1323695 323.25346692 -164.35844254 320.47450817 C-161.35969175 317.47142155 -158.35803357 314.47124333 -155.35673523 311.47070312 C-150.16324039 306.27773154 -144.97157335 301.08293845 -139.78115845 295.8868885 C-132.27677219 288.37436033 -124.76961203 280.8646091 -117.26178133 273.3555234 C-105.07962654 261.17118231 -92.89970459 248.98461174 -80.72119141 236.79663086 C-68.89391553 224.96016993 -57.06558532 213.12476424 -45.23583984 201.29077148 C-44.50612772 200.56079663 -43.77641559 199.83082178 -43.02459097 199.07872648 C-39.36367581 195.41650624 -35.70273996 191.75430669 -32.04179382 188.09211743 C-1.69132051 157.73128467 28.65552729 127.36683005 59 97 C57.37442679 93.56140965 55.56051315 91.32254808 52.8449707 88.63378906 C51.98680252 87.77899963 51.12863434 86.92421021 50.24446106 86.04351807 C49.31429672 85.12681335 48.38413239 84.21010864 47.42578125 83.265625 C46.45840726 82.30453017 45.49155244 81.34291253 44.52519226 80.38079834 C41.9789987 77.84789622 39.42730879 75.32061109 36.8739624 72.79492188 C32.80453657 68.76860335 28.7416605 64.73570786 24.68227196 60.69927216 C23.27404991 59.30113744 21.86220622 57.90665347 20.45027161 56.51226807 C15.94819015 52.04383089 11.58284343 47.53104191 7.46961975 42.70037842 C5.14143408 40.00662266 2.6461521 37.5141683 0.125 35 C-0.3596875 34.51144531 -0.844375 34.02289063 -1.34375 33.51953125 C-4.34264894 29.77666961 -4.34264894 29.77666961 -7.77175999 31.65150547 Z " fill="#4C4C4C" transform="translate(404,106)"/>
<path d="M0 0 C5.64331759 4.37868957 10.69154078 9.53488718 15.74536133 14.56835938 C16.47322845 15.2896553 17.20109558 16.01095123 17.95101929 16.75410461 C20.33089312 19.11445057 22.70689477 21.47863754 25.08203125 23.84375 C25.89839239 24.65603561 26.71475353 25.46832123 27.55585289 26.30522156 C31.86758578 30.59619234 36.17610495 34.8903613 40.48217773 39.18701172 C44.92344966 43.61717333 49.37628345 48.03552546 53.8317461 52.45140839 C57.26562281 55.85915306 60.6905959 59.27574158 64.11322594 62.69477844 C65.75129848 64.32798498 67.3927438 65.95781607 69.03763771 67.58415222 C71.3351535 69.85732628 73.61971926 72.1427979 75.90161133 74.43164062 C76.57956253 75.09678177 77.25751373 75.76192291 77.95600891 76.44721985 C83.38336505 81.93500751 86.42679445 86.96186167 86.4375 94.9375 C86.45683594 95.89527344 86.47617187 96.85304688 86.49609375 97.83984375 C85.14772408 106.42906474 79.84317241 111.68672597 73.75 117.5 C73.00492188 118.22703125 72.25984375 118.9540625 71.4921875 119.703125 C69.67030362 121.47829391 67.83973303 123.24336818 66 125 C60.00456078 120.03187696 54.51832519 114.65355361 49.02563477 109.13916016 C48.03960816 108.15285096 47.05336029 107.16676293 46.06690979 106.18087769 C43.40814131 103.5223944 40.75245273 100.86085408 38.09733319 98.19872713 C35.31514044 95.41025453 32.53008803 92.62464098 29.74534607 89.8387146 C24.48075555 84.57102436 19.21871788 79.30079174 13.95760721 74.02962625 C7.96438225 68.0251978 1.96829466 62.02363146 -4.02802742 56.02229619 C-16.35519177 43.68469825 -28.67878136 31.3435357 -41 19 C-36.97328184 10.66304492 -28.11546742 1.73596005 -19.5625 -1.875 C-12.48855637 -3.9867972 -6.4816036 -3.40994963 0 0 Z " fill="#4C4C4C" transform="translate(465,53)"/>
</svg>
