<?xml version="1.0" encoding="UTF-8"?>
<svg version="1.1" xmlns="http://www.w3.org/2000/svg" width="512" height="512">
<path d="M0 0 C4.46760227 3.34899651 8.52506636 7.06494344 12.55859375 10.91796875 C13.48091797 11.72814453 13.48091797 11.72814453 14.421875 12.5546875 C30.02954747 26.79893111 37.95291804 49.56227873 38.94140625 70.21484375 C39.67634446 97.34581487 33.15159868 121.39736153 14.36108398 141.63305664 C-0.39000737 156.82888023 -19.80689786 165.2592068 -40.44140625 168.91796875 C-41.76140625 168.91796875 -43.08140625 168.91796875 -44.44140625 168.91796875 C-44.44140625 195.64796875 -44.44140625 222.37796875 -44.44140625 249.91796875 C-36.52140625 250.24796875 -28.60140625 250.57796875 -20.44140625 250.91796875 C-14.50707769 251.43006817 -8.60359772 251.97681275 -2.69140625 252.66796875 C-1.93480713 252.75444672 -1.17820801 252.84092468 -0.39868164 252.93002319 C50.93769917 258.83685908 111.83179559 269.93883886 147.55859375 310.91796875 C156.09527209 322.93773625 158.81951955 334.38866468 157.55859375 348.91796875 C153.72354587 368.0475528 139.68309498 382.56370062 124.14648438 393.3671875 C109.96721222 402.77862116 94.59713698 409.3958817 78.55859375 414.91796875 C77.70442871 415.21799805 76.85026367 415.51802734 75.97021484 415.82714844 C40.93222659 427.95390263 2.24850153 432.98868858 -34.68359375 433.12109375 C-35.99837708 433.12810806 -37.3131604 433.13512238 -38.66778564 433.14234924 C-42.8839975 433.16173411 -47.10015432 433.16678253 -51.31640625 433.16796875 C-52.03411949 433.16841061 -52.75183273 433.16885246 -53.49129486 433.16930771 C-74.61367379 433.17613016 -95.49601941 432.99464137 -116.44140625 429.91796875 C-117.67149414 429.7463623 -118.90158203 429.57475586 -120.16894531 429.39794922 C-167.0762886 422.72840447 -224.64492175 409.6601499 -255.55078125 370.2265625 C-263.39098623 358.71754365 -265.81820446 346.57355916 -264.44140625 332.91796875 C-263.55822471 328.96846031 -262.23467711 325.5384525 -260.44140625 321.91796875 C-259.87486328 320.71140625 -259.87486328 320.71140625 -259.296875 319.48046875 C-244.07813394 290.79015328 -205.82390021 275.97089602 -176.86621094 266.78369141 C-146.531424 257.59815099 -113.91858667 250.78820012 -82.08203125 250.8984375 C-80.4892334 250.90266724 -80.4892334 250.90266724 -78.86425781 250.90698242 C-78.0647168 250.91060791 -77.26517578 250.9142334 -76.44140625 250.91796875 C-76.43554001 252.08894608 -76.42967377 253.2599234 -76.42362976 254.46638489 C-76.36648028 265.48797915 -76.29375961 276.50937462 -76.20569134 287.53076649 C-76.1609149 293.1973358 -76.12167487 298.863832 -76.0949707 304.53051758 C-76.06901025 309.99657226 -76.02865955 315.46234667 -75.97821999 320.92822838 C-75.96150205 323.01623747 -75.95001856 325.10429509 -75.94379234 327.19236183 C-75.93420475 330.11137072 -75.90620987 333.02965455 -75.8737793 335.94848633 C-75.87521439 336.81666992 -75.87664948 337.68485352 -75.87812805 338.5793457 C-75.93664577 342.88232982 -75.93664577 342.88232982 -74.13523579 346.63621044 C-71.29647006 348.78436731 -68.85427843 348.34457777 -65.44140625 347.91796875 C-62.93078444 345.57302791 -62.46592871 344.12352661 -62.05664539 340.69273758 C-62.05203643 339.40591457 -62.04742746 338.11909157 -62.04267883 336.79327393 C-62.03270859 335.71621488 -62.03270859 335.71621488 -62.02253693 334.61739707 C-62.00388362 332.21125867 -62.00651371 329.80561652 -62.0090332 327.39941406 C-62.00001745 325.67470089 -61.98969069 323.94999414 -61.97814941 322.22529602 C-61.95053135 317.54178112 -61.94128838 312.85838763 -61.93529534 308.17480183 C-61.92592418 303.28069036 -61.89972182 298.38667003 -61.87528992 293.49261475 C-61.83158659 284.22440735 -61.80306317 274.95621761 -61.77996653 265.68793845 C-61.7529354 255.13660354 -61.70902262 244.58536015 -61.66367781 234.03409052 C-61.57077663 212.32876579 -61.49912096 190.62341368 -61.44140625 168.91796875 C-62.11533417 168.85634048 -62.78926208 168.79471222 -63.48361206 168.73121643 C-64.37444489 168.64661667 -65.26527771 168.56201691 -66.18310547 168.47485352 C-67.06328339 168.39260025 -67.9434613 168.31034698 -68.85031128 168.2256012 C-72.54121913 167.78739147 -76.01249408 166.92177165 -79.56640625 165.85546875 C-80.28578369 165.63995361 -81.00516113 165.42443848 -81.74633789 165.20239258 C-94.06064126 161.31613975 -104.75781485 155.47934956 -114.44140625 146.91796875 C-115.03824219 146.46292969 -115.63507813 146.00789062 -116.25 145.5390625 C-133.32235871 132.33065565 -141.42818128 110.41266296 -144.96484375 89.87890625 C-145.23887952 87.54589899 -145.38374793 85.26548607 -145.44140625 82.91796875 C-145.48007813 82.10070312 -145.51875 81.2834375 -145.55859375 80.44140625 C-146.23267819 55.05089242 -137.61816784 30.72800883 -120.44140625 12.0078125 C-89.93546631 -19.97890435 -36.39100479 -24.49498539 0 0 Z M-88.44140625 28.91796875 C-101.20896326 38.90580239 -110.40892516 52.5467512 -112.44140625 68.91796875 C-113.155461 76.04168109 -113.155461 76.04168109 -110.87890625 82.60546875 C-107.44425921 84.45489408 -105.28124224 84.53508525 -101.44140625 83.91796875 C-97.71896817 80.25611285 -96.92934172 77.47817804 -96.50390625 72.35546875 C-94.93171383 59.69865915 -90.24617662 50.26385237 -80.44140625 41.91796875 C-72.42180451 36.50226239 -64.64131646 34.05085889 -55.12670898 33.06640625 C-51.42445764 32.61886695 -49.67604496 32.14269314 -46.9453125 29.52734375 C-45.17123997 26.9684839 -45.17123997 26.9684839 -45.50390625 23.79296875 C-46.46082931 20.85840469 -46.91488417 19.63239445 -49.44140625 17.91796875 C-62.3756882 14.33267656 -78.03647093 21.54917387 -88.44140625 28.91796875 Z " fill="#C3394E" transform="translate(309.44140625,47.08203125)"/>
</svg>
