<?xml version="1.0" encoding="UTF-8"?>
<svg version="1.1" xmlns="http://www.w3.org/2000/svg" width="550" height="550">
<path d="M0 0 C0.87278595 -0.00701431 1.7455719 -0.01402863 2.64480591 -0.02125549 C5.44945501 -0.03866649 8.25389257 -0.04510899 11.05859375 -0.046875 C12.0193985 -0.04754974 12.98020325 -0.04822449 13.97012329 -0.04891968 C29.03377899 -0.0321291 43.62851482 0.594639 58.49609375 3.203125 C59.42631348 3.35346191 60.3565332 3.50379883 61.31494141 3.65869141 C107.83182297 11.31477702 152.72141439 32.69243418 188.49609375 63.203125 C189.61538268 64.13732143 190.73520483 65.07087923 191.85546875 66.00390625 C197.90107247 71.07248462 203.76341097 76.27612253 209.37109375 81.828125 C210.14827759 82.59153198 210.14827759 82.59153198 210.94116211 83.37036133 C214.49609375 86.9558074 214.49609375 86.9558074 214.49609375 89.203125 C215.15609375 89.203125 215.81609375 89.203125 216.49609375 89.203125 C218.2734375 91.1171875 218.2734375 91.1171875 220.43359375 93.828125 C221.23796875 94.83617188 222.04234375 95.84421875 222.87109375 96.8828125 C223.51304687 97.69637207 223.51304687 97.69637207 224.16796875 98.52636719 C225.49495955 100.20169308 226.83762088 101.86333946 228.18359375 103.5234375 C263.67254661 147.57410023 287.38943621 205.6520416 287.69921875 262.70703125 C287.70623306 263.57986252 287.71324738 264.45269379 287.72047424 265.35197449 C287.73788428 268.1565778 287.74432759 270.96096961 287.74609375 273.765625 C287.74710587 275.20633362 287.74710587 275.20633362 287.74813843 276.67614746 C287.67378296 343.35701939 263.45162893 409.5746043 217.8046875 458.7109375 C215.77668754 460.90021664 213.81398192 463.12612495 211.87109375 465.390625 C168.15626772 515.55517946 99.9734501 544.91092096 34.49609375 550.203125 C31.24299037 550.34799465 27.99434098 550.38910168 24.73828125 550.40625 C23.84051971 550.41326431 22.94275818 550.42027863 22.01779175 550.42750549 C19.13550742 550.44491176 16.25342872 550.4513582 13.37109375 550.453125 C12.38500122 550.45379974 11.39890869 550.45447449 10.38293457 550.45516968 C-4.47840959 550.43901013 -18.85743666 549.92108173 -33.50390625 547.203125 C-34.45958496 547.03683594 -35.41526367 546.87054687 -36.39990234 546.69921875 C-85.46351204 538.04800267 -134.49978552 514.9931605 -170.89453125 480.6640625 C-173.13559984 478.55047985 -175.41503542 476.51907637 -177.75390625 474.515625 C-198.45718345 456.51277526 -214.96783781 433.26632382 -228.25488281 409.43408203 C-229.34880917 407.48015336 -230.46460049 405.54143606 -231.58984375 403.60546875 C-253.44154506 364.76295479 -262.99037529 319.83346531 -262.81640625 275.578125 C-262.81458344 274.61234528 -262.81276062 273.64656555 -262.81088257 272.65151978 C-262.76436063 257.98801675 -262.25735498 243.64408485 -259.50390625 229.203125 C-259.32698242 228.25324707 -259.15005859 227.30336914 -258.96777344 226.32470703 C-247.92226909 168.47411646 -219.73615281 114.61264756 -176.50390625 74.203125 C-175.84390625 74.203125 -175.18390625 74.203125 -174.50390625 74.203125 C-174.50390625 73.543125 -174.50390625 72.883125 -174.50390625 72.203125 C-172.95502123 70.78605998 -171.33629091 69.44503004 -169.69140625 68.140625 C-165.8569223 65.0818191 -162.06568867 61.99051366 -158.31640625 58.828125 C-146.86120905 49.47494834 -134.33618463 41.51932721 -121.50390625 34.203125 C-120.90787598 33.8618457 -120.3118457 33.52056641 -119.69775391 33.16894531 C-84.11082358 12.98531319 -41.06336858 0.22295673 0 0 Z " fill="#76C2AE" transform="translate(262.50390625,-0.203125)"/>
<path d="M0 0 C5.98080587 4.22174532 11.29508421 8.92998191 16.60620117 13.94824219 C19.55981574 16.80547688 19.55981574 16.80547688 23 19 C23 19.66 23 20.32 23 21 C23.87398438 21.4021875 23.87398438 21.4021875 24.765625 21.8125 C27.02786601 23.01480991 28.80576318 24.33825913 30.75 26 C31.36359375 26.515625 31.9771875 27.03125 32.609375 27.5625 C34 29 34 29 34 31 C34.53367187 31.21527344 35.06734375 31.43054688 35.6171875 31.65234375 C38.87657608 33.49576844 41.4281177 36.00013373 44.125 38.5625 C47.76403407 42.18633907 47.76403407 42.18633907 52 45 C52 45.66 52 46.32 52 47 C52.58265625 47.268125 53.1653125 47.53625 53.765625 47.8125 C56.02786601 49.01480991 57.80576318 50.33825913 59.75 52 C60.36359375 52.515625 60.9771875 53.03125 61.609375 53.5625 C63 55 63 55 63 57 C63.59022949 57.26804443 64.18045898 57.53608887 64.78857422 57.81225586 C67.01766904 59.00948994 68.55874782 60.26251195 70.3828125 62.00390625 C71.29740234 62.86725586 71.29740234 62.86725586 72.23046875 63.74804688 C72.85566406 64.34681641 73.48085938 64.94558594 74.125 65.5625 C75.37568283 66.75332327 76.62820262 67.94222111 77.8828125 69.12890625 C78.43340332 69.65556885 78.98399414 70.18223145 79.55126953 70.72485352 C80.99204489 72.10237804 80.99204489 72.10237804 83 73 C83 73.66 83 74.32 83 75 C83.59296875 75.26425781 84.1859375 75.52851563 84.796875 75.80078125 C87.08029054 77.04370425 88.47426723 78.30401646 90.25 80.1875 C94.85739357 84.93331312 99.76133735 89.27436421 105 93.3125 C105.66 93.869375 106.32 94.42625 107 95 C107 95.66 107 96.32 107 97 C107.58265625 97.268125 108.1653125 97.53625 108.765625 97.8125 C111.02786601 99.01480991 112.80576318 100.33825913 114.75 102 C115.36359375 102.515625 115.9771875 103.03125 116.609375 103.5625 C118 105 118 105 118 107 C118.57492187 107.24621094 119.14984375 107.49242187 119.7421875 107.74609375 C122.35639827 109.19793053 124.06336208 110.90287549 126.125 113.0625 C128.77905 115.91571933 128.77905 115.91571933 132 118 C132 118.66 132 119.32 132 120 C132.57492187 120.24621094 133.14984375 120.49242187 133.7421875 120.74609375 C136.35639827 122.19793053 138.06336208 123.90287549 140.125 126.0625 C142.77905 128.91571933 142.77905 128.91571933 146 131 C146 131.66 146 132.32 146 133 C146.56460937 133.23589844 147.12921875 133.47179687 147.7109375 133.71484375 C150.52071963 135.29234942 152.39619051 137.24051286 154.625 139.5625 C157.51070681 142.69042054 157.51070681 142.69042054 161 145 C161 145.66 161 146.32 161 147 C161.53367187 147.20496094 162.06734375 147.40992188 162.6171875 147.62109375 C165.99937434 149.57832646 168.43037488 152.2596965 171.125 155.0625 C174.69553366 159.0044894 174.69553366 159.0044894 179 162 C179 162.66 179 163.32 179 164 C179.99 164.33 180.98 164.66 182 165 C182 165.66 182 166.32 182 167 C182.54140625 167.23332031 183.0828125 167.46664062 183.640625 167.70703125 C188.96643313 170.62564465 193.75942738 174.82887347 197 180 C198.37132684 185.10333961 197.73274083 189.8420584 197 195 C196.83757812 196.33490479 196.83757812 196.33490479 196.671875 197.69677734 C189.88395402 252.63651275 166.06451214 305.86571627 128.30859375 346.5078125 C126.28059379 348.69709164 124.31788817 350.92299995 122.375 353.1875 C78.69598192 403.31096337 10.45433846 432.79041231 -55 438 C-58.32369178 438.13625827 -61.64250745 438.16363628 -64.96875 438.16796875 C-65.88853638 438.17129715 -66.80832275 438.17462555 -67.75598145 438.17805481 C-69.69213365 438.18308343 -71.6282944 438.1854644 -73.56445312 438.18530273 C-76.46499661 438.1874738 -79.36514929 438.20563108 -82.265625 438.22460938 C-116.78849046 438.34078909 -116.78849046 438.34078909 -125.125 430.6875 C-126.08708374 429.89170532 -126.08708374 429.89170532 -127.06860352 429.07983398 C-128.40448935 427.97030884 -129.727369 426.84493282 -131.03662109 425.70410156 C-133.62109275 423.46092671 -136.28073734 421.31857591 -138.94482422 419.17114258 C-140.94963096 417.55270694 -142.94148926 415.91918688 -144.93359375 414.28515625 C-149.05314549 410.93073528 -153.26555608 407.70744407 -157.5 404.5 C-163.11112896 400.24976487 -168.62337674 395.90568445 -174.0625 391.4375 C-179.88471424 386.66031686 -185.81491061 382.07023174 -191.86621094 377.58740234 C-196.15599713 374.40388561 -200.37545304 371.14541197 -204.56738281 367.83422852 C-214.39834249 360.0761517 -224.57803376 352.93983624 -235 346 C-231.09104415 344.69701472 -229.80066183 345.62804121 -226 347.125 C-217.17386677 350.44876536 -208.14894851 352.74924964 -199 355 C-197.77144287 355.309375 -197.77144287 355.309375 -196.51806641 355.625 C-136.73669639 370.57910467 -74.05227084 372.40991759 -13.07843018 365.24023438 C-10.20954733 364.9086359 -7.33727213 364.61160551 -4.46484375 364.3125 C6.95413909 363.05328611 18.1844699 360.8961655 29.4375 358.625 C30.14543701 358.48387787 30.85337402 358.34275574 31.58276367 358.19735718 C41.96978518 356.10884684 51.92854288 353.28934019 62 350 C63.32708856 349.58769179 64.65496679 349.17791624 65.98364258 348.77075195 C79.24736398 344.68471905 95.48496592 339.02876033 103.390625 326.859375 C109.63856321 314.97949249 107.60830724 300.73801737 104.50048828 288.20068359 C103.89959649 285.55851843 103.41508794 282.90478659 102.93359375 280.23828125 C98.48320823 255.81580151 90.7716946 234.39376551 75 215 C74.37996094 214.2265625 73.75992187 213.453125 73.12109375 212.65625 C70.34414651 209.32639827 67.63590171 206.59558835 64.0625 204.125 C63.051875 203.42375 62.04125 202.7225 61 202 C61 201.34 61 200.68 61 200 C59.68 199.67 58.36 199.34 57 199 C57 198.34 57 197.68 57 197 C55.7934375 196.6596875 55.7934375 196.6596875 54.5625 196.3125 C51.74626738 195.27494061 49.60929371 194.25010008 47.0625 192.75 C43.06151884 190.47334742 38.94727549 188.60738478 34.6875 186.875 C33.51574219 186.39804687 32.34398437 185.92109375 31.13671875 185.4296875 C21.50111847 181.90840403 11.4395052 180.25642526 1.3125 178.875 C0.06895752 178.70323242 -1.17458496 178.53146484 -2.45581055 178.35449219 C-14.61305838 176.76591429 -26.74870138 176.18910853 -39 176 C-39.23460937 176.69351563 -39.46921875 177.38703125 -39.7109375 178.1015625 C-41.25013861 181.56243287 -43.34289224 184.38391193 -45.625 187.375 C-51.41552751 195.10893733 -56.92993221 203.02288065 -62.42822266 210.96630859 C-63.07839355 211.90555176 -63.72856445 212.84479492 -64.3984375 213.8125 C-65.32027832 215.15634766 -65.32027832 215.15634766 -66.26074219 216.52734375 C-67.34391711 218.06726453 -68.45956721 219.58545708 -69.62207031 221.06640625 C-72.26238608 224.34862522 -72.26238608 224.34862522 -73.03515625 228.3671875 C-72.69355469 229.23601562 -72.35195313 230.10484375 -72 231 C-71.7613623 231.64485352 -71.52272461 232.28970703 -71.27685547 232.95410156 C-70.37080715 235.36218598 -69.40988197 237.74295051 -68.4375 240.125 C-68.08324951 241.0008374 -67.72899902 241.8766748 -67.36401367 242.77905273 C-62.47612027 254.81917153 -57.50482909 266.82022223 -52.0703125 278.625 C-49.5631752 284.18828278 -47.42268093 289.9011256 -45.23046875 295.59375 C-44.75746338 296.81856079 -44.75746338 296.81856079 -44.27490234 298.06811523 C-43.63846646 299.71764984 -43.00463242 301.36819091 -42.37353516 303.01977539 C-41.15669483 306.78913249 -41.15669483 306.78913249 -39 310 C-38.64144054 313.85177939 -39.13444118 315.79948097 -41.45703125 318.86328125 C-41.98683594 319.57677734 -42.51664063 320.29027344 -43.0625 321.02539062 C-43.64 321.78013672 -44.2175 322.53488281 -44.8125 323.3125 C-46.01854809 324.93238813 -47.22294774 326.55350473 -48.42578125 328.17578125 C-49.03115723 328.98740723 -49.6365332 329.7990332 -50.26025391 330.63525391 C-52.75975614 334.03269689 -55.13506722 337.50817366 -57.5 341 C-63.4873633 349.79568458 -69.73517201 358.40068662 -76 367 C-79.29751063 365.6164754 -80.85076249 364.21661378 -82.8125 361.24609375 C-83.32449951 360.48256592 -83.83649902 359.71903809 -84.36401367 358.93237305 C-84.90388916 358.10906494 -85.44376465 357.28575684 -86 356.4375 C-87.16163378 354.70237021 -88.32441844 352.96801042 -89.48828125 351.234375 C-90.07432129 350.35716797 -90.66036133 349.47996094 -91.26416016 348.57617188 C-93.84912189 344.73981235 -96.51264697 340.96147605 -99.1875 337.1875 C-99.67371826 336.49470947 -100.15993652 335.80191895 -100.66088867 335.08813477 C-103.04746777 331.69811218 -105.47512728 328.35680978 -108.0078125 325.07421875 C-108.48065674 324.44942627 -108.95350098 323.82463379 -109.44067383 323.1809082 C-110.32491221 322.01687344 -111.22482016 320.86449756 -112.14331055 319.72729492 C-114.27898997 316.89068805 -115.00056726 315.24221845 -114.9921875 311.6640625 C-113.79439707 307.24072618 -112.16705479 303.18321272 -110.3125 299 C-109.58081818 297.31042064 -108.85036272 295.62030971 -108.12109375 293.9296875 C-107.5794458 292.68010254 -107.5794458 292.68010254 -107.02685547 291.40527344 C-105.57502263 288.00454658 -104.22164523 284.56839548 -102.875 281.125 C-101.07159487 276.57030833 -99.15754253 272.11528119 -97.0625 267.6875 C-94.28320121 261.78783965 -91.92836901 255.77716295 -89.62329102 249.68164062 C-87.39138553 243.83638186 -84.8238129 238.27096139 -81.96875 232.69921875 C-80.82663144 229.51694486 -81.10807083 228.21727248 -82 225 C-83.07340085 222.93470446 -83.07340085 222.93470446 -84.484375 220.98828125 C-85.0012085 220.2391748 -85.51804199 219.49006836 -86.05053711 218.71826172 C-86.61135986 217.92436035 -87.17218262 217.13045898 -87.75 216.3125 C-88.32693604 215.48250488 -88.90387207 214.65250977 -89.49829102 213.79736328 C-94.09001678 207.21856399 -98.77099864 200.70212545 -103.50878906 194.2277832 C-105.0184691 192.16058949 -106.51248624 190.08319343 -108 188 C-108.57637207 187.20239258 -109.15274414 186.40478516 -109.74658203 185.58300781 C-110.58552002 184.38562988 -110.58552002 184.38562988 -111.44140625 183.1640625 C-111.95517822 182.43912598 -112.4689502 181.71418945 -112.99829102 180.96728516 C-113.49413696 179.993479 -113.49413696 179.993479 -114 179 C-113.67 178.01 -113.34 177.02 -113 176 C-104.09 175.67 -95.18 175.34 -86 175 C-96.33893681 165.2483238 -96.33893681 165.2483238 -106.94921875 155.796875 C-111.71364799 151.62232747 -116.34231113 147.29283658 -121 143 C-117.18993579 141.7299786 -115.76458983 142.53199649 -112 143.8125 C-86.88623713 151.76198244 -60.62360019 149.04604053 -37.1953125 137.11328125 C-30.66348782 133.61560566 -24.97819353 129.65537714 -19.671875 124.46875 C-18 123 -18 123 -16 123 C-16 122.34 -16 121.68 -16 121 C-14.35697047 119.31002677 -12.68528688 117.64783606 -11 116 C7.02636473 95.13045254 14.75844554 70.27075805 13.25439453 42.83007812 C12.10979257 30.09665597 8.26039759 18.2577753 2.453125 6.93359375 C1.27318143 4.55150336 0.48151275 2.59129889 0 0 Z " fill="#5E9D8D" transform="translate(352,112)"/>
<path d="M0 0 C1.22122559 0.12181641 2.44245117 0.24363281 3.70068359 0.36914062 C28.64229827 3.00722726 49.1280561 8.63950264 71 21 C71 21.66 71 22.32 71 23 C72.32 23.33 73.64 23.66 75 24 C75 24.66 75 25.32 75 26 C75.58523438 26.27199219 76.17046875 26.54398437 76.7734375 26.82421875 C95.31885494 36.61750059 106.85495244 62.99001059 113.02783203 81.74462891 C114.56440877 86.88996145 115.58102419 92.10002853 116.5625 97.375 C116.98316908 99.58095947 117.40503445 101.78669117 117.828125 103.9921875 C118.02728516 105.0347168 118.22644531 106.07724609 118.43164062 107.15136719 C118.89944171 109.49599911 119.40999855 111.8126653 119.984375 114.1328125 C122.63982452 124.92997043 124.97476451 139.93926751 119 150 C109.87374664 163.21014755 95.74305022 168.58850583 81.07861328 173.32080078 C79.10278682 173.9664138 77.14268166 174.64530907 75.18359375 175.33984375 C65.90753411 178.57613603 56.59645491 180.96793017 47 183 C46.24074219 183.1635498 45.48148437 183.32709961 44.69921875 183.49560547 C28.95298949 186.84135277 13.02994677 188.94066591 -2.95373535 190.76568604 C-4.96015436 190.99543735 -6.9659264 191.23081629 -8.97167969 191.46630859 C-77.44156009 199.27961224 -176.4648308 199.72940994 -236 160 C-236.9075 159.4225 -237.815 158.845 -238.75 158.25 C-245.89652367 151.10347633 -248.3395575 143.20257185 -248.40080261 133.38238525 C-248.23527044 124.4297147 -245.9662952 116.06814547 -243.57495117 107.48730469 C-242.81095249 104.74444422 -242.07783753 101.99473836 -241.34960938 99.2421875 C-237.96261634 86.60490366 -234.28817927 74.20255098 -227.6875 62.8125 C-227.30142578 62.13815918 -226.91535156 61.46381836 -226.51757812 60.76904297 C-223.1790038 55.06587283 -219.3750413 49.95669419 -215 45 C-214.27941406 44.15953125 -213.55882812 43.3190625 -212.81640625 42.453125 C-188.29639707 14.40597412 -154.48871123 4.73776195 -118.5 1.3125 C-117.58605469 1.26351563 -116.67210937 1.21453125 -115.73046875 1.1640625 C-112.93296166 1.03874105 -112.93296166 1.03874105 -109.92578125 0.5234375 C-106.61398415 0.16607922 -104.21869716 0.12013299 -101 1 C-97.70530964 3.93597198 -95.50463236 7.36383655 -93.19677734 11.10498047 C-91.50517277 13.78352691 -89.65726761 16.33921302 -87.80932617 18.91137695 C-86.28496884 21.03841609 -84.78548218 23.18135756 -83.2890625 25.328125 C-80.92861212 28.70268405 -78.51893856 32.03677444 -76.0859375 35.359375 C-75.1127356 36.70515625 -75.1127356 36.70515625 -74.11987305 38.078125 C-72.85181477 39.83145789 -71.57234817 41.5766078 -70.28051758 43.3125 C-69.42043091 44.51132812 -69.42043091 44.51132812 -68.54296875 45.734375 C-68.02758545 46.43788086 -67.51220215 47.14138672 -66.98120117 47.86621094 C-65.43478559 51.229155 -66.55362402 53.63993014 -67.66088867 57.01367188 C-67.9107251 57.65884766 -68.16056152 58.30402344 -68.41796875 58.96875 C-68.69970947 59.69795654 -68.9814502 60.42716309 -69.27172852 61.1784668 C-69.57393311 61.94457275 -69.8761377 62.71067871 -70.1875 63.5 C-70.50066162 64.30026611 -70.81382324 65.10053223 -71.13647461 65.92504883 C-73.40545992 71.65749413 -75.90869908 77.24594766 -78.54296875 82.8203125 C-81.27310873 88.77831234 -83.60688516 94.90101543 -86 101 C-87.3278538 104.37718854 -88.66133896 107.75208054 -90 111.125 C-90.33692871 111.97594238 -90.67385742 112.82688477 -91.02099609 113.70361328 C-93.42874425 119.72589298 -96.06414682 125.56961239 -98.96875 131.37109375 C-100.14918938 134.38031989 -100.60305845 135.81038616 -100 139 C-98.40508174 141.805949 -96.46195545 144.3172586 -94.5 146.875 C-93.30772933 148.47495032 -92.11773568 150.07659927 -90.9296875 151.6796875 C-90.29385742 152.53401367 -89.65802734 153.38833984 -89.00292969 154.26855469 C-85.45015646 159.11356041 -82.04248263 164.05909025 -78.625 169 C-76.7049649 171.77059359 -74.78488983 174.54112585 -72.86035156 177.30859375 C-71.57504239 179.16807516 -70.30167291 181.03584605 -69.03808594 182.91015625 C-68.41450195 183.82667969 -67.79091797 184.74320313 -67.1484375 185.6875 C-66.59075684 186.51636719 -66.03307617 187.34523438 -65.45849609 188.19921875 C-64.97719238 188.79347656 -64.49588867 189.38773438 -64 190 C-63.34 190 -62.68 190 -62 190 C-60.16237419 187.61971959 -58.44524323 185.22965424 -56.75 182.75 C-56.22422363 181.99291748 -55.69844727 181.23583496 -55.15673828 180.45581055 C-54.0234691 178.82372341 -52.89287468 177.18977649 -51.76464844 175.55419922 C-49.40980741 172.1457395 -47.03482644 168.75159441 -44.65771484 165.35864258 C-43.47082806 163.66348478 -42.28624932 161.9667086 -41.10400391 160.26831055 C-38.41288451 156.40787605 -35.70208271 152.57081373 -32.890625 148.796875 C-32.42027832 148.16031982 -31.94993164 147.52376465 -31.46533203 146.86791992 C-30.60143061 145.70424943 -29.72805201 144.54752614 -28.84326172 143.3996582 C-27.1529095 141.11433939 -26.05588596 139.32464662 -25.5703125 136.50390625 C-26.12163521 133.29119848 -27.30104796 130.79442317 -28.75 127.875 C-30.71260959 123.79387258 -32.51910492 119.77953578 -34 115.5 C-35.37748131 111.56514559 -36.96463118 107.83001217 -38.75 104.0625 C-41.33495765 98.57433615 -43.64458525 93.01603197 -45.875 87.375 C-48.63845908 80.38613577 -51.45824969 73.42644385 -54.375 66.5 C-54.70870605 65.70513184 -55.04241211 64.91026367 -55.38623047 64.09130859 C-57.11885191 59.95553486 -57.11885191 59.95553486 -59.11352539 55.94360352 C-60.45920972 52.99317858 -59.85210332 51.07464009 -59 48 C-57.49609375 45.59765625 -57.49609375 45.59765625 -55.4375 43.0625 C-51.49280047 38.0132846 -47.75548924 32.8650581 -44.10595703 27.59765625 C-42.69810392 25.56862427 -41.27839525 23.54776889 -39.84716797 21.53515625 C-35.44519066 15.31867658 -35.44519066 15.31867658 -31.84765625 8.625 C-25.34066516 -4.3605052 -12.55236626 -1.3132439 0 0 Z " fill="#FEFEFE" transform="translate(338,288)"/>
<path d="M0 0 C0.55945313 0.54914063 1.11890625 1.09828125 1.6953125 1.6640625 C1.6953125 2.3240625 1.6953125 2.9840625 1.6953125 3.6640625 C3.6753125 4.6540625 3.6753125 4.6540625 5.6953125 5.6640625 C5.6953125 6.3240625 5.6953125 6.9840625 5.6953125 7.6640625 C6.3553125 7.6640625 7.0153125 7.6640625 7.6953125 7.6640625 C26.54696681 29.60738812 34.6730057 54.99849834 32.6953125 83.6640625 C31.26647844 99.75245391 25.18090552 115.6295871 15.6953125 128.6640625 C14.90447266 129.76814453 14.90447266 129.76814453 14.09765625 130.89453125 C12.66469907 132.84789743 11.19542876 134.76198139 9.6953125 136.6640625 C9.22867188 137.26605469 8.76203125 137.86804688 8.28125 138.48828125 C7.13755207 139.92291989 5.92268194 141.30031867 4.6953125 142.6640625 C4.0353125 142.6640625 3.3753125 142.6640625 2.6953125 142.6640625 C2.6953125 143.3240625 2.6953125 143.9840625 2.6953125 144.6640625 C-10.49957252 156.45616904 -25.37379754 163.88555542 -42.3046875 168.6640625 C-43.69880859 169.06625 -43.69880859 169.06625 -45.12109375 169.4765625 C-70.32101478 175.30126335 -96.8387079 168.05462997 -118.3046875 154.6640625 C-122.21238098 151.8982275 -125.77693545 148.89695766 -129.3046875 145.6640625 C-130.23023438 144.83132812 -131.15578125 143.99859375 -132.109375 143.140625 C-148.85693083 127.3209116 -160.38688346 103.87685631 -161.3046875 80.6640625 C-161.35625 79.58253906 -161.4078125 78.50101562 -161.4609375 77.38671875 C-162.06056692 53.57643392 -154.87644142 31.04857475 -139.78515625 12.50390625 C-138.1462839 10.52337233 -138.1462839 10.52337233 -136.3046875 7.6640625 C-135.6446875 7.6640625 -134.9846875 7.6640625 -134.3046875 7.6640625 C-134.07136719 7.09042969 -133.83804688 6.51679687 -133.59765625 5.92578125 C-126.01267481 -7.34220744 -104.35332371 -16.32108552 -90.3046875 -20.3359375 C-58.11416756 -28.78336655 -25.69003813 -20.73376068 0 0 Z " fill="#FEFEFE" transform="translate(333.3046875,90.3359375)"/>
<path d="M0 0 C36.63 0.495 36.63 0.495 74 1 C72.60301575 4.49246064 71.74517963 6.63053143 69.671875 9.50390625 C69.2085376 10.15246582 68.7452002 10.80102539 68.26782227 11.46923828 C67.76694092 12.16001465 67.26605957 12.85079102 66.75 13.5625 C65.6700296 15.07122582 64.59062709 16.58035826 63.51171875 18.08984375 C62.94243652 18.88374512 62.3731543 19.67764648 61.78662109 20.49560547 C58.68029369 24.84989714 55.62368048 29.23890997 52.5625 33.625 C51.41835682 35.26329192 50.27384247 36.90132471 49.12890625 38.5390625 C48.60312988 39.29864258 48.07735352 40.05822266 47.53564453 40.84082031 C46.54013129 42.24055308 45.5111591 43.61730552 44.44482422 44.96386719 C41.76277187 48.29314545 41.76277187 48.29314545 40.96484375 52.3671875 C41.30644531 53.23601562 41.64804687 54.10484375 42 55 C42.2386377 55.64485352 42.47727539 56.28970703 42.72314453 56.95410156 C43.62919285 59.36218598 44.59011803 61.74295051 45.5625 64.125 C45.91675049 65.0008374 46.27100098 65.8766748 46.63598633 66.77905273 C51.52387973 78.81917153 56.49517091 90.82022223 61.9296875 102.625 C64.4368248 108.18828278 66.57731907 113.9011256 68.76953125 119.59375 C69.08486816 120.41029053 69.40020508 121.22683105 69.72509766 122.06811523 C70.36153354 123.71764984 70.99536758 125.36819091 71.62646484 127.01977539 C72.84330517 130.78913249 72.84330517 130.78913249 75 134 C75.35855946 137.85177939 74.86555882 139.79948097 72.54296875 142.86328125 C72.01316406 143.57677734 71.48335938 144.29027344 70.9375 145.02539062 C70.36 145.78013672 69.7825 146.53488281 69.1875 147.3125 C67.98145191 148.93238813 66.77705226 150.55350473 65.57421875 152.17578125 C64.96884277 152.98740723 64.3634668 153.7990332 63.73974609 154.63525391 C61.24024386 158.03269689 58.86493278 161.50817366 56.5 165 C50.5126367 173.79568458 44.26482799 182.40068662 38 191 C34.70248937 189.6164754 33.14923751 188.21661378 31.1875 185.24609375 C30.67550049 184.48256592 30.16350098 183.71903809 29.63598633 182.93237305 C28.8261731 181.69741089 28.8261731 181.69741089 28 180.4375 C26.83836622 178.70237021 25.67558156 176.96801042 24.51171875 175.234375 C23.92567871 174.35716797 23.33963867 173.47996094 22.73583984 172.57617188 C20.15087811 168.73981235 17.48735303 164.96147605 14.8125 161.1875 C14.32628174 160.49470947 13.84006348 159.80191895 13.33911133 159.08813477 C10.95253223 155.69811218 8.52487272 152.35680978 5.9921875 149.07421875 C5.28292114 148.13703003 5.28292114 148.13703003 4.55932617 147.1809082 C3.67508779 146.01687344 2.77517984 144.86449756 1.85668945 143.72729492 C-0.27898997 140.89068805 -1.00056726 139.24221845 -0.9921875 135.6640625 C0.20560293 131.24072618 1.83294521 127.18321272 3.6875 123 C4.41918182 121.31042064 5.14963728 119.62030971 5.87890625 117.9296875 C6.4205542 116.68010254 6.4205542 116.68010254 6.97314453 115.40527344 C8.42497737 112.00454658 9.77835477 108.56839548 11.125 105.125 C12.92840513 100.57030833 14.84245747 96.11528119 16.9375 91.6875 C19.71679879 85.78783965 22.07163099 79.77716295 24.37670898 73.68164062 C26.60861447 67.83638186 29.1761871 62.27096139 32.03125 56.69921875 C33.17336856 53.51694486 32.89192917 52.21727248 32 49 C30.92659915 46.93470446 30.92659915 46.93470446 29.515625 44.98828125 C28.9987915 44.2391748 28.48195801 43.49006836 27.94946289 42.71826172 C27.38864014 41.92436035 26.82781738 41.13045898 26.25 40.3125 C25.67306396 39.48250488 25.09612793 38.65250977 24.50170898 37.79736328 C19.90998322 31.21856399 15.22900136 24.70212545 10.49121094 18.2277832 C7.82150551 14.57217531 5.19029598 10.89109848 2.62109375 7.1640625 C2.11892334 6.43912598 1.61675293 5.71418945 1.09936523 4.96728516 C0 3 0 3 0 0 Z " fill="#4F5D72" transform="translate(238,288)"/>
</svg>
