<?xml version="1.0" encoding="UTF-8"?>
<svg version="1.1" xmlns="http://www.w3.org/2000/svg" width="480" height="170">
<path d="M0 0 C1.02515213 -0.01566513 1.02515213 -0.01566513 2.0710144 -0.03164673 C34.82317942 -0.42302449 59.96490793 16.98185476 83.125 38.5 C83.88296875 39.40105469 83.88296875 39.40105469 84.65625 40.3203125 C86.05377341 41.70148531 86.05377341 41.70148531 87.9921875 41.4609375 C90.90736903 40.14750406 92.87658735 38.26850943 95.25 36.125 C116.47229217 17.73457837 144.5310414 5.77946008 172.125 1.5 C172.93710937 1.36980469 173.74921875 1.23960938 174.5859375 1.10546875 C181.1475201 0.21716786 187.40979193 0.5 194.125 0.5 C194.125 55.94 194.125 111.38 194.125 168.5 C185.875 168.5 177.625 168.5 169.125 168.5 C169.125 122.3 169.125 76.1 169.125 28.5 C154.92998642 32.18030189 154.92998642 32.18030189 141.625 37.5625 C140.85293213 37.93753662 140.08086426 38.31257324 139.28540039 38.69897461 C123.55226641 46.59187788 109.57431901 57.37609263 96.64453125 69.2265625 C93.52168287 72.04438848 90.32860367 74.77472611 87.125 77.5 C86.70839111 77.06768066 86.29178223 76.63536133 85.86254883 76.18994141 C63.88289753 53.49601925 37.32310559 33.5247632 5.125 29.5 C4.63 98.305 4.63 98.305 4.125 168.5 C-4.455 168.5 -13.035 168.5 -21.875 168.5 C-21.545 155.63 -21.215 142.76 -20.875 129.5 C-57.505 129.5 -94.135 129.5 -131.875 129.5 C-133.69015342 139.18081824 -135.35207454 148.27823222 -136.0625 158 C-136.4646875 163.1975 -136.4646875 163.1975 -136.875 168.5 C-145.455 168.5 -154.035 168.5 -162.875 168.5 C-163.80932219 142.1053981 -157.30001078 117.18391953 -145.875 93.5 C-145.57899902 92.88205566 -145.28299805 92.26411133 -144.97802734 91.62744141 C-136.7413316 74.69571406 -125.55364862 60.16263866 -112.26953125 46.8984375 C-110.87788038 45.5045164 -109.50082949 44.09507574 -108.1640625 42.6484375 C-90.28782295 23.59723385 -63.91963102 10.93135055 -38.875 4.5 C-38.11106934 4.30245117 -37.34713867 4.10490234 -36.56005859 3.90136719 C-24.44946705 0.9194726 -12.42587108 0.09096435 0 0 Z M-99 70.3125 C-108.66187039 80.32016365 -119.42723876 93.15671629 -123.875 106.5 C-90.215 106.5 -56.555 106.5 -21.875 106.5 C-21.875 80.76 -21.875 55.02 -21.875 28.5 C-50.30022068 28.5 -79.67892537 51.86067617 -99 70.3125 Z " fill="#019BA8" transform="translate(285.875,-0.5)"/>
<path d="M0 0 C9.24 0 18.48 0 28 0 C28.60581374 18.90409386 29.06397962 37.79856565 29.160923 56.71277237 C29.17582512 59.59050355 29.19347113 62.46820603 29.21188354 65.34591675 C29.31102718 81.15797721 29.31102718 81.15797721 29.32592773 88.83129883 C29.33601353 93.71763408 29.36526988 98.60352965 29.40724754 103.48969078 C29.41946636 105.32237113 29.42469569 107.15511331 29.42244911 108.98783302 C29.42009081 111.52598514 29.44227235 114.06285243 29.4699707 116.60083008 C29.46336929 117.3368042 29.45676788 118.07277832 29.44996643 118.83105469 C29.56152056 125.07614884 31.65650003 130.08519904 35.5703125 134.953125 C45.25048709 143.02804451 56.69260951 144.96130333 69 144 C77.70145093 142.27937411 86.23488353 139.53692447 91.41236401 131.92299843 C95.12630708 125.01994653 95.71898373 119.23994936 95.65942383 111.48193359 C95.66990753 110.27103058 95.68039124 109.06012756 95.69119263 107.81253052 C95.71489505 104.52369275 95.71690818 101.23573803 95.70889878 97.94685316 C95.7057546 94.49813379 95.73086355 91.04961685 95.75285339 87.60098267 C95.79017328 81.08474029 95.80243419 74.56870654 95.8054778 68.05236781 C95.8101818 60.62775176 95.84314789 53.20334301 95.87837565 45.77881885 C95.95015199 30.51918679 95.98307195 15.25980646 96 0 C105.57 0 115.14 0 125 0 C125.11321071 16.31697186 125.20517104 32.63360441 125.25906086 48.95086098 C125.28475664 56.52858241 125.31974009 64.10604107 125.37719727 71.68359375 C125.42729872 78.29425637 125.45935358 84.90472854 125.47044247 91.51557577 C125.47691652 95.01058963 125.49194717 98.50505903 125.52865028 101.999897 C125.87262415 136.09867803 125.87262415 136.09867803 113 150 C112.45472656 150.62390625 111.90945312 151.2478125 111.34765625 151.890625 C100.76872763 163.34075951 84.34457919 169.70981959 68.9609375 170.37109375 C56.3794636 170.60459376 45.54898062 170.47056977 34 165 C33.01257812 164.55398437 32.02515625 164.10796875 31.0078125 163.6484375 C24.01588992 160.18152852 18.49997818 155.49027804 13 150 C12.13568359 149.15308594 12.13568359 149.15308594 11.25390625 148.2890625 C4.52452241 141.12270568 -0.1299986 131.55857995 -0.12025452 121.6975708 C-0.12162918 120.62347458 -0.12300385 119.54937836 -0.12442017 118.44273376 C-0.12082489 117.26957108 -0.11722961 116.09640839 -0.11352539 114.88769531 C-0.11367142 113.64840775 -0.11381744 112.40912018 -0.1139679 111.13227844 C-0.11339076 107.73797158 -0.10837671 104.3437256 -0.10139394 100.94942951 C-0.09514112 97.40067537 -0.09455507 93.85192042 -0.09336853 90.30316162 C-0.09026091 83.58487802 -0.08205518 76.8666107 -0.07201904 70.14833426 C-0.06084025 62.49905435 -0.055343 54.84977366 -0.05032361 47.20048761 C-0.0398721 31.46698071 -0.02153367 15.73349623 0 0 Z " fill="#009BA8" transform="translate(0,0)"/>
<path d="M0 0 C1.66611905 -0.042721 3.33382885 -0.04063832 5 0 C6 1 6 1 6.0625 3.5625 C6.041875 4.366875 6.02125 5.17125 6 6 C3.69 5.67 1.38 5.34 -1 5 C-0.67 3.35 -0.34 1.7 0 0 Z " fill="#1893A3" transform="translate(304,26)"/>
<path d="M0 0 C2 3 2 3 1.8125 4.9375 C0.86387056 7.34555934 -0.27769321 9.0710164 -2 11 C-2.66 11 -3.32 11 -4 11 C-3.52269162 9.5410574 -3.04308958 8.08286504 -2.5625 6.625 C-2.29566406 5.81289062 -2.02882812 5.00078125 -1.75390625 4.1640625 C-1 2 -1 2 0 0 Z " fill="#1397A1" transform="translate(138,97)"/>
<path d="M0 0 C2.64 0.33 5.28 0.66 8 1 C8 2.32 8 3.64 8 5 C8.99 5.33 9.98 5.66 11 6 C10.67 6.66 10.34 7.32 10 8 C8.33055479 6.85821872 6.6645052 5.71147095 5 4.5625 C4.071875 3.92441406 3.14375 3.28632812 2.1875 2.62890625 C1.465625 2.09136719 0.74375 1.55382813 0 1 C0 0.67 0 0.34 0 0 Z " fill="#0D96A0" transform="translate(342,49)"/>
<path d="M0 0 C-0.33 1.65 -0.66 3.3 -1 5 C-1.99 5.33 -2.98 5.66 -4 6 C-4 5.01 -4 4.02 -4 3 C-4.66 2.67 -5.32 2.34 -6 2 C-3 0 -3 0 0 0 Z " fill="#1E90A0" transform="translate(414,16)"/>
<path d="M0 0 C1.98 0 3.96 0 6 0 C4.35830472 2.02054804 2.69088222 4.02043058 1 6 C0.67 6 0.34 6 0 6 C0 4.02 0 2.04 0 0 Z " fill="#1791A1" transform="translate(378,66)"/>
<path d="M0 0 C1.65 0 3.3 0 5 0 C3.63016497 3.16115776 3.0109362 3.9927092 0 6 C0 4.02 0 2.04 0 0 Z " fill="#0E979D" transform="translate(178,74)"/>
<path d="M0 0 C0.99 0.33 1.98 0.66 3 1 C2.01 2.98 1.02 4.96 0 7 C-2 4 -2 4 -2 1 C-1.34 0.67 -0.68 0.34 0 0 Z " fill="#1597AA" transform="translate(172,83)"/>
<path d="M0 0 C0 0.33 0 0.66 0 1 C-8.03571429 3.27678571 -8.03571429 3.27678571 -12 2 C-7.72424275 -1.23921004 -5.16347713 -1.11369115 0 0 Z " fill="#2697A6" transform="translate(258,29)"/>
<path d="M0 0 C4.95 1.98 4.95 1.98 10 4 C10 4.33 10 4.66 10 5 C5.75776898 5.3636198 3.41831915 4.5393228 0 2 C0 1.34 0 0.68 0 0 Z " fill="#12949B" transform="translate(322,6)"/>
</svg>
