<?xml version="1.0" encoding="UTF-8"?>
<svg version="1.1" xmlns="http://www.w3.org/2000/svg" width="500" height="271">
<path d="M0 0 C165 0 330 0 500 0 C500 89.43 500 178.86 500 271 C335 271 170 271 0 271 C0 181.57 0 92.14 0 0 Z " fill="#DFF6F9" transform="translate(0,0)"/>
<path d="M0 0 C1.16917969 0.56976563 2.33835938 1.13953125 3.54296875 1.7265625 C13.34016447 6.78751541 22.219724 13.72103649 29.62109375 21.89453125 C30.40613281 22.58933594 31.19117188 23.28414062 32 24 C35.22919957 23.65882643 37.23800627 22.29555487 39.765625 20.33984375 C40.48290771 19.79706787 41.20019043 19.25429199 41.93920898 18.69506836 C42.70177002 18.1150708 43.46433105 17.53507324 44.25 16.9375 C64.77368508 1.73160854 85.47103898 -5 111 -5 C111 34.93 111 74.86 111 116 C105.06 116 99.12 116 93 116 C93 82.34 93 48.68 93 14 C81.58661926 17.08426368 81.58661926 17.08426368 71 21.625 C70.3390332 21.96490967 69.67806641 22.30481934 68.99707031 22.6550293 C57.9356539 28.5173686 48.5046353 36.08868048 39.5234375 44.75 C37.36316373 46.67618838 35.6486808 47.90570934 33 49 C32.36835938 48.32195313 31.73671875 47.64390625 31.0859375 46.9453125 C21.74092269 37.2232654 11.21865108 28.88010125 -1 23 C-2.60294922 22.22849609 -2.60294922 22.22849609 -4.23828125 21.44140625 C-12.22388263 17.8020666 -17.86131135 16.52311477 -27 15 C-27 48 -27 81 -27 115 C-32.61 115 -38.22 115 -44 115 C-44 105.76 -44 96.52 -44 87 C-70.73 87 -97.46 87 -125 87 C-126.65439082 100.99219878 -126.65439082 100.99219878 -128 115 C-134.27 115 -140.54 115 -147 115 C-145.18529825 82.94026906 -135.82625965 54.36334811 -113 31 C-112.13375 30.113125 -111.2675 29.22625 -110.375 28.3125 C-109.59125 27.549375 -108.8075 26.78625 -108 26 C-107.56171875 25.505 -107.1234375 25.01 -106.671875 24.5 C-82.88943053 -1.44448488 -32.31247826 -16.17596592 0 0 Z " fill="#039DA9" transform="translate(236,7)"/>
<path d="M0 0 C42.47275745 -0.02289923 84.94551419 -0.04051494 127.41827659 -0.05106533 C132.43493831 -0.05231601 137.45160002 -0.05361033 142.46826172 -0.05493164 C143.46696994 -0.05519395 144.46567817 -0.05545626 145.49465027 -0.05572652 C161.65609478 -0.06007536 177.81753573 -0.0679586 193.97897813 -0.0771528 C210.56761789 -0.08651117 227.15625579 -0.09206024 243.74489808 -0.09408849 C253.97726148 -0.09545918 264.20961479 -0.0997852 274.44197509 -0.10791647 C281.46293902 -0.11321086 288.48389775 -0.11479817 295.50486353 -0.11350138 C299.55283969 -0.11286221 303.60079827 -0.11382775 307.64877129 -0.11920547 C311.3613569 -0.1241014 315.07391324 -0.12429832 318.78650025 -0.12089889 C320.75201224 -0.12028184 322.71752393 -0.12456799 324.68303084 -0.12908131 C332.17171645 -0.11656035 339.5485732 0.24852778 347 1 C347 1.33 347 1.66 347 2 C346.4016333 2.03963867 345.8032666 2.07927734 345.18676758 2.12011719 C333.66808026 2.92099394 322.85726098 3.80389021 312 8 C310.80375 8.42152344 309.6075 8.84304688 308.375 9.27734375 C297.73740489 13.13696578 288.52116303 18.68307729 279.59765625 25.61328125 C278.78300903 26.24399536 278.78300903 26.24399536 277.9519043 26.88745117 C276.46230928 28.05647999 274.99218415 29.25019536 273.5234375 30.4453125 C271 32 271 32 268.8828125 31.9609375 C266.57577957 30.78348916 265.23897422 29.42202414 263.5 27.5 C256.2273534 20.01345203 248.14568322 14.31735149 238.875 9.625 C238.24271484 9.30337891 237.61042969 8.98175781 236.95898438 8.65039062 C226.83907799 3.74093861 217.85289133 2.54221155 206.625 2.6875 C205.3875 2.68427734 204.15 2.68105469 202.875 2.67773438 C191.49254226 2.74363281 180.75578538 4.24084534 170 8 C168.87980469 8.38800781 167.75960937 8.77601562 166.60546875 9.17578125 C151.75059107 14.69775149 139.22857475 22.80904192 128 34 C127.16210938 34.83273438 126.32421875 35.66546875 125.4609375 36.5234375 C124.64882812 37.34070312 123.83671875 38.15796875 123 39 C122.30519531 39.69738281 121.61039062 40.39476562 120.89453125 41.11328125 C104.44731169 58.4862355 92.68252287 83.02404905 91 107 C90.67 107 90.34 107 90 107 C89.505 103.535 89.505 103.535 89 100 C88.01 100.495 88.01 100.495 87 101 C87.32342377 100.0355748 87.64684753 99.0711496 87.98007202 98.07749939 C89.24371569 93.62701548 89.30694356 89.36198289 89.31884766 84.76000977 C89.32889328 83.86165909 89.3389389 82.96330841 89.34928894 82.03773499 C89.38000792 79.08896483 89.39712462 76.14028501 89.4140625 73.19140625 C89.43278323 71.13874033 89.45235731 69.08608202 89.4727478 67.03343201 C89.52397936 61.64621483 89.56365312 56.25897272 89.60089111 50.87164307 C89.64098707 45.36814249 89.69205389 39.8647448 89.7421875 34.36132812 C89.83884057 23.57428399 89.92226468 12.78719707 90 2 C83.4 2 76.8 2 70 2 C70.0314209 4.67923584 70.0628418 7.35847168 70.09521484 10.11889648 C70.19483147 18.99155823 70.26098709 27.8642453 70.31087303 36.73731899 C70.34212634 42.11481351 70.38448976 47.49173291 70.45263672 52.86889648 C70.51804289 58.06256286 70.55375114 63.25567761 70.56926346 68.4497242 C70.58031168 70.42683656 70.60188665 72.40392023 70.63438034 74.38079643 C70.92921957 93.06927028 70.92921957 93.06927028 65.7069397 99.45521545 C59.35504982 105.20369112 53.22013856 106.43877351 44.875 106.5625 C43.74723145 106.58485718 43.74723145 106.58485718 42.59667969 106.60766602 C35.61828568 106.4785214 30.48728115 104.10037075 25.1875 99.625 C20.43251243 93.91901492 19.5641331 89.31081162 19.65942383 82.14892578 C19.65876671 80.84550987 19.65876671 80.84550987 19.65809631 79.51576233 C19.66017753 76.65871295 19.68347701 73.8022587 19.70703125 70.9453125 C19.71262958 68.95848918 19.71689856 66.97166171 19.71989441 64.98483276 C19.73132451 59.76676918 19.76077599 54.54895787 19.79400635 49.33099365 C19.82474675 44.00194714 19.83840823 38.6728597 19.85351562 33.34375 C19.88564743 22.89570492 19.93840046 12.44791295 20 2 C13.4 2 6.8 2 0 2 C0 1.34 0 0.68 0 0 Z " fill="#DDF5F8" transform="translate(0,0)"/>
<path d="M0 0 C19.01779359 0 19.01779359 0 26 3 C27.66675781 3.71349609 27.66675781 3.71349609 29.3671875 4.44140625 C37.40854706 8.08240661 43.82121396 12.65421974 50 19 C50.62261719 19.59039062 51.24523437 20.18078125 51.88671875 20.7890625 C63.86151614 33.0060468 67.38842088 48.94933802 67.2265625 65.45214844 C66.81873944 82.79191117 59.30013614 98.1430711 46.73046875 110.171875 C40.46171833 115.55955711 33.64452153 118.95168769 26 122 C25.17886719 122.34160156 24.35773438 122.68320312 23.51171875 123.03515625 C15.34543347 125.98599883 9.44406552 125 0 125 C0 83.75 0 42.5 0 0 Z " fill="#DFF6F9" transform="translate(353,138)"/>
<path d="M0 0 C8.45932722 -0.0934744 16.91843177 -0.16415137 25.37815094 -0.20724869 C29.30811556 -0.22795337 33.23772194 -0.25594898 37.16748047 -0.30175781 C40.97361164 -0.34583809 44.77940254 -0.36926504 48.58576965 -0.37950897 C50.02396489 -0.38679076 51.46214561 -0.40100267 52.90019226 -0.42292023 C71.62072689 -0.69639133 89.08763082 3.90601119 103.4375 16.4375 C104.97860838 17.93778431 106.50058371 19.45804707 108 21 C108.70640625 21.68578125 109.4128125 22.3715625 110.140625 23.078125 C121.82923855 35.12364278 126.59140544 50.74724841 126.5 67.1875 C126.49427979 68.38060791 126.48855957 69.57371582 126.48266602 70.80297852 C126.1302174 88.24147125 119.48118508 103.01095846 107.4296875 115.69140625 C91.52760921 130.80093723 74.31315856 135.34984061 52.9296875 135.1953125 C51.39698472 135.19157458 49.86427953 135.1887313 48.33157349 135.18673706 C44.33017179 135.17916183 40.32891916 135.15956714 36.32757568 135.1373291 C32.23142512 135.11673775 28.13525008 135.10770714 24.0390625 135.09765625 C16.02597385 135.07631441 8.01300556 135.04225389 0 135 C0 133.68 0 132.36 0 131 C4.95 131 9.9 131 15 131 C15 89.42 15 47.84 15 5 C10.05 5 5.1 5 0 5 C0 3.35 0 1.7 0 0 Z M36 5 C36 46.25 36 87.5 36 130 C55.75698631 130 71.23441845 126.19612271 85.72265625 112.39453125 C91.58264316 106.23300127 95.42624642 99.52100934 98.875 91.8125 C99.17365967 91.14726318 99.47231934 90.48202637 99.7800293 89.79663086 C105.90915003 75.41312706 104.22115383 56.7392888 98.62890625 42.51171875 C90.40667674 24.470136 76.11785246 13.42868543 57.953125 6.18359375 C50.89495586 3.95058891 43.23324591 5 36 5 Z " fill="#343055" transform="translate(317,133)"/>
<path d="M0 0 C6.6 0 13.2 0 20 0 C20.0093457 2.65417969 20.01869141 5.30835938 20.02832031 8.04296875 C20.06213972 16.82811271 20.11771637 25.613023 20.18390274 34.39797974 C20.22335369 39.72252608 20.25555396 45.04690763 20.27099609 50.37158203 C20.28617822 55.51353423 20.32065177 60.6550333 20.36830902 65.79678345 C20.38310671 67.75505629 20.39104009 69.71339384 20.39188385 71.67172241 C20.3942601 74.42226042 20.42139245 77.17155285 20.45410156 79.921875 C20.4490712 80.72532852 20.44404083 81.52878204 20.43885803 82.35658264 C20.54200792 87.99017927 21.90031529 92.26614811 25 97 C26.91808613 98.87981194 26.91808613 98.87981194 29.0625 99.9375 C29.73410156 100.31777344 30.40570312 100.69804688 31.09765625 101.08984375 C38.50624291 104.63440369 49.3481031 104.20230186 57.234375 102.1640625 C63.16807334 99.48490779 66.21687423 95.84842655 69 90 C69.66543446 86.92465984 69.69272988 83.96854607 69.65942383 80.83007812 C69.66990753 79.95108856 69.68039124 79.072099 69.69119263 78.16647339 C69.71978264 75.28769939 69.71367006 72.4101396 69.70703125 69.53125 C69.72015601 67.52484644 69.73546262 65.51845608 69.75285339 63.51208496 C69.79262501 58.25135292 69.80288882 52.99096717 69.80688477 47.73010254 C69.81623094 42.3538162 69.85365383 36.97773207 69.88867188 31.6015625 C69.95316828 21.06766997 69.98387641 10.53407775 70 0 C76.6 0 83.2 0 90 0 C90.09056254 11.82259099 90.16386678 23.64494956 90.20724869 35.46780968 C90.22807546 40.9583264 90.2563033 46.44859239 90.30175781 51.93896484 C90.34539075 57.2428291 90.369174 62.54645298 90.37950897 67.85048294 C90.38686908 69.86858526 90.40124138 71.88667523 90.42292023 73.90467453 C90.58014902 89.15442066 89.72034529 99.07378199 78.71484375 110.515625 C68.92044646 119.47855547 58.23731833 122.58129766 45.1875 122.5 C44.12523193 122.49427979 43.06296387 122.48855957 41.96850586 122.48266602 C28.64836772 122.17888954 19.5057395 117.41638545 10.03125 108.0546875 C2.43027747 99.84177226 -0.16166324 92.35952566 -0.11352539 81.28417969 C-0.11367142 80.40577423 -0.11381744 79.52736877 -0.1139679 78.62234497 C-0.11327185 75.7221631 -0.10549386 72.82204564 -0.09765625 69.921875 C-0.09579098 67.90977005 -0.09436759 65.89766465 -0.09336853 63.88555908 C-0.08955198 58.59194686 -0.07972902 53.29836211 -0.06866455 48.00476074 C-0.05843192 42.60213594 -0.05386694 37.1995067 -0.04882812 31.796875 C-0.038106 21.19790266 -0.02051615 10.59895791 0 0 Z " fill="#039DA9" transform="translate(0,2)"/>
<path d="M0 0 C0 19.14 0 38.28 0 58 C-24.75 58 -49.5 58 -75 58 C-71.63939544 41.1969772 -53.80055069 24.90723851 -39.94580078 15.62353516 C-31.67821723 10.32293978 -23.43024639 5.86546072 -14 3 C-12.37497923 2.41672452 -10.74997828 1.83339384 -9.125 1.25 C-5.67283093 0.0161449 -3.95720483 0 0 0 Z " fill="#D9F4F7" transform="translate(192,21)"/>
<path d="M0 0 C11.55 0 23.1 0 35 0 C35.01458252 3.66432129 35.02916504 7.32864258 35.04418945 11.10400391 C35.0945086 23.20595925 35.16094877 35.30777555 35.23571491 47.40960121 C35.28065497 54.74749947 35.3200737 62.08534939 35.34643555 69.42333984 C35.3694302 75.82013431 35.40284448 82.21677557 35.44870156 88.6134485 C35.47261421 91.99956105 35.49135572 95.38552205 35.49761391 98.77171707 C35.50722589 102.55458422 35.53525217 106.33689765 35.56762695 110.11962891 C35.56619186 111.23884735 35.56475677 112.3580658 35.5632782 113.51119995 C35.63014408 119.02964884 35.72433448 123.31343173 39 128 C41.66809303 129.5592217 41.66809303 129.5592217 44.6875 130.375 C46.17830078 130.85066406 46.17830078 130.85066406 47.69921875 131.3359375 C48.45847656 131.55507813 49.21773437 131.77421875 50 132 C50 132.66 50 133.32 50 134 C33.17 134 16.34 134 -1 134 C-0.67 133.01 -0.34 132.02 0 131 C1.92578125 130.41015625 1.92578125 130.41015625 4.3125 130.0625 C8.36165203 129.29644421 10.44926579 128.40097895 13 125 C14.1941573 122.6116854 14.13348014 121.13180114 14.14717102 118.46525574 C14.15790398 117.0331501 14.15790398 117.0331501 14.16885376 115.57211304 C14.17154266 114.52117462 14.17423157 113.47023621 14.17700195 112.38745117 C14.18357315 111.28328354 14.19014435 110.17911591 14.19691467 109.04148865 C14.21667961 105.37531472 14.22831684 101.7091818 14.23828125 98.04296875 C14.24235678 96.79333155 14.2464323 95.54369434 14.25063133 94.25618935 C14.2693508 88.32576209 14.28391409 82.39534793 14.2922433 76.46489829 C14.30201514 69.62035112 14.32833273 62.7761274 14.36874419 55.93169421 C14.40254756 50.00288869 14.4143887 44.07416241 14.41844749 38.14525795 C14.42332756 35.62343463 14.43498162 33.10161512 14.45348549 30.57985497 C14.47775605 27.0532169 14.47693366 23.52742792 14.4699707 20.00073242 C14.48278076 18.9558667 14.49559082 17.91100098 14.50878906 16.83447266 C14.47676509 12.39233704 14.45157704 9.75317918 12.13175964 5.88398743 C9.70058124 3.73538237 7.88414887 2.97103722 4.75 2.1875 C3.85796875 1.95417969 2.9659375 1.72085938 2.046875 1.48046875 C1.37140625 1.32191406 0.6959375 1.16335937 0 1 C0 0.67 0 0.34 0 0 Z " fill="#353256" transform="translate(201,134)"/>
<path d="M0 0 C1.32 0 2.64 0 4 0 C4 17.49 4 34.98 4 53 C2.68 52.67 1.36 52.34 0 52 C-0.07476562 51.38253906 -0.14953125 50.76507813 -0.2265625 50.12890625 C-1.2739689 43.38237679 -3.17084307 37.96601563 -8 33 C-11.20229182 30.95435686 -14.46744233 29.38928651 -18 28 C-17.796875 26.171875 -17.796875 26.171875 -17 24 C-14.890625 22.578125 -14.890625 22.578125 -12.25 21.25 C-7.11251035 18.31429163 -4.20920614 15.51819176 -2 10 C-1.10591976 6.68859169 -0.46636982 3.39684284 0 0 Z " fill="#3E3C5F" transform="translate(269,174)"/>
<path d="M0 0 C4.53897705 -0.02465392 9.07791543 -0.04283789 13.61694336 -0.05493164 C15.16219766 -0.0599714 16.70744716 -0.0668032 18.25268555 -0.07543945 C20.46925029 -0.08752076 22.68575218 -0.09323173 24.90234375 -0.09765625 C25.5971434 -0.10281754 26.29194305 -0.10797882 27.00779724 -0.11329651 C28.6722933 -0.11349277 30.33665499 -0.06189129 32 0 C33.72744759 1.72744759 33.35451724 4.1076592 33.53515625 6.46875 C33.66567383 8.16257813 33.66567383 8.16257813 33.79882812 9.890625 C33.9293457 11.67726562 33.9293457 11.67726562 34.0625 13.5 C34.15337891 14.66015625 34.24425781 15.8203125 34.33789062 17.015625 C34.81547782 23.3643029 35.10202103 29.63388787 35 36 C34.01 36 33.02 36 32 36 C31.82984375 35.28714844 31.6596875 34.57429688 31.484375 33.83984375 C29.11831116 24.4888574 25.88298015 16.9815578 18 11 C13.43123663 8.43169859 8.75944552 6.1971131 4 4 C2.66366762 3.33936547 1.32868559 2.67588225 0 2 C0 1.34 0 0.68 0 0 Z " fill="#3E3B5E" transform="translate(265,133)"/>
<path d="M0 0 C1.32 0 2.64 0 4 0 C3.67 3.63 3.34 7.26 3 11 C2.67 11 2.34 11 2 11 C1.67 8.69 1.34 6.38 1 4 C0.01 4.495 0.01 4.495 -1 5 C-0.67 3.35 -0.34 1.7 0 0 Z " fill="#ABE0E4" transform="translate(88,96)"/>
<path d="M0 0 C1.32 0 2.64 0 4 0 C4 0.99 4 1.98 4 3 C5.32 3.33 6.64 3.66 8 4 C7.01 4.495 7.01 4.495 6 5 C3.96855359 4.06553465 1.96466413 3.06775224 0 2 C0 1.34 0 0.68 0 0 Z " fill="#38A3B1" transform="translate(220,21)"/>
</svg>
