<?xml version="1.0" encoding="UTF-8"?>
<svg version="1.1" xmlns="http://www.w3.org/2000/svg" width="600" height="471">
<path d="M0 0 C1.67474892 -0.00302384 3.34949645 -0.00691449 5.02424157 -0.01159257 C9.60754364 -0.02185121 14.1907673 -0.01969619 18.77407575 -0.01541197 C23.72442287 -0.01294088 28.67475131 -0.02196365 33.62509155 -0.02944946 C43.3159742 -0.04218768 53.00682912 -0.04399126 62.69771872 -0.0416492 C70.57590869 -0.03986496 78.45409025 -0.04161796 86.33227921 -0.04587364 C87.45425629 -0.04646883 88.57623338 -0.04706402 89.73220978 -0.04767724 C92.01162767 -0.04888902 94.29104555 -0.05010315 96.57046343 -0.05131962 C117.93854413 -0.06219171 139.30660904 -0.06003419 160.67469062 -0.05393478 C180.21427747 -0.04876552 199.75381446 -0.0600219 219.29339145 -0.07903299 C239.36731098 -0.09841394 259.44120693 -0.10666697 279.51513588 -0.10290974 C290.78084779 -0.10099814 302.04651726 -0.10348133 313.31222153 -0.11762428 C322.90247854 -0.12954227 332.49266699 -0.13093822 342.08292495 -0.11883412 C346.97351916 -0.1129485 351.86398799 -0.11183729 356.75457382 -0.12383652 C361.23660726 -0.13470534 365.71841078 -0.13158006 370.20043351 -0.11757483 C371.81675722 -0.11493068 373.43309901 -0.11728556 375.04940496 -0.1253107 C390.36020633 -0.19601886 403.43266797 1.81522686 415.21487427 12.38569641 C423.77183723 21.46986562 425.97864661 32.36144833 425.74221802 44.39741516 C424.94836768 55.45541496 419.54866943 63.64490952 411.58987427 71.01069641 C399.88494157 80.72424169 386.47654626 80.55883504 371.8719635 80.5146637 C370.20317609 80.51697125 368.5343897 80.52014974 366.86560541 80.52411819 C362.30350066 80.5324343 357.74148003 80.52835544 353.17937505 80.52214575 C348.25021836 80.51760924 343.32107585 80.52461094 338.391922 80.53010559 C328.74529243 80.53898824 319.09869403 80.53708266 309.45206326 80.53128031 C301.61106593 80.52675965 293.77007732 80.52615267 285.92907906 80.52832794 C284.81221073 80.52863441 283.69534241 80.52894087 282.54462959 80.52925663 C280.27559578 80.52989609 278.00656196 80.53054452 275.73752815 80.53120181 C254.4725108 80.53690173 233.20751071 80.53035237 211.94249619 80.51960108 C193.7024697 80.51066465 175.46246866 80.51221902 157.22244263 80.5214386 C136.03085729 80.53214508 114.83928708 80.53635373 93.64769942 80.53021407 C91.38741752 80.52957698 89.12713562 80.52894824 86.86685371 80.52832794 C85.75480515 80.52801939 84.64275659 80.52771084 83.49700959 80.52739294 C75.66637262 80.52566723 67.83574526 80.52857841 60.00510979 80.53328705 C50.46094338 80.53890001 40.91680986 80.53737061 31.37264722 80.52672556 C26.50459796 80.52147466 21.63660352 80.51940225 16.76855469 80.52602386 C12.30952958 80.53199734 7.85060994 80.52868513 3.39159436 80.51806876 C1.78139355 80.51584068 0.17118378 80.51695768 -1.43901122 80.52182034 C-16.11582829 80.56273202 -30.23942482 79.55723727 -41.47262573 68.88569641 C-50.05590421 59.34175903 -53.14914863 49.45311861 -52.81637573 36.65522766 C-51.90585061 25.6656953 -47.16292672 17.41287802 -39.16012573 9.94819641 C-27.42564261 0.09436501 -14.7722023 -0.03788817 0 0 Z " fill="#444444" transform="translate(107.53512573242188,187.7393035888672)"/>
<path d="M0 0 C1.71757631 -0.00461474 3.43514866 -0.0109715 5.15271282 -0.01890898 C9.84978649 -0.03554669 14.54653344 -0.02738129 19.243608 -0.0149641 C24.31799584 -0.00589312 29.39232853 -0.01989349 34.46670532 -0.03088379 C44.3984503 -0.04865173 54.33007422 -0.04483669 64.26182389 -0.03323323 C72.33499026 -0.0241924 80.40812275 -0.02297772 88.48129272 -0.02732849 C89.63117666 -0.02794142 90.78106059 -0.02855436 91.9657895 -0.02918586 C94.30190159 -0.03046479 96.63801367 -0.03176164 98.97412574 -0.03307623 C120.86964526 -0.04447697 142.76509774 -0.03137623 164.66060627 -0.00987476 C183.43986808 0.00799574 202.21903098 0.0048915 220.99829102 -0.0135498 C242.81652485 -0.03496542 264.63469997 -0.04337838 286.45294285 -0.03110075 C288.78036562 -0.02982658 291.10778839 -0.0285691 293.43521118 -0.02732849 C295.15282694 -0.02640284 295.15282694 -0.02640284 296.90514201 -0.02545848 C304.96675414 -0.02200767 313.02832895 -0.02782817 321.0899353 -0.0372467 C330.91700937 -0.04847572 340.74395566 -0.04540758 350.57101512 -0.02412373 C355.5830353 -0.01362555 360.5948426 -0.00947056 365.60686111 -0.02272034 C370.19866264 -0.03467546 374.79005476 -0.02803032 379.38181937 -0.00681013 C381.03914094 -0.00235728 382.69649739 -0.0045806 384.35379636 -0.01431328 C397.91533993 -0.08781997 408.80999152 1.7957322 418.95825195 11.50793457 C427.54104085 20.89535992 430.47955304 31.10593068 430.2355957 43.60949707 C429.42502028 55.00321915 423.73392134 63.07197606 415.70825195 70.75793457 C407.90505368 77.46710335 399.08469075 79.62753438 388.97620392 79.64215565 C388.28209624 79.64450788 387.58798856 79.64686011 386.87284732 79.64928362 C384.54163994 79.65595274 382.21048857 79.65551603 379.87927246 79.65510559 C378.19305318 79.65840552 376.50683469 79.66213136 374.8206172 79.66624707 C370.18236547 79.67626058 365.54412668 79.67998282 360.90586567 79.68263638 C355.90497094 79.68654137 350.90408644 79.69611959 345.90319824 79.70484924 C333.82354381 79.7246084 321.74388855 79.73467928 309.664222 79.74357703 C303.97462869 79.74796093 298.2850363 79.75332749 292.59544373 79.7585659 C273.67998701 79.77557782 254.76453088 79.7900717 235.84906769 79.79731464 C230.94080098 79.79922451 226.03253427 79.80114485 221.12426758 79.80310059 C219.90435306 79.80358433 218.68443855 79.80406807 217.42755693 79.80456647 C197.66845678 79.81286568 177.90941719 79.83820095 158.15034348 79.87068126 C137.86074854 79.90376153 117.57118437 79.92176429 97.28156233 79.92495888 C85.89108493 79.92712311 74.50069585 79.93585896 63.11024475 79.96142006 C53.40899692 79.98314025 43.70785886 79.99117095 34.00658947 79.98145328 C29.05915739 79.97691241 24.11195172 79.97878254 19.16455078 79.99821472 C14.62917133 80.01587428 10.09418298 80.01482604 5.55879921 79.99931743 C3.92413391 79.9969456 2.28944132 80.00124274 0.65481764 80.01314608 C-14.09542971 80.11384412 -26.32271776 78.01822196 -37.1628418 67.43762207 C-45.94064079 58.19274753 -48.57006619 49.0258913 -48.31518555 36.46887207 C-47.54706307 25.34206927 -42.9423066 17.12963875 -34.9753418 9.53918457 C-24.41602238 0.62326549 -13.21643985 -0.07761506 0 0 Z " fill="#444444" transform="translate(103.041748046875,347.4920654296875)"/>
<path d="M0 0 C0.69410768 -0.00235223 1.38821536 -0.00470446 2.1033566 -0.00712797 C4.43456398 -0.01379709 6.76571535 -0.01336038 9.09693146 -0.01294994 C10.78315074 -0.01624987 12.46936923 -0.01997571 14.15558672 -0.02409142 C18.79383845 -0.03410493 23.43207724 -0.03782718 28.07033825 -0.04048073 C33.07123298 -0.04438572 38.07211748 -0.05396395 43.07300568 -0.0626936 C55.15266011 -0.08245275 67.23231537 -0.09252364 79.31198192 -0.10142139 C85.00157523 -0.10580528 90.69116761 -0.11117184 96.38076019 -0.11641026 C115.29621691 -0.13342217 134.21167304 -0.14791605 153.12713623 -0.155159 C158.03540294 -0.15706887 162.94366965 -0.1589892 167.85193634 -0.16094494 C169.07185085 -0.16142868 170.29176537 -0.16191242 171.54864699 -0.16241082 C191.30774714 -0.17071003 211.06678673 -0.1960453 230.82586044 -0.22852562 C251.11545538 -0.26160588 271.40501955 -0.27960865 291.69464159 -0.28280324 C303.08511898 -0.28496746 314.47550807 -0.29370331 325.86595917 -0.31926441 C335.567207 -0.3409846 345.26834506 -0.34901531 354.96961445 -0.33929763 C359.91704652 -0.33475676 364.8642522 -0.33662689 369.81165314 -0.35605907 C374.34703259 -0.37371864 378.88202094 -0.37267039 383.41740471 -0.35716178 C385.05207001 -0.35478995 386.6867626 -0.35908709 388.32138628 -0.37099043 C403.07163363 -0.47168848 415.29892168 1.62393369 426.13904572 12.20453358 C434.91684471 21.44940812 437.54627011 30.61626435 437.29138947 43.17328358 C436.52326698 54.30008637 431.91851052 62.5125169 423.95154572 70.10297108 C413.39993162 79.01238405 402.21455715 79.71884814 389.00743866 79.63542652 C387.29327514 79.63932424 385.57911487 79.64496845 383.86496216 79.65219742 C379.17735183 79.6669022 374.49007913 79.65680052 369.80247986 79.6424607 C364.73834177 79.63132652 359.67425008 79.64330157 354.61011505 79.65230274 C344.69875276 79.66622024 334.78751806 79.65869014 324.87616187 79.64362716 C313.33012379 79.62674909 301.78411734 79.62997957 290.23807073 79.63372124 C269.63545656 79.63959703 249.03290354 79.62543892 228.43030548 79.60077381 C208.44525612 79.57685077 188.46028846 79.56977114 168.47522736 79.580266 C146.7035187 79.59167863 124.93184782 79.59360123 103.16013962 79.5791679 C100.83807091 79.57764209 98.5160022 79.57612173 96.19393349 79.5746069 C95.05147971 79.57384908 93.90902594 79.57309127 92.73195235 79.57231049 C84.68641007 79.56757058 76.64088466 79.569417 68.59534264 79.57367229 C58.78948254 79.57860197 48.98369964 79.57260099 39.17785721 79.552778 C34.1761217 79.54291539 29.17450367 79.53778982 24.17276192 79.54567051 C19.59155792 79.55274087 15.01059069 79.54589096 10.42941786 79.52806688 C8.77480626 79.52403121 7.12017299 79.52500743 5.46556955 79.53158575 C-8.99938628 79.58415996 -19.94682242 77.72350208 -30.80236053 67.40375233 C-39.00969299 58.39218378 -41.48401638 47.92290426 -41.29454803 35.92718983 C-40.27585462 23.56279849 -33.57035479 14.76377875 -24.41954803 6.89593983 C-17.0765786 1.58876159 -8.89437947 0.01286514 0 0 Z " fill="#444444" transform="translate(95.98204803466797,28.865778923034668)"/>
</svg>
