<svg width="61" height="61" viewBox="0 0 61 61" fill="none" xmlns="http://www.w3.org/2000/svg">
<circle cx="30.5" cy="30.5" r="30.5" fill="black"/>
<g clip-path="url(#clip0_14_326)">
<path d="M38.907 45.3926V41.9772C38.907 40.1656 38.1984 38.4282 36.9371 37.1472C35.6758 35.8661 33.9651 35.1465 32.1813 35.1465H18.73C16.9463 35.1465 15.2356 35.8661 13.9743 37.1472C12.713 38.4282 12.0044 40.1656 12.0044 41.9772V45.3926M48.9954 45.3926V41.9772C48.9943 40.4637 48.4983 38.9935 47.5853 37.7973C46.6723 36.6012 45.3941 35.7469 43.9512 35.3685M37.2255 14.8763C38.6723 15.2525 39.9545 16.107 40.8702 17.3051C41.7859 18.5033 42.283 19.9769 42.283 21.4936C42.283 23.0103 41.7859 24.4839 40.8702 25.682C39.9545 26.8801 38.6723 27.7346 37.2255 28.1108M32.1813 21.485C32.1813 25.2575 29.1701 28.3158 25.4557 28.3158C21.7412 28.3158 18.73 25.2575 18.73 21.485C18.73 17.7125 21.7412 14.6543 25.4557 14.6543C29.1701 14.6543 32.1813 17.7125 32.1813 21.485Z" stroke="#F3F3F3" stroke-width="4" stroke-linecap="round" stroke-linejoin="round"/>
</g>
<defs>
<clipPath id="clip0_14_326">
<rect width="40.3538" height="40.9844" fill="white" transform="translate(10.323 9.53125)"/>
</clipPath>
</defs>
</svg>
