<?xml version="1.0" encoding="UTF-8"?>
<svg version="1.1" xmlns="http://www.w3.org/2000/svg" width="800" height="800">
<path d="M0 0 C0.66404846 0.10652893 1.32809692 0.21305786 2.01226807 0.32281494 C7.18187092 1.1551247 12.34267676 2.0323696 17.5 2.9375 C18.19846039 3.05861145 18.89692078 3.1797229 19.61654663 3.30450439 C42.06325442 7.24908074 42.06325442 7.24908074 47.125 13.0625 C49.99764155 17.56297176 50.14008574 21.14679783 50.11352539 26.31713867 C50.11367142 27.05884811 50.11381744 27.80055756 50.1139679 28.56474304 C50.11327134 31.01584805 50.10549097 33.46687702 50.09765625 35.91796875 C50.09579116 37.61761941 50.09436768 39.31727061 50.09336853 41.016922 C50.08955055 45.49019861 50.07972638 49.96344276 50.06866455 54.43670654 C50.05843499 59.00141969 50.0538676 63.56613807 50.04882812 68.13085938 C50.03810349 77.08725385 50.02103567 86.04362422 50 95 C50.72313889 95.18860092 51.44627777 95.37720184 52.19132996 95.57151794 C57.29887439 96.92903288 62.2471797 98.32123639 67.11328125 100.41015625 C68.13357422 100.84263672 69.15386719 101.27511719 70.20507812 101.72070312 C71.23052734 102.16349609 72.25597656 102.60628906 73.3125 103.0625 C75.39110921 103.95113429 77.47051251 104.83791386 79.55078125 105.72265625 C80.45481689 106.11203369 81.35885254 106.50141113 82.2902832 106.90258789 C85.15842102 108.06415916 88.06132141 109.03303948 91 110 C91.97932747 109.01067978 91.97932747 109.01067978 92.97843933 108.00137329 C99.13541155 101.78426661 105.2995941 95.5744194 111.47196484 89.37259865 C114.64491707 86.18399686 117.81502083 82.99266743 120.97875977 79.79492188 C124.03257813 76.70848528 127.09368664 73.62945499 130.15996742 70.55540085 C131.32796641 69.38186283 132.49332358 68.20568929 133.65596581 67.02684402 C135.28608748 65.37491581 136.92538861 63.73264588 138.56713867 62.09228516 C139.04475143 61.60388657 139.5223642 61.11548798 140.01445007 60.61228943 C143.99669412 56.66631282 147.16273451 55.21798065 152.6875 54.5625 C176.19122949 55.43462354 206.55886503 88.97533205 223 104 C224.01289099 104.9194139 225.02591816 105.83867779 226.0390625 106.7578125 C233.43985494 113.48674529 240.60317093 120.26657422 247.1328125 127.85546875 C249.13153645 130.15107429 251.18945229 132.384796 253.25 134.625 C261.42474355 143.71111699 268.70346609 153.48914051 275.875 163.375 C276.4102832 164.11169922 276.94556641 164.84839844 277.49707031 165.60742188 C288.72014873 181.21418547 288.72014873 181.21418547 288 190 C285.18915049 197.54993235 279.987721 202.46325611 274.28671837 207.95281029 C272.60857023 209.5700964 270.94460018 211.20084124 269.28364563 212.83576965 C264.56369756 217.47660107 259.818151 222.09095149 255.06713867 226.69995117 C252.15173684 229.53006087 249.25099433 232.37454511 246.35846901 235.22802162 C245.25537191 236.30997547 244.14648386 237.3860577 243.03180504 238.45607567 C241.47844285 239.94722377 239.94419645 241.45579016 238.4128418 242.96948242 C237.09524117 244.24900032 237.09524117 244.24900032 235.75102234 245.55436707 C233.7081408 247.86359125 233.7081408 247.86359125 234.16766357 250.68026733 C234.99380756 252.98274159 235.89519943 255.12786617 237.00390625 257.30859375 C237.41141113 258.12803467 237.81891602 258.94747559 238.23876953 259.79174805 C238.67560059 260.66484619 239.11243164 261.53794434 239.5625 262.4375 C243.36585632 270.21032516 246.69271867 278.04541765 249.625 286.1875 C250.13848999 287.61243774 250.13848999 287.61243774 250.66235352 289.06616211 C253 295.6974946 253 295.6974946 253 298 C253.93658951 297.99111755 254.87317902 297.98223511 255.83815002 297.9730835 C264.68030352 297.89186871 273.52238098 297.83197288 282.36482334 297.79275131 C286.91044772 297.77190888 291.4557701 297.74365271 296.0012207 297.69824219 C300.39085277 297.65466459 304.78019503 297.63083775 309.17002678 297.62049103 C310.84173072 297.61312097 312.51341946 297.59872888 314.18499947 297.57707977 C316.53326362 297.54788632 318.88034228 297.54405048 321.22875977 297.54589844 C321.91424896 297.53151733 322.59973816 297.51713623 323.30599976 297.50231934 C328.6824981 297.54786485 331.65760432 299.05882733 336 302 C339.9876084 306.65561801 341.19209613 311.46126771 342.4375 317.3125 C342.64213867 318.24239746 342.84677734 319.17229492 343.05761719 320.13037109 C344.94683629 329.07468771 346.37621418 338.09000393 347.75 347.125 C347.85682098 347.82460846 347.96364197 348.52421692 348.07369995 349.24502563 C352.85927542 380.87864001 353.15926556 414.38947399 348 446 C347.83667175 447.0031424 347.83667175 447.0031424 347.67004395 448.02655029 C346.81714051 453.23268584 345.92312317 458.43087355 345 463.625 C344.87461853 464.33200043 344.74923706 465.03900085 344.62005615 465.76742554 C340.72843261 487.43523689 340.72843261 487.43523689 335 493 C330.40472268 495.785967 326.6119344 496.42305884 321.34228516 496.34057617 C320.60013763 496.34101425 319.85799011 496.34145233 319.09335327 496.34190369 C316.65831514 496.33982596 314.22397925 496.31654389 311.7890625 496.29296875 C310.09370296 496.28736916 308.39833855 496.28310078 306.70297241 496.28010559 C302.25427705 496.26868535 297.80587843 496.23924267 293.3572998 496.20599365 C288.81245944 496.17523177 284.26757085 496.16158721 279.72265625 496.14648438 C270.81497424 496.11437008 261.90751186 496.06320807 253 496 C252.80976761 496.72558609 252.61953522 497.45117218 252.42353821 498.19874573 C251.08694517 503.21269813 249.73881455 508.10775613 247.73046875 512.90234375 C247.31901611 513.88944336 246.90756348 514.87654297 246.48364258 515.89355469 C246.05591553 516.89805664 245.62818848 517.90255859 245.1875 518.9375 C244.74752686 519.98711914 244.30755371 521.03673828 243.85424805 522.11816406 C241.14030455 528.52886605 238.27643602 534.75620546 234.86328125 540.828125 C233.78792118 543.53355575 233.95080506 544.3022461 235 547 C237.03567405 549.44470038 237.03567405 549.44470038 239.65576172 551.93286133 C240.1387674 552.40987991 240.62177307 552.8868985 241.11941528 553.37837219 C242.16761722 554.41182827 243.21922965 555.44183404 244.27383041 556.46875954 C245.94567148 558.09760415 247.60745795 559.73611635 249.26687622 561.37760925 C253.98636984 566.0421112 258.72532846 570.68669869 263.46630859 575.3293457 C266.36771847 578.17192061 269.25917196 581.02433371 272.14520645 583.88251305 C273.77659916 585.49182312 275.41926457 587.08900014 277.06246948 588.68623352 C278.07075545 589.68317459 279.07844656 590.68071776 280.08544922 591.67895508 C280.96401581 592.53959061 281.8425824 593.40022614 282.74777222 594.28694153 C286.09808109 598.32276061 287.7677918 602.17550697 288.4375 607.4375 C287.52322941 614.88227482 282.84740165 621.02050846 278.5625 627 C278.04389404 627.72912598 277.52528809 628.45825195 276.9909668 629.20947266 C271.77765058 636.45335331 266.17920202 643.35898875 260.47363281 650.21777344 C259.12024266 651.8545773 257.78599715 653.50429553 256.4609375 655.1640625 C252.50461154 660.09927324 248.43751453 664.70094934 243.8984375 669.10546875 C241.9999406 671.00005928 240.2464372 672.96512408 238.5 675 C233.14430537 681.20580489 227.32535407 686.83138207 221.109375 692.16796875 C218.82370454 694.15311587 216.60298622 696.2003983 214.375 698.25 C208.17377426 703.83677502 201.61821727 708.92256779 195 714 C194.36787598 714.48903809 193.73575195 714.97807617 193.08447266 715.48193359 C185.51706237 721.32748662 177.82909351 726.90836111 169.8125 732.125 C169.10569092 732.58648438 168.39888184 733.04796875 167.6706543 733.5234375 C161.7098384 737.33881936 156.32892305 740.23253136 149 739 C144.29405086 736.97371823 141.14345834 734.51036169 137.54541016 730.88598633 C137.03734833 730.37836258 136.5292865 729.87073883 136.00582886 729.34773254 C134.34302109 727.68284949 132.69106942 726.00762617 131.0390625 724.33203125 C129.88244283 723.16981115 128.72515515 722.00825549 127.56723022 720.84733582 C124.53238712 717.80107919 121.50666459 714.74591948 118.48278809 711.68878174 C115.39114568 708.56636308 112.29091409 705.45249822 109.19140625 702.33789062 C103.11919164 696.23357352 97.0565909 690.11981879 91 684 C87.1023468 685.28250731 83.31979294 686.65399169 79.55078125 688.27734375 C78.53693359 688.70853516 77.52308594 689.13972656 76.47851562 689.58398438 C74.38576026 690.47866634 72.29457971 691.37704195 70.20507812 692.27929688 C68.67463867 692.92801758 68.67463867 692.92801758 67.11328125 693.58984375 C66.20360596 693.98034912 65.29393066 694.37085449 64.35668945 694.77319336 C59.65347221 696.49213049 54.84261713 697.73700326 50 699 C50.00888245 699.93658951 50.01776489 700.87317902 50.0269165 701.83815002 C50.10813129 710.68030352 50.16802712 719.52238098 50.20724869 728.36482334 C50.22809112 732.91044772 50.25634729 737.4557701 50.30175781 742.0012207 C50.34533541 746.39085277 50.36916225 750.78019503 50.37950897 755.17002678 C50.38687903 756.84173072 50.40127112 758.51341946 50.42292023 760.18499947 C50.45211368 762.53326362 50.45594952 764.88034228 50.45410156 767.22875977 C50.46848267 767.91424896 50.48286377 768.59973816 50.49768066 769.30599976 C50.45213515 774.6824981 48.94117267 777.65760432 46 782 C41.34438199 785.9876084 36.53873229 787.19209613 30.6875 788.4375 C29.75760254 788.64213867 28.82770508 788.84677734 27.86962891 789.05761719 C18.92531229 790.94683629 9.90999607 792.37621418 0.875 793.75 C0.17539154 793.85682098 -0.52421692 793.96364197 -1.24502563 794.07369995 C-32.8915394 798.86122685 -66.37533484 799.13448358 -98 794 C-98.66404846 793.89347107 -99.32809692 793.78694214 -100.01226807 793.67718506 C-105.18187092 792.8448753 -110.34267676 791.9676304 -115.5 791.0625 C-116.19846039 790.94138855 -116.89692078 790.8202771 -117.61654663 790.69549561 C-140.06325442 786.75091926 -140.06325442 786.75091926 -145.125 780.9375 C-147.99764155 776.43702824 -148.14008574 772.85320217 -148.11352539 767.68286133 C-148.11367142 766.94115189 -148.11381744 766.19944244 -148.1139679 765.43525696 C-148.11327134 762.98415195 -148.10549097 760.53312298 -148.09765625 758.08203125 C-148.09579116 756.38238059 -148.09436768 754.68272939 -148.09336853 752.983078 C-148.08955055 748.50980139 -148.07972638 744.03655724 -148.06866455 739.56329346 C-148.05843499 734.99858031 -148.0538676 730.43386193 -148.04882812 725.86914062 C-148.03810349 716.91274615 -148.02103567 707.95637578 -148 699 C-148.72558609 698.80976761 -149.45117218 698.61953522 -150.19874573 698.42353821 C-155.21269813 697.08694517 -160.10775613 695.73881455 -164.90234375 693.73046875 C-165.88944336 693.31901611 -166.87654297 692.90756348 -167.89355469 692.48364258 C-168.89805664 692.05591553 -169.90255859 691.62818848 -170.9375 691.1875 C-171.98711914 690.74752686 -173.03673828 690.30755371 -174.11816406 689.85424805 C-180.52886605 687.14030455 -186.75620546 684.27643602 -192.828125 680.86328125 C-195.53355575 679.78792118 -196.3022461 679.95080506 -199 681 C-201.44470038 683.03567405 -201.44470038 683.03567405 -203.93286133 685.65576172 C-204.40987991 686.1387674 -204.8868985 686.62177307 -205.37837219 687.11941528 C-206.41182827 688.16761722 -207.44183404 689.21922965 -208.46875954 690.27383041 C-210.09760415 691.94567148 -211.73611635 693.60745795 -213.37760925 695.26687622 C-218.0421112 699.98636984 -222.68669869 704.72532846 -227.3293457 709.46630859 C-230.17192061 712.36771847 -233.02433371 715.25917196 -235.88251305 718.14520645 C-237.49182312 719.77659916 -239.08900014 721.41926457 -240.68623352 723.06246948 C-241.68317459 724.07075545 -242.68071776 725.07844656 -243.67895508 726.08544922 C-244.53959061 726.96401581 -245.40022614 727.8425824 -246.28694153 728.74777222 C-250.32276061 732.09808109 -254.17550697 733.7677918 -259.4375 734.4375 C-266.88227482 733.52322941 -273.02050846 728.84740165 -279 724.5625 C-279.72912598 724.04389404 -280.45825195 723.52528809 -281.20947266 722.9909668 C-288.45335331 717.77765058 -295.35898875 712.17920202 -302.21777344 706.47363281 C-303.8545773 705.12024266 -305.50429553 703.78599715 -307.1640625 702.4609375 C-312.09927324 698.50461154 -316.70094934 694.43751453 -321.10546875 689.8984375 C-323.00005928 687.9999406 -324.96512408 686.2464372 -327 684.5 C-333.20580489 679.14430537 -338.83138207 673.32535407 -344.16796875 667.109375 C-346.15311587 664.82370454 -348.2003983 662.60298622 -350.25 660.375 C-355.83677502 654.17377426 -360.92256779 647.61821727 -366 641 C-366.48903809 640.36787598 -366.97807617 639.73575195 -367.48193359 639.08447266 C-373.32748662 631.51706237 -378.90836111 623.82909351 -384.125 615.8125 C-384.58648437 615.10569092 -385.04796875 614.39888184 -385.5234375 613.6706543 C-389.33881936 607.7098384 -392.23253136 602.32892305 -391 595 C-388.97371823 590.29405086 -386.51036169 587.14345834 -382.88598633 583.54541016 C-382.37836258 583.03734833 -381.87073883 582.5292865 -381.34773254 582.00582886 C-379.68284949 580.34302109 -378.00762617 578.69106942 -376.33203125 577.0390625 C-375.16981115 575.88244283 -374.00825549 574.72515515 -372.84733582 573.56723022 C-369.80107919 570.53238712 -366.74591948 567.50666459 -363.68878174 564.48278809 C-360.56636308 561.39114568 -357.45249822 558.29091409 -354.33789062 555.19140625 C-348.23357352 549.11919164 -342.11981879 543.0565909 -336 537 C-337.28250731 533.1023468 -338.65399169 529.31979294 -340.27734375 525.55078125 C-340.70853516 524.53693359 -341.13972656 523.52308594 -341.58398438 522.47851562 C-342.47866634 520.38576026 -343.37704195 518.29457971 -344.27929688 516.20507812 C-344.92801758 514.67463867 -344.92801758 514.67463867 -345.58984375 513.11328125 C-345.98034912 512.20360596 -346.37085449 511.29393066 -346.77319336 510.35668945 C-348.49213049 505.65347221 -349.73700326 500.84261713 -351 496 C-351.93658951 496.00888245 -352.87317902 496.01776489 -353.83815002 496.0269165 C-362.68030352 496.10813129 -371.52238098 496.16802712 -380.36482334 496.20724869 C-384.91044772 496.22809112 -389.4557701 496.25634729 -394.0012207 496.30175781 C-398.39085277 496.34533541 -402.78019503 496.36916225 -407.17002678 496.37950897 C-408.84173072 496.38687903 -410.51341946 496.40127112 -412.18499947 496.42292023 C-414.53326362 496.45211368 -416.88034228 496.45594952 -419.22875977 496.45410156 C-419.91424896 496.46848267 -420.59973816 496.48286377 -421.30599976 496.49768066 C-426.6824981 496.45213515 -429.65760432 494.94117267 -434 492 C-437.9876084 487.34438199 -439.19209613 482.53873229 -440.4375 476.6875 C-440.64213867 475.75760254 -440.84677734 474.82770508 -441.05761719 473.86962891 C-442.94683629 464.92531229 -444.37621418 455.90999607 -445.75 446.875 C-445.85682098 446.17539154 -445.96364197 445.47578308 -446.07369995 444.75497437 C-450.85927542 413.12135999 -451.15926556 379.61052601 -446 348 C-445.83667175 346.9968576 -445.83667175 346.9968576 -445.67004395 345.97344971 C-444.81714051 340.76731416 -443.92312317 335.56912645 -443 330.375 C-442.87461853 329.66799957 -442.74923706 328.96099915 -442.62005615 328.23257446 C-438.72843261 306.56476311 -438.72843261 306.56476311 -433 301 C-428.40472268 298.214033 -424.6119344 297.57694116 -419.34228516 297.65942383 C-418.22906387 297.65876671 -418.22906387 297.65876671 -417.09335327 297.65809631 C-414.65831514 297.66017404 -412.22397925 297.68345611 -409.7890625 297.70703125 C-408.09370296 297.71263084 -406.39833855 297.71689922 -404.70297241 297.71989441 C-400.25427705 297.73131465 -395.80587843 297.76075733 -391.3572998 297.79400635 C-386.81245944 297.82476823 -382.26757085 297.83841279 -377.72265625 297.85351562 C-368.81497424 297.88562992 -359.90751186 297.93679193 -351 298 C-350.80976761 297.27441391 -350.61953522 296.54882782 -350.42353821 295.80125427 C-349.08694517 290.78730187 -347.73881455 285.89224387 -345.73046875 281.09765625 C-345.31901611 280.11055664 -344.90756348 279.12345703 -344.48364258 278.10644531 C-344.05591553 277.10194336 -343.62818848 276.09744141 -343.1875 275.0625 C-342.52754028 273.48807129 -342.52754028 273.48807129 -341.85424805 271.88183594 C-339.14030455 265.47113395 -336.27643602 259.24379454 -332.86328125 253.171875 C-331.78792118 250.46644425 -331.95080506 249.6977539 -333 247 C-335.03567405 244.55529962 -335.03567405 244.55529962 -337.65576172 242.06713867 C-338.1387674 241.59012009 -338.62177307 241.1131015 -339.11941528 240.62162781 C-340.16761722 239.58817173 -341.21922965 238.55816596 -342.27383041 237.53124046 C-343.94567148 235.90239585 -345.60745795 234.26388365 -347.26687622 232.62239075 C-351.98636984 227.9578888 -356.72532846 223.31330131 -361.46630859 218.6706543 C-364.36771847 215.82807939 -367.25917196 212.97566629 -370.14520645 210.11748695 C-371.77659916 208.50817688 -373.41926457 206.91099986 -375.06246948 205.31376648 C-376.07075545 204.31682541 -377.07844656 203.31928224 -378.08544922 202.32104492 C-378.96401581 201.46040939 -379.8425824 200.59977386 -380.74777222 199.71305847 C-384.09808109 195.67723939 -385.7677918 191.82449303 -386.4375 186.5625 C-385.5146466 179.04783662 -380.77250283 172.89657997 -376.4375 166.875 C-375.9108374 166.13781738 -375.3841748 165.40063477 -374.84155273 164.64111328 C-354.4383122 136.28613819 -330.47410976 109.64743761 -303 88 C-301.86311575 87.07341234 -300.72779757 86.14490106 -299.59375 85.21484375 C-262.85877443 55.21591914 -262.85877443 55.21591914 -249.23046875 54.671875 C-243.43735619 55.52410172 -239.53591485 59.09431017 -235.54541016 63.11401367 C-234.78331741 63.8754493 -234.78331741 63.8754493 -234.00582886 64.65226746 C-232.34302109 66.31715051 -230.69106942 67.99237383 -229.0390625 69.66796875 C-227.88244283 70.83018885 -226.72515515 71.99174451 -225.56723022 73.15266418 C-222.53238712 76.19892081 -219.50666459 79.25408052 -216.48278809 82.31121826 C-213.39114568 85.43363692 -210.29091409 88.54750178 -207.19140625 91.66210938 C-201.11919164 97.76642648 -195.0565909 103.88018121 -189 110 C-185.1023468 108.71749269 -181.31979294 107.34600831 -177.55078125 105.72265625 C-176.53693359 105.29146484 -175.52308594 104.86027344 -174.47851562 104.41601562 C-172.38576026 103.52133366 -170.29457971 102.62295805 -168.20507812 101.72070312 C-167.18478516 101.28822266 -166.16449219 100.85574219 -165.11328125 100.41015625 C-163.74876831 99.82439819 -163.74876831 99.82439819 -162.35668945 99.22680664 C-157.65347221 97.50786951 -152.84261713 96.26299674 -148 95 C-148.00888245 94.06341049 -148.01776489 93.12682098 -148.0269165 92.16184998 C-148.10813129 83.31969648 -148.16802712 74.47761902 -148.20724869 65.63517666 C-148.22809112 61.08955228 -148.25634729 56.5442299 -148.30175781 51.9987793 C-148.34533541 47.60914723 -148.36916225 43.21980497 -148.37950897 38.82997322 C-148.38687903 37.15826928 -148.40127112 35.48658054 -148.42292023 33.81500053 C-148.45211368 31.46673638 -148.45594952 29.11965772 -148.45410156 26.77124023 C-148.46848267 26.08575104 -148.48286377 25.40026184 -148.49768066 24.69400024 C-148.45213515 19.3175019 -146.94117267 16.34239568 -144 12 C-139.34438199 8.0123916 -134.53873229 6.80790387 -128.6875 5.5625 C-127.75760254 5.35786133 -126.82770508 5.15322266 -125.86962891 4.94238281 C-116.92531229 3.05316371 -107.90999607 1.62378582 -98.875 0.25 C-98.17539154 0.14317902 -97.47578308 0.03635803 -96.75497437 -0.07369995 C-65.1084606 -4.86122685 -31.62466516 -5.13448358 0 0 Z M-125.47460938 332.22900391 C-139.65215786 348.68930108 -148.12546684 370.28876384 -149 392 C-149.03996094 392.74636719 -149.07992188 393.49273437 -149.12109375 394.26171875 C-149.89178282 421.68918267 -139.10643356 447.08911665 -120.49755859 466.9519043 C-103.04451674 484.94854827 -79.16682177 495.98627513 -54 497 C-53.25363281 497.03996094 -52.50726563 497.07992187 -51.73828125 497.12109375 C-24.31081733 497.89178282 1.08911665 487.10643356 20.9519043 468.49755859 C38.94854827 451.04451674 49.98627513 427.16682177 51 402 C51.03996094 401.25363281 51.07992187 400.50726563 51.12109375 399.73828125 C51.89178282 372.31081733 41.10643356 346.91088335 22.49755859 327.0480957 C5.04451674 309.05145173 -18.83317823 298.01372487 -44 297 C-45.11955078 296.94005859 -45.11955078 296.94005859 -46.26171875 296.87890625 C-77.02822937 296.01439273 -104.97218379 309.69782412 -125.47460938 332.22900391 Z " fill="#BCBCBC" transform="translate(449,3)"/>
<path d="M0 0 C0.66404846 0.10652893 1.32809692 0.21305786 2.01226807 0.32281494 C7.18187092 1.1551247 12.34267676 2.0323696 17.5 2.9375 C18.19846039 3.05861145 18.89692078 3.1797229 19.61654663 3.30450439 C42.06325442 7.24908074 42.06325442 7.24908074 47.125 13.0625 C49.99764155 17.56297176 50.14008574 21.14679783 50.11352539 26.31713867 C50.11367142 27.05884811 50.11381744 27.80055756 50.1139679 28.56474304 C50.11327134 31.01584805 50.10549097 33.46687702 50.09765625 35.91796875 C50.09579116 37.61761941 50.09436768 39.31727061 50.09336853 41.016922 C50.08955055 45.49019861 50.07972638 49.96344276 50.06866455 54.43670654 C50.05843499 59.00141969 50.0538676 63.56613807 50.04882812 68.13085938 C50.03810349 77.08725385 50.02103567 86.04362422 50 95 C50.72313889 95.18860092 51.44627777 95.37720184 52.19132996 95.57151794 C57.29887439 96.92903288 62.2471797 98.32123639 67.11328125 100.41015625 C68.13357422 100.84263672 69.15386719 101.27511719 70.20507812 101.72070312 C71.23052734 102.16349609 72.25597656 102.60628906 73.3125 103.0625 C75.39110921 103.95113429 77.47051251 104.83791386 79.55078125 105.72265625 C80.45481689 106.11203369 81.35885254 106.50141113 82.2902832 106.90258789 C85.15842102 108.06415916 88.06132141 109.03303948 91 110 C91.97932747 109.01067978 91.97932747 109.01067978 92.97843933 108.00137329 C99.13541155 101.78426661 105.2995941 95.5744194 111.47196484 89.37259865 C114.64491707 86.18399686 117.81502083 82.99266743 120.97875977 79.79492188 C124.03257813 76.70848528 127.09368664 73.62945499 130.15996742 70.55540085 C131.32796641 69.38186283 132.49332358 68.20568929 133.65596581 67.02684402 C135.28608748 65.37491581 136.92538861 63.73264588 138.56713867 62.09228516 C139.04475143 61.60388657 139.5223642 61.11548798 140.01445007 60.61228943 C143.99669412 56.66631282 147.16273451 55.21798065 152.6875 54.5625 C176.19122949 55.43462354 206.55886503 88.97533205 223 104 C224.01289099 104.9194139 225.02591816 105.83867779 226.0390625 106.7578125 C233.43985494 113.48674529 240.60317093 120.26657422 247.1328125 127.85546875 C249.13153645 130.15107429 251.18945229 132.384796 253.25 134.625 C261.42474355 143.71111699 268.70346609 153.48914051 275.875 163.375 C276.4102832 164.11169922 276.94556641 164.84839844 277.49707031 165.60742188 C288.72014873 181.21418547 288.72014873 181.21418547 288 190 C285.18915049 197.54993235 279.987721 202.46325611 274.28671837 207.95281029 C272.60857023 209.5700964 270.94460018 211.20084124 269.28364563 212.83576965 C264.56369756 217.47660107 259.818151 222.09095149 255.06713867 226.69995117 C252.15173684 229.53006087 249.25099433 232.37454511 246.35846901 235.22802162 C245.25537191 236.30997547 244.14648386 237.3860577 243.03180504 238.45607567 C241.47844285 239.94722377 239.94419645 241.45579016 238.4128418 242.96948242 C237.09524117 244.24900032 237.09524117 244.24900032 235.75102234 245.55436707 C233.7081408 247.86359125 233.7081408 247.86359125 234.16766357 250.68026733 C234.99380756 252.98274159 235.89519943 255.12786617 237.00390625 257.30859375 C237.41141113 258.12803467 237.81891602 258.94747559 238.23876953 259.79174805 C238.67560059 260.66484619 239.11243164 261.53794434 239.5625 262.4375 C243.36585632 270.21032516 246.69271867 278.04541765 249.625 286.1875 C250.13848999 287.61243774 250.13848999 287.61243774 250.66235352 289.06616211 C253 295.6974946 253 295.6974946 253 298 C253.93658951 297.99111755 254.87317902 297.98223511 255.83815002 297.9730835 C264.68030352 297.89186871 273.52238098 297.83197288 282.36482334 297.79275131 C286.91044772 297.77190888 291.4557701 297.74365271 296.0012207 297.69824219 C300.39085277 297.65466459 304.78019503 297.63083775 309.17002678 297.62049103 C310.84173072 297.61312097 312.51341946 297.59872888 314.18499947 297.57707977 C316.53326362 297.54788632 318.88034228 297.54405048 321.22875977 297.54589844 C321.91424896 297.53151733 322.59973816 297.51713623 323.30599976 297.50231934 C328.6824981 297.54786485 331.65760432 299.05882733 336 302 C339.9876084 306.65561801 341.19209613 311.46126771 342.4375 317.3125 C342.64213867 318.24239746 342.84677734 319.17229492 343.05761719 320.13037109 C344.94683629 329.07468771 346.37621418 338.09000393 347.75 347.125 C347.85682098 347.82460846 347.96364197 348.52421692 348.07369995 349.24502563 C352.85927542 380.87864001 353.15926556 414.38947399 348 446 C347.83667175 447.0031424 347.83667175 447.0031424 347.67004395 448.02655029 C346.81714051 453.23268584 345.92312317 458.43087355 345 463.625 C344.87461853 464.33200043 344.74923706 465.03900085 344.62005615 465.76742554 C340.72843261 487.43523689 340.72843261 487.43523689 335 493 C330.40472268 495.785967 326.6119344 496.42305884 321.34228516 496.34057617 C320.60013763 496.34101425 319.85799011 496.34145233 319.09335327 496.34190369 C316.65831514 496.33982596 314.22397925 496.31654389 311.7890625 496.29296875 C310.09370296 496.28736916 308.39833855 496.28310078 306.70297241 496.28010559 C302.25427705 496.26868535 297.80587843 496.23924267 293.3572998 496.20599365 C288.81245944 496.17523177 284.26757085 496.16158721 279.72265625 496.14648438 C270.81497424 496.11437008 261.90751186 496.06320807 253 496 C252.80976761 496.72558609 252.61953522 497.45117218 252.42353821 498.19874573 C251.08694517 503.21269813 249.73881455 508.10775613 247.73046875 512.90234375 C247.31901611 513.88944336 246.90756348 514.87654297 246.48364258 515.89355469 C246.05591553 516.89805664 245.62818848 517.90255859 245.1875 518.9375 C244.74752686 519.98711914 244.30755371 521.03673828 243.85424805 522.11816406 C241.14030455 528.52886605 238.27643602 534.75620546 234.86328125 540.828125 C233.78792118 543.53355575 233.95080506 544.3022461 235 547 C237.03567405 549.44470038 237.03567405 549.44470038 239.65576172 551.93286133 C240.1387674 552.40987991 240.62177307 552.8868985 241.11941528 553.37837219 C242.16761722 554.41182827 243.21922965 555.44183404 244.27383041 556.46875954 C245.94567148 558.09760415 247.60745795 559.73611635 249.26687622 561.37760925 C253.98636984 566.0421112 258.72532846 570.68669869 263.46630859 575.3293457 C266.36771847 578.17192061 269.25917196 581.02433371 272.14520645 583.88251305 C273.77659916 585.49182312 275.41926457 587.08900014 277.06246948 588.68623352 C278.07075545 589.68317459 279.07844656 590.68071776 280.08544922 591.67895508 C280.96401581 592.53959061 281.8425824 593.40022614 282.74777222 594.28694153 C286.09808109 598.32276061 287.7677918 602.17550697 288.4375 607.4375 C287.52322941 614.88227482 282.84740165 621.02050846 278.5625 627 C278.04389404 627.72912598 277.52528809 628.45825195 276.9909668 629.20947266 C271.77765058 636.45335331 266.17920202 643.35898875 260.47363281 650.21777344 C259.12024266 651.8545773 257.78599715 653.50429553 256.4609375 655.1640625 C252.50461154 660.09927324 248.43751453 664.70094934 243.8984375 669.10546875 C241.9999406 671.00005928 240.2464372 672.96512408 238.5 675 C233.14430537 681.20580489 227.32535407 686.83138207 221.109375 692.16796875 C218.82370454 694.15311587 216.60298622 696.2003983 214.375 698.25 C208.17377426 703.83677502 201.61821727 708.92256779 195 714 C194.36787598 714.48903809 193.73575195 714.97807617 193.08447266 715.48193359 C185.51706237 721.32748662 177.82909351 726.90836111 169.8125 732.125 C169.10569092 732.58648438 168.39888184 733.04796875 167.6706543 733.5234375 C161.7098384 737.33881936 156.32892305 740.23253136 149 739 C144.29405086 736.97371823 141.14345834 734.51036169 137.54541016 730.88598633 C137.03734833 730.37836258 136.5292865 729.87073883 136.00582886 729.34773254 C134.34302109 727.68284949 132.69106942 726.00762617 131.0390625 724.33203125 C129.88244283 723.16981115 128.72515515 722.00825549 127.56723022 720.84733582 C124.53238712 717.80107919 121.50666459 714.74591948 118.48278809 711.68878174 C115.39114568 708.56636308 112.29091409 705.45249822 109.19140625 702.33789062 C103.11919164 696.23357352 97.0565909 690.11981879 91 684 C87.1023468 685.28250731 83.31979294 686.65399169 79.55078125 688.27734375 C78.53693359 688.70853516 77.52308594 689.13972656 76.47851562 689.58398438 C74.38576026 690.47866634 72.29457971 691.37704195 70.20507812 692.27929688 C68.67463867 692.92801758 68.67463867 692.92801758 67.11328125 693.58984375 C66.20360596 693.98034912 65.29393066 694.37085449 64.35668945 694.77319336 C59.65347221 696.49213049 54.84261713 697.73700326 50 699 C50.00888245 699.93658951 50.01776489 700.87317902 50.0269165 701.83815002 C50.10813129 710.68030352 50.16802712 719.52238098 50.20724869 728.36482334 C50.22809112 732.91044772 50.25634729 737.4557701 50.30175781 742.0012207 C50.34533541 746.39085277 50.36916225 750.78019503 50.37950897 755.17002678 C50.38687903 756.84173072 50.40127112 758.51341946 50.42292023 760.18499947 C50.45211368 762.53326362 50.45594952 764.88034228 50.45410156 767.22875977 C50.46848267 767.91424896 50.48286377 768.59973816 50.49768066 769.30599976 C50.45213515 774.6824981 48.94117267 777.65760432 46 782 C41.34438199 785.9876084 36.53873229 787.19209613 30.6875 788.4375 C29.75760254 788.64213867 28.82770508 788.84677734 27.86962891 789.05761719 C18.92531229 790.94683629 9.90999607 792.37621418 0.875 793.75 C0.17539154 793.85682098 -0.52421692 793.96364197 -1.24502563 794.07369995 C-32.8915394 798.86122685 -66.37533484 799.13448358 -98 794 C-98.66404846 793.89347107 -99.32809692 793.78694214 -100.01226807 793.67718506 C-105.18187092 792.8448753 -110.34267676 791.9676304 -115.5 791.0625 C-116.19846039 790.94138855 -116.89692078 790.8202771 -117.61654663 790.69549561 C-140.06325442 786.75091926 -140.06325442 786.75091926 -145.125 780.9375 C-147.99764155 776.43702824 -148.14008574 772.85320217 -148.11352539 767.68286133 C-148.11367142 766.94115189 -148.11381744 766.19944244 -148.1139679 765.43525696 C-148.11327134 762.98415195 -148.10549097 760.53312298 -148.09765625 758.08203125 C-148.09579116 756.38238059 -148.09436768 754.68272939 -148.09336853 752.983078 C-148.08955055 748.50980139 -148.07972638 744.03655724 -148.06866455 739.56329346 C-148.05843499 734.99858031 -148.0538676 730.43386193 -148.04882812 725.86914062 C-148.03810349 716.91274615 -148.02103567 707.95637578 -148 699 C-148.72558609 698.80976761 -149.45117218 698.61953522 -150.19874573 698.42353821 C-155.21269813 697.08694517 -160.10775613 695.73881455 -164.90234375 693.73046875 C-165.88944336 693.31901611 -166.87654297 692.90756348 -167.89355469 692.48364258 C-168.89805664 692.05591553 -169.90255859 691.62818848 -170.9375 691.1875 C-171.98711914 690.74752686 -173.03673828 690.30755371 -174.11816406 689.85424805 C-180.52886605 687.14030455 -186.75620546 684.27643602 -192.828125 680.86328125 C-195.53355575 679.78792118 -196.3022461 679.95080506 -199 681 C-201.44470038 683.03567405 -201.44470038 683.03567405 -203.93286133 685.65576172 C-204.40987991 686.1387674 -204.8868985 686.62177307 -205.37837219 687.11941528 C-206.41182827 688.16761722 -207.44183404 689.21922965 -208.46875954 690.27383041 C-210.09760415 691.94567148 -211.73611635 693.60745795 -213.37760925 695.26687622 C-218.0421112 699.98636984 -222.68669869 704.72532846 -227.3293457 709.46630859 C-230.17192061 712.36771847 -233.02433371 715.25917196 -235.88251305 718.14520645 C-237.49182312 719.77659916 -239.08900014 721.41926457 -240.68623352 723.06246948 C-241.68317459 724.07075545 -242.68071776 725.07844656 -243.67895508 726.08544922 C-244.53959061 726.96401581 -245.40022614 727.8425824 -246.28694153 728.74777222 C-250.32276061 732.09808109 -254.17550697 733.7677918 -259.4375 734.4375 C-266.88227482 733.52322941 -273.02050846 728.84740165 -279 724.5625 C-279.72912598 724.04389404 -280.45825195 723.52528809 -281.20947266 722.9909668 C-288.45335331 717.77765058 -295.35898875 712.17920202 -302.21777344 706.47363281 C-303.8545773 705.12024266 -305.50429553 703.78599715 -307.1640625 702.4609375 C-312.09927324 698.50461154 -316.70094934 694.43751453 -321.10546875 689.8984375 C-323.00005928 687.9999406 -324.96512408 686.2464372 -327 684.5 C-333.20580489 679.14430537 -338.83138207 673.32535407 -344.16796875 667.109375 C-346.15311587 664.82370454 -348.2003983 662.60298622 -350.25 660.375 C-355.83677502 654.17377426 -360.92256779 647.61821727 -366 641 C-366.48903809 640.36787598 -366.97807617 639.73575195 -367.48193359 639.08447266 C-373.32748662 631.51706237 -378.90836111 623.82909351 -384.125 615.8125 C-384.58648437 615.10569092 -385.04796875 614.39888184 -385.5234375 613.6706543 C-389.33881936 607.7098384 -392.23253136 602.32892305 -391 595 C-388.97371823 590.29405086 -386.51036169 587.14345834 -382.88598633 583.54541016 C-382.37836258 583.03734833 -381.87073883 582.5292865 -381.34773254 582.00582886 C-379.68284949 580.34302109 -378.00762617 578.69106942 -376.33203125 577.0390625 C-375.16981115 575.88244283 -374.00825549 574.72515515 -372.84733582 573.56723022 C-369.80107919 570.53238712 -366.74591948 567.50666459 -363.68878174 564.48278809 C-360.56636308 561.39114568 -357.45249822 558.29091409 -354.33789062 555.19140625 C-348.23357352 549.11919164 -342.11981879 543.0565909 -336 537 C-337.28250731 533.1023468 -338.65399169 529.31979294 -340.27734375 525.55078125 C-340.70853516 524.53693359 -341.13972656 523.52308594 -341.58398438 522.47851562 C-342.47866634 520.38576026 -343.37704195 518.29457971 -344.27929688 516.20507812 C-344.92801758 514.67463867 -344.92801758 514.67463867 -345.58984375 513.11328125 C-345.98034912 512.20360596 -346.37085449 511.29393066 -346.77319336 510.35668945 C-348.49213049 505.65347221 -349.73700326 500.84261713 -351 496 C-351.93658951 496.00888245 -352.87317902 496.01776489 -353.83815002 496.0269165 C-362.68030352 496.10813129 -371.52238098 496.16802712 -380.36482334 496.20724869 C-384.91044772 496.22809112 -389.4557701 496.25634729 -394.0012207 496.30175781 C-398.39085277 496.34533541 -402.78019503 496.36916225 -407.17002678 496.37950897 C-408.84173072 496.38687903 -410.51341946 496.40127112 -412.18499947 496.42292023 C-414.53326362 496.45211368 -416.88034228 496.45594952 -419.22875977 496.45410156 C-419.91424896 496.46848267 -420.59973816 496.48286377 -421.30599976 496.49768066 C-426.6824981 496.45213515 -429.65760432 494.94117267 -434 492 C-437.9876084 487.34438199 -439.19209613 482.53873229 -440.4375 476.6875 C-440.64213867 475.75760254 -440.84677734 474.82770508 -441.05761719 473.86962891 C-442.94683629 464.92531229 -444.37621418 455.90999607 -445.75 446.875 C-445.85682098 446.17539154 -445.96364197 445.47578308 -446.07369995 444.75497437 C-450.85927542 413.12135999 -451.15926556 379.61052601 -446 348 C-445.83667175 346.9968576 -445.83667175 346.9968576 -445.67004395 345.97344971 C-444.81714051 340.76731416 -443.92312317 335.56912645 -443 330.375 C-442.87461853 329.66799957 -442.74923706 328.96099915 -442.62005615 328.23257446 C-438.72843261 306.56476311 -438.72843261 306.56476311 -433 301 C-428.40472268 298.214033 -424.6119344 297.57694116 -419.34228516 297.65942383 C-418.22906387 297.65876671 -418.22906387 297.65876671 -417.09335327 297.65809631 C-414.65831514 297.66017404 -412.22397925 297.68345611 -409.7890625 297.70703125 C-408.09370296 297.71263084 -406.39833855 297.71689922 -404.70297241 297.71989441 C-400.25427705 297.73131465 -395.80587843 297.76075733 -391.3572998 297.79400635 C-386.81245944 297.82476823 -382.26757085 297.83841279 -377.72265625 297.85351562 C-368.81497424 297.88562992 -359.90751186 297.93679193 -351 298 C-350.80976761 297.27441391 -350.61953522 296.54882782 -350.42353821 295.80125427 C-349.08694517 290.78730187 -347.73881455 285.89224387 -345.73046875 281.09765625 C-345.31901611 280.11055664 -344.90756348 279.12345703 -344.48364258 278.10644531 C-344.05591553 277.10194336 -343.62818848 276.09744141 -343.1875 275.0625 C-342.52754028 273.48807129 -342.52754028 273.48807129 -341.85424805 271.88183594 C-339.14030455 265.47113395 -336.27643602 259.24379454 -332.86328125 253.171875 C-331.78792118 250.46644425 -331.95080506 249.6977539 -333 247 C-335.03567405 244.55529962 -335.03567405 244.55529962 -337.65576172 242.06713867 C-338.1387674 241.59012009 -338.62177307 241.1131015 -339.11941528 240.62162781 C-340.16761722 239.58817173 -341.21922965 238.55816596 -342.27383041 237.53124046 C-343.94567148 235.90239585 -345.60745795 234.26388365 -347.26687622 232.62239075 C-351.98636984 227.9578888 -356.72532846 223.31330131 -361.46630859 218.6706543 C-364.36771847 215.82807939 -367.25917196 212.97566629 -370.14520645 210.11748695 C-371.77659916 208.50817688 -373.41926457 206.91099986 -375.06246948 205.31376648 C-376.07075545 204.31682541 -377.07844656 203.31928224 -378.08544922 202.32104492 C-378.96401581 201.46040939 -379.8425824 200.59977386 -380.74777222 199.71305847 C-384.09808109 195.67723939 -385.7677918 191.82449303 -386.4375 186.5625 C-385.5146466 179.04783662 -380.77250283 172.89657997 -376.4375 166.875 C-375.9108374 166.13781738 -375.3841748 165.40063477 -374.84155273 164.64111328 C-354.4383122 136.28613819 -330.47410976 109.64743761 -303 88 C-301.86311575 87.07341234 -300.72779757 86.14490106 -299.59375 85.21484375 C-262.85877443 55.21591914 -262.85877443 55.21591914 -249.23046875 54.671875 C-243.43735619 55.52410172 -239.53591485 59.09431017 -235.54541016 63.11401367 C-234.78331741 63.8754493 -234.78331741 63.8754493 -234.00582886 64.65226746 C-232.34302109 66.31715051 -230.69106942 67.99237383 -229.0390625 69.66796875 C-227.88244283 70.83018885 -226.72515515 71.99174451 -225.56723022 73.15266418 C-222.53238712 76.19892081 -219.50666459 79.25408052 -216.48278809 82.31121826 C-213.39114568 85.43363692 -210.29091409 88.54750178 -207.19140625 91.66210938 C-201.11919164 97.76642648 -195.0565909 103.88018121 -189 110 C-185.1023468 108.71749269 -181.31979294 107.34600831 -177.55078125 105.72265625 C-176.53693359 105.29146484 -175.52308594 104.86027344 -174.47851562 104.41601562 C-172.38576026 103.52133366 -170.29457971 102.62295805 -168.20507812 101.72070312 C-167.18478516 101.28822266 -166.16449219 100.85574219 -165.11328125 100.41015625 C-163.74876831 99.82439819 -163.74876831 99.82439819 -162.35668945 99.22680664 C-157.65347221 97.50786951 -152.84261713 96.26299674 -148 95 C-148.00888245 94.06341049 -148.01776489 93.12682098 -148.0269165 92.16184998 C-148.10813129 83.31969648 -148.16802712 74.47761902 -148.20724869 65.63517666 C-148.22809112 61.08955228 -148.25634729 56.5442299 -148.30175781 51.9987793 C-148.34533541 47.60914723 -148.36916225 43.21980497 -148.37950897 38.82997322 C-148.38687903 37.15826928 -148.40127112 35.48658054 -148.42292023 33.81500053 C-148.45211368 31.46673638 -148.45594952 29.11965772 -148.45410156 26.77124023 C-148.46848267 26.08575104 -148.48286377 25.40026184 -148.49768066 24.69400024 C-148.45213515 19.3175019 -146.94117267 16.34239568 -144 12 C-139.34438199 8.0123916 -134.53873229 6.80790387 -128.6875 5.5625 C-127.75760254 5.35786133 -126.82770508 5.15322266 -125.86962891 4.94238281 C-116.92531229 3.05316371 -107.90999607 1.62378582 -98.875 0.25 C-98.17539154 0.14317902 -97.47578308 0.03635803 -96.75497437 -0.07369995 C-65.1084606 -4.86122685 -31.62466516 -5.13448358 0 0 Z M-103 35 C-104.0523584 35.17950195 -105.1047168 35.35900391 -106.18896484 35.54394531 C-107.19266113 35.71764648 -108.19635742 35.89134766 -109.23046875 36.0703125 C-110.12531982 36.22516113 -111.0201709 36.38000977 -111.94213867 36.53955078 C-113.98149675 36.8029481 -113.98149675 36.8029481 -115 38 C-115.10837445 40.26844769 -115.14631727 42.5402729 -115.15771484 44.8112793 C-115.16279556 45.52355179 -115.16787628 46.23582428 -115.17311096 46.96968079 C-115.18383819 48.52205347 -115.19244908 50.07444184 -115.19923019 51.62683678 C-115.2109939 54.08600883 -115.23044225 56.54500324 -115.25234985 59.00410461 C-115.31403501 65.99803728 -115.367938 72.99195484 -115.40136719 79.98608398 C-115.42234903 84.26029181 -115.45768704 88.53418109 -115.50212479 92.80820656 C-115.51626476 94.435995 -115.5250027 96.06383987 -115.52817917 97.69168663 C-115.53310482 99.97537742 -115.55630621 102.25822871 -115.58349609 104.54174805 C-115.59562637 106.48914131 -115.59562637 106.48914131 -115.60800171 108.47587585 C-116.16468639 113.48055564 -117.71996251 116.76971804 -121.34277344 120.25170898 C-124.07024707 122.04621823 -126.39820873 123.02973077 -129.515625 123.97265625 C-130.59013916 124.30942383 -131.66465332 124.64619141 -132.77172852 124.99316406 C-133.91955811 125.34604492 -135.0673877 125.69892578 -136.25 126.0625 C-152.66463146 131.31037485 -168.51824218 137.88061369 -183.70800781 146.04199219 C-188.86588122 148.19788218 -193.85440623 147.67663082 -199.06958008 146.03198242 C-204.50866148 143.63558717 -208.30862734 139.20268915 -212.40625 135.01953125 C-213.28978149 134.13271164 -214.17331299 133.24589203 -215.08361816 132.3321991 C-216.9474769 130.4579378 -218.80721813 128.58053018 -220.66064453 126.69604492 C-223.47988143 123.82960435 -226.31544389 120.97982382 -229.15234375 118.13085938 C-230.96691921 116.3028507 -232.78074598 114.47409847 -234.59375 112.64453125 C-235.43248657 111.79840775 -236.27122314 110.95228424 -237.13537598 110.08052063 C-241.43990252 105.7067354 -245.55857936 101.2906793 -249.40881348 96.5085907 C-251.28610218 94.7287489 -252.43313951 94.23521654 -255 94 C-257.27055095 95.28255446 -259.189399 96.55808466 -261.25 98.125 C-261.8584375 98.57439941 -262.466875 99.02379883 -263.09375 99.48681641 C-269.92230176 104.58567658 -276.53592999 109.95764966 -283.08447266 115.40917969 C-284.84319768 116.86977773 -286.61356638 118.31480446 -288.38671875 119.7578125 C-304.98558214 133.44653339 -319.94522553 149.19724153 -333.5 165.875 C-334.06098389 166.56464844 -334.62196777 167.25429687 -335.19995117 167.96484375 C-339.38561582 173.15073018 -343.32308912 178.43783664 -347 184 C-341.98401137 190.07595943 -336.5070413 195.57384689 -330.89453125 201.09765625 C-329.9233593 202.05932111 -328.95263885 203.02144212 -327.98234558 203.98399353 C-323.89299688 208.04002315 -319.79936244 212.09165146 -315.69555664 216.13305664 C-313.17287675 218.61797013 -310.65766887 221.11024317 -308.1470089 223.6072979 C-306.73494945 225.00747301 -305.31479064 226.39946488 -303.89448547 227.79127502 C-303.03316513 228.64914108 -302.17184479 229.50700714 -301.28442383 230.39086914 C-300.52752762 231.13808731 -299.77063141 231.88530548 -298.99079895 232.65516663 C-295.31891812 236.98003766 -293.18692584 241.45025015 -293.3984375 247.21875 C-294.68070692 253.14716445 -297.98549428 258.45382651 -300.82373047 263.76708984 C-308.80722508 278.92214209 -315.56223508 294.78066323 -320.62109375 311.15234375 C-320.87673096 311.96952881 -321.13236816 312.78671387 -321.39575195 313.62866211 C-321.86550856 315.15619674 -322.31734754 316.68941528 -322.74682617 318.22875977 C-324.36105457 323.51760407 -326.42407208 325.86222085 -331 329 C-334.53753872 330.17917957 -337.39888168 330.16093747 -341.13354492 330.20532227 C-341.85574722 330.21522186 -342.57794952 330.22512146 -343.32203674 330.23532104 C-345.70814745 330.26689759 -348.09427806 330.29167822 -350.48046875 330.31640625 C-352.13528459 330.3369791 -353.79009521 330.35797566 -355.44490051 330.37937927 C-359.79975153 330.43456575 -364.15464971 330.48399013 -368.50958252 330.53222656 C-372.95369665 330.58246658 -377.39774232 330.63813959 -381.84179688 330.69335938 C-390.56114003 330.80089908 -399.28054047 330.90235335 -408 331 C-409.36426987 334.98894566 -410.40276717 338.75101381 -411.03515625 342.921875 C-411.20466797 344.03046875 -411.37417969 345.1390625 -411.54882812 346.28125 C-411.71833984 347.4259375 -411.88785156 348.570625 -412.0625 349.75 C-412.23587891 350.87921875 -412.40925781 352.0084375 -412.58789062 353.171875 C-414.11389874 363.27510115 -415.15274708 373.20056975 -415.23828125 383.421875 C-415.24789383 384.3927858 -415.25750641 385.36369659 -415.26741028 386.36402893 C-415.29202087 389.49272213 -415.30466152 392.62122137 -415.3125 395.75 C-415.31578308 396.81681 -415.31906616 397.88362 -415.32244873 398.98275757 C-415.34003997 416.66908577 -414.17246389 433.58612035 -411 451 C-410.82049805 452.0523584 -410.64099609 453.1047168 -410.45605469 454.18896484 C-410.28235352 455.19266113 -410.10865234 456.19635742 -409.9296875 457.23046875 C-409.77483887 458.12531982 -409.61999023 459.0201709 -409.46044922 459.94213867 C-409.1970519 461.98149675 -409.1970519 461.98149675 -408 463 C-405.73155231 463.10837445 -403.4597271 463.14631727 -401.1887207 463.15771484 C-400.47644821 463.16279556 -399.76417572 463.16787628 -399.03031921 463.17311096 C-397.47794653 463.18383819 -395.92555816 463.19244908 -394.37316322 463.19923019 C-391.91399117 463.2109939 -389.45499676 463.23044225 -386.99589539 463.25234985 C-380.00196272 463.31403501 -373.00804516 463.367938 -366.01391602 463.40136719 C-361.73970819 463.42234903 -357.46581891 463.45768704 -353.19179344 463.50212479 C-351.564005 463.51626476 -349.93616013 463.5250027 -348.30831337 463.52817917 C-346.02462258 463.53310482 -343.74177129 463.55630621 -341.45825195 463.58349609 C-340.15998978 463.59158295 -338.8617276 463.5996698 -337.52412415 463.60800171 C-332.61818698 464.15370297 -329.31102327 465.71682147 -325.79296875 469.16015625 C-323.50497843 472.78405378 -322.46089612 476.33457074 -321.3125 480.4375 C-319.13600692 487.71912882 -316.63989966 494.78304828 -313.75 501.8125 C-313.37665527 502.72080566 -313.00331055 503.62911133 -312.61865234 504.56494141 C-310.58846722 509.42151288 -308.45292466 514.21170169 -306.19921875 518.96875 C-305.73870117 519.94739014 -305.27818359 520.92603027 -304.80371094 521.93432617 C-303.91850477 523.79917527 -303.01771537 525.65673864 -302.09863281 527.50512695 C-298.80281917 534.42384473 -297.72095223 539.75407198 -299.95410156 547.16723633 C-302.41992906 552.61725977 -306.99046586 556.500162 -311.19921875 560.625 C-312.10823441 561.53072754 -313.01725006 562.43645508 -313.95381165 563.36962891 C-315.87364221 565.28184755 -317.79970993 567.18745182 -319.73120117 569.08789062 C-322.18599072 571.50324865 -324.63002311 573.92911888 -327.07002544 576.35940552 C-329.42212472 578.70144084 -331.7792567 581.03836182 -334.13671875 583.375 C-335.43871468 584.66591553 -335.43871468 584.66591553 -336.76701355 585.98291016 C-341.69811878 590.83781372 -346.72718969 595.51768408 -352 600 C-349.5266131 611.35097118 -337.8991644 622.32528508 -330.60693359 631.06835938 C-329.13882086 632.83312813 -327.68719326 634.61009766 -326.23828125 636.390625 C-312.55278722 652.98923389 -296.8009121 667.94672616 -280.125 681.5 C-279.43535156 682.06098389 -278.74570312 682.62196777 -278.03515625 683.19995117 C-272.84926982 687.38561582 -267.56216336 691.32308912 -262 695 C-256.01854987 690.05629299 -250.59560011 684.67760753 -245.15625 679.1484375 C-243.73832474 677.71747792 -242.32039027 676.28652732 -240.90192413 674.8561039 C-237.4338559 671.35770436 -233.97084572 667.85435869 -230.51513672 664.34375 C-228.56614354 662.36428109 -226.61313511 660.38893855 -224.65563965 658.4178772 C-222.82070827 656.56986192 -220.99171596 654.71592506 -219.16955566 652.85531616 C-208.71424917 642.35690045 -208.71424917 642.35690045 -201.0625 641.25 C-194.22409779 641.58442439 -188.16546942 645.65674344 -182.25488281 648.81494141 C-168.32932915 656.13354659 -154.0157286 662.08151685 -139.06640625 666.93359375 C-138.03290039 667.27575928 -136.99939453 667.6179248 -135.93457031 667.97045898 C-133.89665957 668.64248507 -131.85312672 669.29776069 -129.80371094 669.93383789 C-123.77424903 671.92728349 -120.51313907 673.64664522 -117 679 C-115.53461827 681.93076346 -115.82133424 684.89701357 -115.79467773 688.11181641 C-115.78477814 688.84362625 -115.77487854 689.5754361 -115.76467896 690.329422 C-115.73303801 692.75343568 -115.70829634 695.17746898 -115.68359375 697.6015625 C-115.66302646 699.28022782 -115.64203005 700.95888793 -115.62062073 702.63754272 C-115.56537682 707.05981231 -115.51597779 711.48212881 -115.46777344 715.90447998 C-115.41757533 720.41552922 -115.36188045 724.92651018 -115.30664062 729.4375 C-115.1990307 738.29160836 -115.09759203 747.14577596 -115 756 C-111.01105434 757.36426987 -107.24898619 758.40276717 -103.078125 759.03515625 C-101.96953125 759.20466797 -100.8609375 759.37417969 -99.71875 759.54882812 C-98.5740625 759.71833984 -97.429375 759.88785156 -96.25 760.0625 C-95.12078125 760.23587891 -93.9915625 760.40925781 -92.828125 760.58789062 C-82.72489885 762.11389874 -72.79943025 763.15274708 -62.578125 763.23828125 C-61.6072142 763.24789383 -60.63630341 763.25750641 -59.63597107 763.26741028 C-56.50727787 763.29202087 -53.37877863 763.30466152 -50.25 763.3125 C-49.18319 763.31578308 -48.11638 763.31906616 -47.01724243 763.32244873 C-29.33091423 763.34003997 -12.41387965 762.17246389 5 759 C6.0523584 758.82049805 7.1047168 758.64099609 8.18896484 758.45605469 C9.69450928 758.19550293 9.69450928 758.19550293 11.23046875 757.9296875 C12.12531982 757.77483887 13.0201709 757.61999023 13.94213867 757.46044922 C15.98149675 757.1970519 15.98149675 757.1970519 17 756 C17.10313347 753.70080081 17.13574228 751.39842685 17.1418457 749.09692383 C17.14532013 748.37489777 17.14879456 747.6528717 17.15237427 746.90896606 C17.15974481 745.3353077 17.16508325 743.76163885 17.16866493 742.1879673 C17.17581522 739.69518684 17.19147244 737.20260499 17.21000671 734.70988464 C17.26253219 727.62033885 17.3104254 720.53089812 17.32592773 713.44116211 C17.33602396 709.10853689 17.3653951 704.7764054 17.40724754 700.44397545 C17.41954488 698.79385811 17.42468111 697.14367095 17.42244911 695.49350929 C17.42008932 693.17848961 17.44231334 690.86487786 17.4699707 688.55004883 C17.47583694 687.23402176 17.48170319 685.91799469 17.48774719 684.56208801 C18.08761813 680.39072372 19.36347428 678.25191446 22 675 C27.50932581 671.13786448 33.49191624 669.40925154 39.875 667.4375 C55.71030786 662.36012782 71.06336065 655.8344675 85.71459961 647.95581055 C90.86222304 645.80294806 95.84706596 646.32764887 101.0559082 647.9543457 C106.58422951 650.39046076 110.46036869 654.949863 114.625 659.19921875 C115.53072754 660.10823441 116.43645508 661.01725006 117.36962891 661.95381165 C119.28184755 663.87364221 121.18745182 665.79970993 123.08789062 667.73120117 C125.50324865 670.18599072 127.92911888 672.63002311 130.35940552 675.07002544 C132.70144084 677.42212472 135.03836182 679.7792567 137.375 682.13671875 C138.23561035 683.00471603 139.0962207 683.87271332 139.98291016 684.76701355 C144.83781372 689.69811878 149.51768408 694.72718969 154 700 C157.49158191 699.36576025 159.77165627 698.763636 162.6015625 696.59375 C163.2507666 696.10197266 163.8999707 695.61019531 164.56884766 695.10351562 C165.24737793 694.57435547 165.9259082 694.04519531 166.625 693.5 C167.33575684 692.95537109 168.04651367 692.41074219 168.77880859 691.84960938 C174.61952737 687.35248051 180.35375748 682.73895535 186 678 C186.97066406 677.21496094 187.94132813 676.42992187 188.94140625 675.62109375 C197.18335296 668.86292572 204.76490161 661.45018452 212.3125 653.9375 C212.82428802 653.43088837 213.33607605 652.92427673 213.8633728 652.40231323 C220.71530488 645.60505704 226.9863532 638.56392653 233 631 C233.94598375 629.86749271 234.89677198 628.73895331 235.85546875 627.6171875 C240.65907161 621.96872987 245.04659922 616.27164863 249 610 C244.03386655 603.99961595 238.64385408 598.53037108 233.11328125 593.05078125 C232.16467821 592.10659382 231.21637529 591.16210479 230.26835632 590.21733093 C227.28589863 587.24620433 224.29949335 584.27906576 221.3125 581.3125 C217.83742983 577.86110387 214.3640368 574.40805303 210.89482689 570.95076561 C209.51261219 569.57499869 208.12734208 568.20230369 206.74201965 566.82966614 C205.90072006 565.99166977 205.05942047 565.1536734 204.19262695 564.2902832 C203.45349564 563.5563887 202.71436432 562.8224942 201.95283508 562.06636047 C197.05082 556.87937347 195.5070662 552.66814178 195.60253906 545.57421875 C196.40609879 540.36983684 199.3012264 536.01927513 201.875 531.5 C211.03596533 514.65943822 218.12561985 497.10207845 223.58154297 478.72167969 C225.37602231 472.93311196 227.47747138 468.35907654 232.70074463 464.86099243 C235.89520778 463.66477533 238.97293667 463.69173726 242.33886719 463.68115234 C243.07096909 463.67110672 243.80307098 463.6610611 244.55735779 463.65071106 C246.97052241 463.6198887 249.38357613 463.60284676 251.796875 463.5859375 C253.47268629 463.56722507 255.14848818 463.5476516 256.82427979 463.5272522 C261.23006642 463.47593285 265.6358836 463.4363061 270.04180908 463.39910889 C274.53966833 463.359068 279.03740052 463.30797604 283.53515625 463.2578125 C292.35668158 463.16105557 301.17827865 463.07665003 310 463 C311.36426987 459.01105434 312.40276717 455.24898619 313.03515625 451.078125 C313.20466797 449.96953125 313.37417969 448.8609375 313.54882812 447.71875 C313.71833984 446.5740625 313.88785156 445.429375 314.0625 444.25 C314.23587891 443.12078125 314.40925781 441.9915625 314.58789062 440.828125 C316.11389874 430.72489885 317.15274708 420.79943025 317.23828125 410.578125 C317.24789383 409.6072142 317.25750641 408.63630341 317.26741028 407.63597107 C317.29202087 404.50727787 317.30466152 401.37877863 317.3125 398.25 C317.31578308 397.18319 317.31906616 396.11638 317.32244873 395.01724243 C317.34003997 377.33091423 316.17246389 360.41387965 313 343 C312.82049805 341.9476416 312.64099609 340.8952832 312.45605469 339.81103516 C312.19550293 338.30549072 312.19550293 338.30549072 311.9296875 336.76953125 C311.77483887 335.87468018 311.61999023 334.9798291 311.46044922 334.05786133 C311.1970519 332.01850325 311.1970519 332.01850325 310 331 C307.70080081 330.89686653 305.39842685 330.86425772 303.09692383 330.8581543 C302.37489777 330.85467987 301.6528717 330.85120544 300.90896606 330.84762573 C299.3353077 330.84025519 297.76163885 330.83491675 296.1879673 330.83133507 C293.69518684 330.82418478 291.20260499 330.80852756 288.70988464 330.78999329 C281.62033885 330.73746781 274.53089812 330.6895746 267.44116211 330.67407227 C263.10853689 330.66397604 258.7764054 330.6346049 254.44397545 330.59275246 C252.79385811 330.58045512 251.14367095 330.57531889 249.49350929 330.57755089 C247.17848961 330.57991068 244.86487786 330.55768666 242.55004883 330.5300293 C241.23402176 330.52416306 239.91799469 330.51829681 238.56208801 330.51225281 C234.39072372 329.91238187 232.25191446 328.63652572 229 326 C225.13766279 320.49038648 223.41019006 314.50802798 221.4375 308.125 C215.61133773 290.02322981 207.85716688 272.77700539 198.6796875 256.1328125 C196.75918277 252.55084787 195.8210291 249.76992875 195.6875 245.75 C195.63142578 244.65945312 195.63142578 244.65945312 195.57421875 243.546875 C197.06012789 234.65868457 205.00388417 228.61139956 211.109375 222.59765625 C212.20290644 221.50972807 213.29577148 220.42112968 214.38800049 219.33189392 C217.24846365 216.48282203 220.11782336 213.64287982 222.98919678 210.80480957 C225.92405722 207.90077386 228.85032187 204.98810427 231.77734375 202.07617188 C237.50989985 196.37567892 243.25189328 190.68481191 249 185 C245.8629139 179.37099567 245.8629139 179.37099567 242.08203125 174.16796875 C241.55432129 173.51957031 241.02661133 172.87117187 240.48291016 172.203125 C239.9316748 171.53796875 239.38043945 170.8728125 238.8125 170.1875 C238.23806152 169.48753906 237.66362305 168.78757813 237.07177734 168.06640625 C233.22669027 163.40803867 229.28950514 158.84853189 225.1953125 154.40625 C223.35598867 152.39019399 221.57042429 150.34412133 219.7890625 148.27734375 C215.78590433 143.69330587 211.5546531 139.36257125 207.25 135.0625 C206.45505127 134.26835693 205.66010254 133.47421387 204.84106445 132.65600586 C199.95773861 127.82335651 195.03246647 123.2814875 189.61328125 119.0546875 C187.16817224 117.13222511 184.82033839 115.12387424 182.47753906 113.07885742 C176.83843403 108.18287028 170.98734166 103.62822586 164.9375 99.25 C163.84767822 98.44308716 163.84767822 98.44308716 162.73583984 97.61987305 C162.04828613 97.13172119 161.36073242 96.64356934 160.65234375 96.140625 C160.04382568 95.70266602 159.43530762 95.26470703 158.80834961 94.81347656 C156.41577307 93.73718859 155.44593552 94.13313844 153 95 C151.38598402 96.28802995 151.38598402 96.28802995 149.94555664 97.96923828 C149.08576454 98.90894974 149.08576454 98.90894974 148.20860291 99.86764526 C147.59449051 100.55327545 146.98037811 101.23890564 146.34765625 101.9453125 C145.00077149 103.41483957 143.65189758 104.88254542 142.30126953 106.34863281 C141.59705872 107.11469849 140.8928479 107.88076416 140.16729736 108.67004395 C134.47564343 114.78886444 128.56421982 120.69915048 122.67163086 126.62353516 C121.16167738 128.14520393 119.65624999 129.67137529 118.1550293 131.20166016 C115.94503423 133.45412319 113.72226041 135.69321985 111.49609375 137.9296875 C110.83040878 138.61288055 110.16472382 139.29607361 109.47886658 139.99996948 C104.62283582 144.83351557 100.92214209 146.58255113 94.0625 147.5625 C88.28192601 147.40033868 83.59570637 144.70059065 78.515625 142.1875 C73.32435614 139.63165438 68.0223777 137.36265355 62.6875 135.125 C61.68283691 134.70202637 60.67817383 134.27905273 59.64306641 133.84326172 C50.74068075 130.16609851 41.66999076 127.05394821 32.46557617 124.21923828 C26.21417078 122.19209771 22.53047601 120.65480954 19 115 C17.82082043 111.46246128 17.83906253 108.60111832 17.79467773 104.86645508 C17.78477814 104.14425278 17.77487854 103.42205048 17.76467896 102.67796326 C17.73310241 100.29185255 17.70832178 97.90572194 17.68359375 95.51953125 C17.6630209 93.86471541 17.64202434 92.20990479 17.62062073 90.55509949 C17.56543425 86.20024847 17.51600987 81.84535029 17.46777344 77.49041748 C17.41753342 73.04630335 17.36186041 68.60225768 17.30664062 64.15820312 C17.19910092 55.43885997 17.09764665 46.71945953 17 38 C13.01105434 36.63573013 9.24898619 35.59723283 5.078125 34.96484375 C3.96953125 34.79533203 2.8609375 34.62582031 1.71875 34.45117188 C0.5740625 34.28166016 -0.570625 34.11214844 -1.75 33.9375 C-2.87921875 33.76412109 -4.0084375 33.59074219 -5.171875 33.41210938 C-15.27510115 31.88610126 -25.20056975 30.84725292 -35.421875 30.76171875 C-36.3927858 30.75210617 -37.36369659 30.74249359 -38.36402893 30.73258972 C-41.49272213 30.70797913 -44.62122137 30.69533848 -47.75 30.6875 C-48.81681 30.68421692 -49.88362 30.68093384 -50.98275757 30.67755127 C-68.66908577 30.65996003 -85.58612035 31.82753611 -103 35 Z " fill="#747474" transform="translate(449,3)"/>
<path d="M0 0 C0.65613281 0.00281982 1.31226563 0.00563965 1.98828125 0.00854492 C40.25923369 0.25470517 72.09288011 16.16496231 98.9375 42.9296875 C124.60476021 69.96052091 134.27771286 104.6254549 133.5859375 141.15625 C132.4266724 177.90782775 114.28511625 209.53768635 88.0625 234.4375 C59.12044954 260.01800919 23.1241286 268.50808074 -14.6875 266.3125 C-49.64186585 263.00555905 -80.32952912 244.23714333 -103.25 218.3046875 C-127.29015435 188.79385699 -135.68885032 153.18625436 -132.46044922 115.67431641 C-131.89912339 111.11540027 -130.89509627 106.73874928 -129.6875 102.3125 C-129.50525879 101.61382812 -129.32301758 100.91515625 -129.13525391 100.1953125 C-120.08977046 65.73632795 -98.08379834 36.50143225 -67.5546875 18.16918945 C-57.49366737 12.32037462 -47.1318765 7.87497626 -36 4.5 C-35.3598999 4.30486816 -34.7197998 4.10973633 -34.06030273 3.90869141 C-22.86480822 0.72762676 -11.59073361 -0.05371607 0 0 Z M-76.16210938 68.54150391 C-90.33965786 85.00180108 -98.81296684 106.60126384 -99.6875 128.3125 C-99.72746094 129.05886719 -99.76742187 129.80523437 -99.80859375 130.57421875 C-100.57928282 158.00168267 -89.79393356 183.40161665 -71.18505859 203.2644043 C-53.73201674 221.26104827 -29.85432177 232.29877513 -4.6875 233.3125 C-3.94113281 233.35246094 -3.19476563 233.39242187 -2.42578125 233.43359375 C25.00168267 234.20428282 50.40161665 223.41893356 70.2644043 204.81005859 C88.26104827 187.35701674 99.29877513 163.47932177 100.3125 138.3125 C100.35246094 137.56613281 100.39242187 136.81976563 100.43359375 136.05078125 C101.20428282 108.62331733 90.41893356 83.22338335 71.81005859 63.3605957 C54.35701674 45.36395173 30.47932177 34.32622487 5.3125 33.3125 C4.19294922 33.25255859 4.19294922 33.25255859 3.05078125 33.19140625 C-27.71572937 32.32689273 -55.65968379 46.01032412 -76.16210938 68.54150391 Z " fill="#747474" transform="translate(399.6875,266.6875)"/>
</svg>
