<?xml version="1.0" encoding="UTF-8"?>
<svg version="1.1" xmlns="http://www.w3.org/2000/svg" width="512" height="512">
<path d="M0 0 C26.4 0 52.8 0 80 0 C80 126.39 80 252.78 80 383 C53.6 383 27.2 383 0 383 C0 256.61 0 130.22 0 0 Z " fill="#5FC2AB" transform="translate(413,129)"/>
<path d="M0 0 C9.80770504 6.38442231 16.51957703 14.02665309 19.23828125 25.45703125 C20.43599415 36.23644736 19.92245521 46.21760111 13.25 55.10546875 C7.43018986 61.96058191 1.1292646 67.35367862 -7.76171875 69.45703125 C-9.40132402 69.3516515 -11.03767497 69.18821937 -12.66796875 68.984375 C-22.71296218 67.62322706 -22.71296218 67.62322706 -31.89355469 70.97460938 C-36.03068182 75.34845402 -39.00172822 80.51696746 -42.04589844 85.68115234 C-44.9418209 90.36621757 -48.36736701 94.62707244 -51.76171875 98.95703125 C-56.83659508 105.56991449 -61.8362228 112.23226737 -66.76171875 118.95703125 C-72.34834295 126.58443142 -78.05448213 134.1134769 -83.80078125 141.62109375 C-88.76036745 148.11259847 -93.63119136 154.66351589 -98.4440918 161.2644043 C-101.61504196 165.59817245 -104.84705123 169.87214334 -108.15625 174.1015625 C-108.89166016 175.04644531 -109.62707031 175.99132812 -110.38476562 176.96484375 C-111.81267085 178.79398907 -113.2497775 180.61599953 -114.69726562 182.4296875 C-119.37625171 188.26244271 -119.37625171 188.26244271 -120.76171875 195.45703125 C-120.27602596 197.39980242 -119.78719254 199.34211307 -119.2578125 201.2734375 C-117.07414532 210.88501194 -119.46297582 220.93125681 -124.45703125 229.296875 C-130.18004459 237.00093142 -137.48856637 241.95260323 -146.76171875 244.45703125 C-159.44750453 245.53507233 -169.75460431 244.38264192 -179.94921875 236.140625 C-186.97704679 229.61262094 -191.29095367 221.51730287 -192.0390625 211.88671875 C-192.08524566 207.05288085 -192.01247067 202.56801822 -190.9453125 197.83984375 C-190.39340309 194.37620937 -190.39340309 194.37620937 -192.68359375 191.90234375 C-193.616875 191.13664063 -194.55015625 190.3709375 -195.51171875 189.58203125 C-196.01469482 189.15841309 -196.5176709 188.73479492 -197.03588867 188.29833984 C-198.5937326 186.99483283 -200.17464765 185.72469495 -201.76171875 184.45703125 C-202.64988281 183.72484375 -203.53804687 182.99265625 -204.453125 182.23828125 C-206.23278022 180.77424297 -208.01951768 179.3187799 -209.8125 177.87109375 C-213.17540345 175.11841252 -216.47101444 172.29521356 -219.76171875 169.45703125 C-224.74183813 165.16491485 -229.78471611 160.96660546 -234.890625 156.82421875 C-238.97775985 153.45441777 -242.98797499 149.99699726 -246.9921875 146.52929688 C-248.09463602 145.57729717 -249.20224984 144.6312329 -250.31591797 143.69238281 C-251.52792068 142.65679792 -252.69913294 141.57373221 -253.859375 140.48046875 C-255.78919058 139.15914683 -255.78919058 139.15914683 -258.21875 140.140625 C-259.47751953 140.79224609 -259.47751953 140.79224609 -260.76171875 141.45703125 C-271.42507689 146.20625799 -280.33404947 147.62438525 -291.76171875 144.45703125 C-292.89609375 143.87953125 -294.03046875 143.30203125 -295.19921875 142.70703125 C-296.04484375 142.29453125 -296.89046875 141.88203125 -297.76171875 141.45703125 C-300.86366502 142.60698616 -302.91131016 144.35795679 -305.22583008 146.67822266 C-305.88363968 147.33295563 -306.54144928 147.9876886 -307.2191925 148.66226196 C-307.92029648 149.37055145 -308.62140045 150.07884094 -309.34375 150.80859375 C-310.07615402 151.54145599 -310.80855804 152.27431824 -311.56315613 153.02938843 C-313.11291722 154.58216954 -314.6602482 156.13737928 -316.20532227 157.69482422 C-318.54984543 160.05746953 -320.90213623 162.4121486 -323.25585938 164.765625 C-324.76479292 166.27947958 -326.2732709 167.79378842 -327.78125 169.30859375 C-328.47628128 170.00473785 -329.17131256 170.70088196 -329.8874054 171.41812134 C-333.12767185 174.68936857 -336.26486372 177.99660889 -339.26220703 181.49267578 C-342.83420758 185.62844395 -346.73444956 189.31893349 -350.734375 193.03515625 C-352.22654586 194.45630284 -353.71672443 195.87954373 -355.20507812 197.3046875 C-357.51927741 199.52011149 -359.84085357 201.72234357 -362.19799805 203.89208984 C-371.40213166 211.60647658 -371.40213166 211.60647658 -376.30371094 221.96020508 C-375.76834674 225.01258358 -374.92167833 227.59264704 -373.76171875 230.45703125 C-373.37957636 241.80666036 -377.15222767 251.10601203 -384.76171875 259.45703125 C-392.09570208 266.4364044 -400.70058197 269.626797 -410.76171875 269.95703125 C-421.46183133 269.59451377 -430.12760582 266.01673762 -437.76171875 258.45703125 C-445.82253703 248.64999632 -447.90008607 238.97550989 -447.02050781 226.53417969 C-445.9987685 218.33327583 -441.77440945 211.00720729 -435.76171875 205.45703125 C-435.27316406 204.998125 -434.78460938 204.53921875 -434.28125 204.06640625 C-427.34536277 198.38069128 -417.25940149 195.70096494 -408.3828125 196.05078125 C-403.9543494 196.73716003 -399.77712233 198.12993205 -395.546875 199.58203125 C-392.77126713 200.60689236 -392.77126713 200.60689236 -389.76171875 200.45703125 C-388.15008683 199.28860189 -388.15008683 199.28860189 -386.59472656 197.64648438 C-385.97688293 197.03164185 -385.35903931 196.41679932 -384.72247314 195.7833252 C-384.05995544 195.10846069 -383.39743774 194.43359619 -382.71484375 193.73828125 C-382.02541687 193.0469812 -381.33598999 192.35568115 -380.62567139 191.64343262 C-379.16295182 190.1739785 -377.70384057 188.70092527 -376.24804688 187.22460938 C-374.0414157 184.98714318 -371.8245986 182.7602196 -369.60546875 180.53515625 C-368.18297535 179.10347875 -366.76108177 177.67120498 -365.33984375 176.23828125 C-364.68542297 175.5796106 -364.0310022 174.92093994 -363.35675049 174.24230957 C-360.23750402 171.0755285 -357.22032227 167.86772584 -354.32519531 164.49414062 C-350.51789446 160.0924375 -346.37244889 156.10040887 -342.16796875 152.08203125 C-340.54438267 150.50513081 -338.92202141 148.92696847 -337.30078125 147.34765625 C-334.77225494 144.88720185 -332.23803691 142.43448821 -329.68261719 140.00195312 C-327.19837017 137.63265597 -324.74389208 135.23572213 -322.29296875 132.83203125 C-321.52231079 132.11096191 -320.75165283 131.38989258 -319.9576416 130.64697266 C-316.1428669 127.05338678 -316.1428669 127.05338678 -314.51481628 122.27876282 C-314.76152224 119.86284032 -314.76152224 119.86284032 -315.76171875 116.45703125 C-316.61972545 104.00890119 -314.89186827 94.19061262 -306.74609375 84.4609375 C-299.02744246 76.66631523 -290.35561977 73.1845754 -279.51171875 72.95703125 C-269.58952926 72.99155072 -260.59071637 75.73954085 -253.28515625 82.7421875 C-245.61006305 91.38158728 -242.32680568 100.61719658 -242.55859375 112.16796875 C-242.76171875 114.45703125 -242.76171875 114.45703125 -243.57421875 116.94921875 C-244.06424159 119.63782994 -244.06424159 119.63782994 -241.83984375 121.81640625 C-240.43992188 122.99976562 -240.43992188 122.99976562 -239.01171875 124.20703125 C-238.50874268 124.63967285 -238.0057666 125.07231445 -237.48754883 125.51806641 C-235.92754632 126.8506243 -234.34859037 128.15664352 -232.76171875 129.45703125 C-231.87355469 130.19179687 -230.98539063 130.9265625 -230.0703125 131.68359375 C-228.28649203 133.14574168 -226.49719794 134.60123156 -224.703125 136.05078125 C-221.38783644 138.76288982 -218.13308491 141.53815914 -214.88671875 144.33203125 C-205.41534502 152.47865582 -195.9237163 160.59288352 -186.19921875 168.4375 C-184.01327593 170.24860968 -181.95652283 172.14158992 -179.88671875 174.08203125 C-177.09213654 176.68615879 -177.09213654 176.68615879 -174.32421875 176.51953125 C-173.47859375 176.16890625 -172.63296875 175.81828125 -171.76171875 175.45703125 C-160.06671251 170.68092495 -149.61879793 170.57053023 -137.76171875 175.45703125 C-126.43445435 160.62319946 -126.43445435 160.62319946 -115.2109375 145.7109375 C-112.54831982 142.16039621 -109.84779793 138.6389143 -107.15234375 135.11328125 C-100.70254513 126.67519885 -94.32781483 118.1909945 -88.05200195 109.62280273 C-83.68980852 103.68141761 -79.24150383 97.81013013 -74.76171875 91.95703125 C-67.81089151 82.87286518 -60.95484369 73.72173688 -54.23095703 64.46801758 C-53.24646545 63.12051722 -52.24984734 61.78179838 -51.24169922 60.4519043 C-50.02718249 58.82629116 -48.88682961 57.14575696 -47.76171875 55.45703125 C-48.15165843 52.89265126 -48.15165843 52.89265126 -49.76171875 50.45703125 C-54.50411624 39.98128753 -54.7679853 29.63940995 -50.79296875 18.8203125 C-46.16745451 8.61605305 -38.99409105 2.69174305 -28.76171875 -1.54296875 C-20.44468898 -4.31531201 -7.91147884 -3.86692316 0 0 Z " fill="#3EABD6" transform="translate(469.76171875,2.54296875)"/>
<path d="M0 0 C26.4 0 52.8 0 80 0 C80 99.66 80 199.32 80 302 C53.6 302 27.2 302 0 302 C0 202.34 0 102.68 0 0 Z " fill="#5BC9ED" transform="translate(150,210)"/>
<path d="M0 0 C26.4 0 52.8 0 80 0 C80 60.39 80 120.78 80 183 C53.6 183 27.2 183 0 183 C0 122.61 0 62.22 0 0 Z " fill="#F27870" transform="translate(19,329)"/>
<path d="M0 0 C9.80770504 6.38442231 16.51957703 14.02665309 19.23828125 25.45703125 C20.43599415 36.23644736 19.92245521 46.21760111 13.25 55.10546875 C7.43018986 61.96058191 1.1292646 67.35367862 -7.76171875 69.45703125 C-9.40132402 69.3516515 -11.03767497 69.18821937 -12.66796875 68.984375 C-22.71296218 67.62322706 -22.71296218 67.62322706 -31.89355469 70.97460938 C-36.03068182 75.34845402 -39.00172822 80.51696746 -42.04589844 85.68115234 C-44.9418209 90.36621757 -48.36736701 94.62707244 -51.76171875 98.95703125 C-56.83659508 105.56991449 -61.8362228 112.23226737 -66.76171875 118.95703125 C-72.34834295 126.58443142 -78.05448213 134.1134769 -83.80078125 141.62109375 C-88.76036745 148.11259847 -93.63119136 154.66351589 -98.4440918 161.2644043 C-101.61504196 165.59817245 -104.84705123 169.87214334 -108.15625 174.1015625 C-108.89166016 175.04644531 -109.62707031 175.99132812 -110.38476562 176.96484375 C-111.81267085 178.79398907 -113.2497775 180.61599953 -114.69726562 182.4296875 C-119.37625171 188.26244271 -119.37625171 188.26244271 -120.76171875 195.45703125 C-120.27602596 197.39980242 -119.78719254 199.34211307 -119.2578125 201.2734375 C-117.07414532 210.88501194 -119.46297582 220.93125681 -124.45703125 229.296875 C-130.18004459 237.00093142 -137.48856637 241.95260323 -146.76171875 244.45703125 C-159.44750453 245.53507233 -169.75460431 244.38264192 -179.94921875 236.140625 C-187.00846383 229.5834383 -191.16264743 221.54871156 -192.109375 211.921875 C-192.40413223 199.93935298 -189.08089567 191.88120085 -181.33203125 182.77734375 C-180.01171875 181.39453125 -180.01171875 181.39453125 -177.76171875 179.45703125 C-177.10171875 179.45703125 -176.44171875 179.45703125 -175.76171875 179.45703125 C-175.76171875 178.79703125 -175.76171875 178.13703125 -175.76171875 177.45703125 C-166.09952646 171.77338873 -156.3706909 170.64761353 -145.41796875 172.75390625 C-142.75409881 173.45904829 -140.30878595 174.41369285 -137.76171875 175.45703125 C-126.43445435 160.62319946 -126.43445435 160.62319946 -115.2109375 145.7109375 C-112.54831982 142.16039621 -109.84779793 138.6389143 -107.15234375 135.11328125 C-100.70254513 126.67519885 -94.32781483 118.1909945 -88.05200195 109.62280273 C-83.68980852 103.68141761 -79.24150383 97.81013013 -74.76171875 91.95703125 C-67.81089151 82.87286518 -60.95484369 73.72173688 -54.23095703 64.46801758 C-53.24646545 63.12051722 -52.24984734 61.78179838 -51.24169922 60.4519043 C-50.02718249 58.82629116 -48.88682961 57.14575696 -47.76171875 55.45703125 C-48.15165843 52.89265126 -48.15165843 52.89265126 -49.76171875 50.45703125 C-54.50411624 39.98128753 -54.7679853 29.63940995 -50.79296875 18.8203125 C-46.16745451 8.61605305 -38.99409105 2.69174305 -28.76171875 -1.54296875 C-20.44468898 -4.31531201 -7.91147884 -3.86692316 0 0 Z " fill="#52AF97" transform="translate(469.76171875,2.54296875)"/>
<path d="M0 0 C26.4 0 52.8 0 80 0 C80 40.92 80 81.84 80 124 C53.6 124 27.2 124 0 124 C0 83.08 0 42.16 0 0 Z " fill="#FAD883" transform="translate(282,388)"/>
<path d="M0 0 C8.65144372 5.8077937 16.00043079 14.67611062 18.5 24.9375 C20.12616063 36.3206244 17.73792147 45.83570039 11.25 55.1875 C5.42204639 62.49787573 -1.87946747 66.92397086 -11 69 C-22.21525841 70.251817 -31.60356362 68.41223774 -40.8125 61.8125 C-48.40566564 55.45543109 -53.45105324 47.02621558 -54.3515625 37.140625 C-54.86856578 26.16176202 -53.16279707 16.89758396 -46.125 8.0625 C-45.11299314 7.0122561 -44.0716977 5.98925941 -43 5 C-42.51144531 4.54109375 -42.02289063 4.0821875 -41.51953125 3.609375 C-29.68415252 -6.09271324 -13.34963359 -6.06801527 0 0 Z " fill="#DC645A" transform="translate(77,203)"/>
<path d="M0 0 C3.78752323 3.60620563 7.04117452 6.72645987 8 12 C8.66 12 9.32 12 10 12 C13.91392394 24.25430948 14.21774171 33.98740256 9 46 C3.46576119 55.27048759 -4.59178911 61.18902334 -15 64 C-27.68578578 65.07804108 -37.99288556 63.92561067 -48.1875 55.68359375 C-55.24674508 49.12640705 -59.40092868 41.09168031 -60.34765625 31.46484375 C-60.64241348 19.48232173 -57.31917692 11.4241696 -49.5703125 2.3203125 C-48.25 0.9375 -48.25 0.9375 -46 -1 C-45.34 -1 -44.68 -1 -44 -1 C-44 -1.66 -44 -2.32 -44 -3 C-29.32883392 -11.46413428 -13.24807733 -10.82207591 0 0 Z " fill="#E3BE6C" transform="translate(338,183)"/>
<path d="M0 0 C0.45536133 0.40927734 0.91072266 0.81855469 1.37988281 1.24023438 C5.1018321 4.565086 8.89057129 7.31431249 13.203125 9.82421875 C15.06418598 11.04199996 16.45393365 12.41068514 18 14 C17.58862793 14.53665283 17.17725586 15.07330566 16.75341797 15.6262207 C9.42505622 25.19453777 2.12132696 34.77621194 -5 44.5 C-10.58658087 52.12743219 -16.29276387 59.65644628 -22.0390625 67.1640625 C-26.42064326 72.89902727 -30.73542958 78.67759563 -35 84.5 C-40.57735926 92.11475076 -46.27368118 99.6315769 -52.01049805 107.12670898 C-58.32092329 115.38638355 -64.49314437 123.74453226 -70.62817383 132.13500977 C-71.08087646 132.75045654 -71.5335791 133.36590332 -72 134 C-72.76703247 135.10782837 -72.76703247 135.10782837 -73.54956055 136.23803711 C-74.26752808 137.11020874 -74.26752808 137.11020874 -75 138 C-75.66 138 -76.32 138 -77 138 C-78.2265625 136.2421875 -78.2265625 136.2421875 -79.625 133.875 C-82.69876071 129.05893433 -86.23976621 126.08086197 -91 123 C-89.74715672 119.54652982 -88.34426945 116.86676612 -86.05859375 113.99609375 C-85.47996582 113.26221436 -84.90133789 112.52833496 -84.30517578 111.7722168 C-83.68884277 111.00176025 -83.07250977 110.23130371 -82.4375 109.4375 C-81.15157802 107.80789561 -79.86642046 106.17768773 -78.58203125 104.546875 C-77.64931396 103.36641602 -77.64931396 103.36641602 -76.69775391 102.16210938 C-74.63337421 99.53309779 -72.62062885 96.86900517 -70.625 94.1875 C-67.2458351 89.64851041 -63.82367851 85.14468575 -60.38623047 80.6496582 C-53.93676664 72.21463422 -47.56453214 63.73182805 -41.2902832 55.16577148 C-36.92809108 49.22438815 -32.47986378 43.35303709 -28 37.5 C-21.59852383 29.13593134 -15.31053147 20.69556234 -9.0859375 12.19921875 C-6.08863495 8.1091298 -3.05129782 4.04991683 0 0 Z " fill="#506B71" transform="translate(423,57)"/>
<path d="M0 0 C3.16311307 3.11769983 5.76478695 6.29439508 8.33984375 9.90234375 C10.37351355 12.47194536 12.67125825 14.69783177 15 17 C14.55200546 17.44577393 14.10401093 17.89154785 13.6424408 18.35083008 C8.9506797 23.02034724 4.26253799 27.69347618 -0.42358398 32.36865234 C-2.16941587 34.10947721 -3.91614698 35.84940078 -5.66381836 37.58837891 C-8.1858435 40.09817866 -10.70454196 42.61127717 -13.22265625 45.125 C-13.99585709 45.89303955 -14.76905792 46.6610791 -15.56568909 47.45239258 C-19.6333609 51.51964935 -23.50665171 55.67749819 -27.26051331 60.03466797 C-30.32808647 63.50051787 -33.61835508 66.74072981 -36.90234375 70 C-37.6249086 70.7211499 -38.34747345 71.4422998 -39.0919342 72.18530273 C-41.37142604 74.45925415 -43.6543924 76.72967954 -45.9375 79 C-47.49567506 80.55315235 -49.05361993 82.10653567 -50.61132812 83.66015625 C-54.40489759 87.44277586 -58.20131615 91.2225169 -62 95 C-65.60585177 93.79804941 -65.90846981 92.91813839 -67.8125 89.75 C-70.45120127 85.60346944 -73.06069215 82.90758437 -77 80 C-75.69056896 77.10490816 -74.29733499 75.05407463 -72.03833008 72.82714844 C-71.44043167 72.23262878 -70.84253326 71.63810913 -70.22651672 71.02557373 C-69.58071152 70.39322815 -68.93490631 69.76088257 -68.26953125 69.109375 C-67.60088547 68.44593079 -66.93223969 67.78248657 -66.24333191 67.09893799 C-64.10441918 64.97781594 -61.9589638 62.86347832 -59.8125 60.75 C-57.68471241 58.65000293 -55.55846171 56.54850868 -53.43522644 54.44390869 C-52.11572591 53.13647456 -50.79356395 51.83171857 -49.46821594 50.5302124 C-46.38307776 47.47790804 -43.41950465 44.37943768 -40.58642578 41.09082031 C-36.6719605 36.55690849 -32.47070478 32.34469188 -28.22265625 28.125 C-27.41130722 27.31506592 -26.59995819 26.50513184 -25.76402283 25.6706543 C-23.19920861 23.11138985 -20.63092052 20.5556447 -18.0625 18 C-16.31161717 16.25413867 -14.56096387 14.50804713 -12.81054688 12.76171875 C-8.54301384 8.50514802 -4.27263134 4.25145284 0 0 Z " fill="#506B71" transform="translate(156,126)"/>
<path d="M0 0 C3.10233331 0.58687103 4.86896984 1.45625952 7.21484375 3.5546875 C7.81200195 4.0815918 8.40916016 4.60849609 9.02441406 5.15136719 C9.65573242 5.72016602 10.28705078 6.28896484 10.9375 6.875 C12.28457645 8.06576041 13.63224307 9.25585346 14.98046875 10.4453125 C15.65513184 11.04375977 16.32979492 11.64220703 17.02490234 12.25878906 C19.90102629 14.79432874 22.81953811 17.27764452 25.75 19.75 C26.28367188 20.20109131 26.81734375 20.65218262 27.3671875 21.11694336 C30.69727317 23.92389057 34.05842668 26.68984476 37.4375 29.4375 C42.23865811 33.34671582 46.95032371 37.35070893 51.63696289 41.39575195 C54.66261469 44.00556973 57.70275299 46.59323233 60.78125 49.140625 C61.38469238 49.64223145 61.98813477 50.14383789 62.60986328 50.66064453 C63.76572718 51.61954794 64.925433 52.57384354 66.08935547 53.52294922 C67.43014978 54.63866813 68.72073435 55.81423549 70 57 C70 57.66 70 58.32 70 59 C68.8131637 60.0896512 67.57380294 61.12248565 66.3125 62.125 C62.19047258 65.60273184 59.54959592 69.28079602 57 74 C54.21176763 72.71076019 52.01003398 71.31380469 49.71484375 69.27734375 C49.10761475 68.74359131 48.50038574 68.20983887 47.87475586 67.65991211 C47.23546143 67.09151611 46.59616699 66.52312012 45.9375 65.9375 C44.58437887 64.74880878 43.2302065 63.56131318 41.875 62.375 C41.21242188 61.79492188 40.54984375 61.21484375 39.8671875 60.6171875 C37.43062696 58.50686101 34.94277142 56.46557686 32.4375 54.4375 C27.05410409 50.07495546 21.80336744 45.56878013 16.55078125 41.05078125 C7.4699104 33.24058706 -1.69988512 25.54818943 -11 18 C-10.62488281 17.53851563 -10.24976563 17.07703125 -9.86328125 16.6015625 C-5.7748968 11.39067452 -2.77953215 6.00182163 0 0 Z " fill="#506B71" transform="translate(224,123)"/>
</svg>
