<?xml version="1.0" encoding="UTF-8"?>
<svg version="1.1" xmlns="http://www.w3.org/2000/svg" width="512" height="512">
<path d="M0 0 C1.09516056 -0.00260775 2.19032112 -0.00521549 3.31866837 -0.00790226 C4.53683117 -0.00567154 5.75499397 -0.00344082 7.0100708 -0.0011425 C8.2924551 -0.00270249 9.5748394 -0.00426248 10.89608383 -0.00586975 C14.47199683 -0.01006753 18.04788334 -0.00797037 21.62379646 -0.00488353 C25.47386993 -0.00263146 29.32393868 -0.00610807 33.17401123 -0.00886345 C40.72278912 -0.01332222 48.2715571 -0.0123442 55.82033539 -0.00945081 C61.95255108 -0.00719719 68.08476399 -0.00688407 74.21697998 -0.00797462 C75.52353881 -0.00820447 75.52353881 -0.00820447 76.85649276 -0.00843897 C78.62570349 -0.00875868 80.39491423 -0.00908289 82.16412497 -0.00941156 C98.77434515 -0.01226666 115.38455983 -0.00897885 131.99477911 -0.00361119 C146.26322545 0.00085687 160.53166367 0.00008095 174.80010986 -0.00452995 C191.34878295 -0.00987518 207.8974512 -0.01199197 224.44612503 -0.00891769 C226.20901743 -0.00859912 227.97190984 -0.00828475 229.73480225 -0.00797462 C231.03604463 -0.00774321 231.03604463 -0.00774321 232.36357474 -0.00750712 C238.49211985 -0.00664181 244.62066191 -0.00810515 250.74920654 -0.01045418 C258.2125474 -0.0132518 265.67587773 -0.01251472 273.13921738 -0.00717343 C276.95090566 -0.0045359 280.76257636 -0.00353222 284.57426453 -0.00682259 C288.69676229 -0.01032757 292.81921524 -0.00615742 296.94171143 -0.0011425 C298.15987423 -0.00337322 299.37803703 -0.00560395 300.63311386 -0.00790226 C301.72827442 -0.00529452 302.82343498 -0.00268677 303.95178223 0 C305.38118574 0.00024353 305.38118574 0.00024353 306.83946609 0.00049198 C308.97589111 0.12584114 308.97589111 0.12584114 309.97589111 1.12584114 C310.36654143 5.92897982 310.4615933 10.73345072 310.54571533 15.55064583 C310.58210763 17.16672135 310.63640687 18.78250627 310.70977783 20.39732552 C311.09792256 29.076027 311.36935686 35.50936007 305.56182861 42.50865364 C304.35212402 43.72512581 304.35212402 43.72512581 303.11798096 44.96617317 C299.59840397 48.51463203 298.72618124 51.2553872 298.72255802 56.21284103 C298.71413493 57.76216448 298.71413493 57.76216448 298.70554167 59.34278738 C298.70952276 60.47603552 298.71350386 61.60928365 298.71760559 62.77687263 C298.71209203 64.58451294 298.71209203 64.58451294 298.70646709 66.42867124 C298.698203 69.77526691 298.69886202 73.12164905 298.70319402 76.46823812 C298.70566834 80.07713069 298.69660421 83.6859956 298.68881226 87.29487801 C298.6767608 93.55029078 298.67165896 99.80567807 298.67093086 106.06110191 C298.66960542 115.11631184 298.65449487 124.17145992 298.63543569 133.22664802 C298.60458178 147.93213313 298.58042347 162.6376198 298.56256104 177.3431263 C298.56148835 178.22346316 298.56041567 179.10380002 298.55931049 180.01081376 C298.54749725 189.82653929 298.5372916 199.64226544 298.52886963 209.45799446 C298.52579589 213.01410613 298.52270707 216.57021779 298.51959229 220.12632942 C298.51882695 221.00377519 298.51806161 221.88122095 298.51727308 222.78525598 C298.5041808 237.42815749 298.47952462 252.07101436 298.44584888 266.7138828 C298.42558064 275.74272639 298.4152665 284.77147443 298.41783809 293.80034094 C298.41887504 299.99197398 298.40920609 306.18353163 298.39119906 312.37513836 C298.38117769 315.94497734 298.37600033 319.51464949 298.38396645 323.08449745 C298.39251309 326.96073447 298.37787123 330.83669318 298.36116028 334.71290779 C298.36737209 335.83277159 298.37358391 336.9526354 298.37998396 338.10643446 C298.29623278 348.78550501 295.99225338 357.88391341 288.97589111 366.12584114 C279.17235267 375.62888799 268.09870927 378.2798732 254.83120728 378.26628304 C253.46414404 378.27073972 253.46414404 378.27073972 252.06946337 378.27528644 C249.02052238 378.28394671 245.97162077 378.28547943 242.92266846 378.28697395 C240.73438432 378.29160405 238.546101 378.29662897 236.3578186 378.30201912 C230.41540923 378.31512745 224.47301115 378.32158514 218.53058958 378.32602978 C214.81543165 378.3289633 211.10027678 378.33306866 207.38512039 378.33753395 C195.08575063 378.35199063 182.78638932 378.36132204 170.48701183 378.36540046 C169.49319897 378.36573461 169.49319897 378.36573461 168.47930908 378.36607552 C167.81595211 378.36629695 167.15259513 378.36651838 166.46913643 378.36674652 C155.73022628 378.3706911 144.99138413 378.38813636 134.25250022 378.41143504 C123.20976777 378.43519822 112.16707109 378.44735563 101.124313 378.44877696 C94.93121772 378.44982339 88.73821839 378.45569679 82.54514694 378.47359657 C76.71582923 378.4901174 70.88667917 378.49221322 65.05734634 378.48345757 C62.92412618 378.48268932 60.79089685 378.48700175 58.65769958 378.49691582 C43.21883571 378.56442961 29.49852927 378.34115856 16.97589111 368.12584114 C9.72770138 360.62588613 5.84699433 352.40971635 5.85398579 341.91300011 C5.85221154 340.87751006 5.85043728 339.84202002 5.84860927 338.77515149 C5.85172388 337.64413408 5.85483849 336.51311667 5.85804749 335.347826 C5.8573429 334.14117247 5.85663832 332.93451894 5.85591239 331.69130015 C5.855056 329.04344442 5.85602379 326.39566198 5.86005974 323.74781609 C5.86659335 319.43923986 5.86624987 315.13067973 5.86499023 310.82209969 C5.86387039 305.3769615 5.86451228 299.93182838 5.86719104 294.48669073 C5.87231966 283.78474429 5.86396042 273.08284489 5.85057068 262.38090706 C5.84852402 260.69551254 5.84648168 259.01011801 5.84444362 257.32472348 C5.84028764 253.9125817 5.8360725 250.50044 5.8318361 247.08829832 C5.82103569 238.31826162 5.81122912 229.5482242 5.80279541 220.77818489 C5.80194416 219.89815122 5.80109291 219.01811755 5.80021586 218.11141619 C5.78699746 203.85263795 5.79201311 189.59391563 5.80286697 175.33513799 C5.81350067 160.69104846 5.80130416 146.04709821 5.7687847 131.40304065 C5.74951692 122.37325826 5.74848701 113.34384807 5.77094098 104.31407139 C5.78469711 98.12378782 5.77653123 91.93377547 5.75121639 85.74352935 C5.7372851 82.17362309 5.73302616 78.60440196 5.75504112 75.0345211 C5.77869247 71.15992557 5.7558207 67.28638056 5.72865295 63.41179085 C5.74292117 62.28969632 5.75718939 61.1676018 5.77188998 60.01150441 C5.65349384 51.65174477 3.16477179 46.6075597 -2.50605649 40.54029298 C-6.25132627 36.50958654 -6.71177866 33.21812789 -6.54754639 27.91880989 C-6.54284332 27.15280968 -6.53814026 26.38680946 -6.53329468 25.59759712 C-6.51206369 23.16857083 -6.45547773 20.74177823 -6.39910889 18.31334114 C-6.38259061 16.66297103 -6.36824542 15.01257765 -6.35614014 13.36216927 C-6.20528295 0.0010572 -6.20528295 0.0010572 0 0 Z M70.97589111 76.12584114 C70.97589111 149.38584114 70.97589111 222.64584114 70.97589111 298.12584114 C79.88589111 298.12584114 88.79589111 298.12584114 97.97589111 298.12584114 C97.97589111 224.86584114 97.97589111 151.60584114 97.97589111 76.12584114 C89.06589111 76.12584114 80.15589111 76.12584114 70.97589111 76.12584114 Z M138.97589111 76.12584114 C138.97589111 149.38584114 138.97589111 222.64584114 138.97589111 298.12584114 C147.88589111 298.12584114 156.79589111 298.12584114 165.97589111 298.12584114 C165.97589111 224.86584114 165.97589111 151.60584114 165.97589111 76.12584114 C157.06589111 76.12584114 148.15589111 76.12584114 138.97589111 76.12584114 Z M213.97589111 76.12584114 C213.97589111 149.38584114 213.97589111 222.64584114 213.97589111 298.12584114 C222.88589111 298.12584114 231.79589111 298.12584114 240.97589111 298.12584114 C240.97589111 224.86584114 240.97589111 151.60584114 240.97589111 76.12584114 C232.06589111 76.12584114 223.15589111 76.12584114 213.97589111 76.12584114 Z " fill="#5C5E69" transform="translate(104.02410888671875,100.87415885925293)"/>
<path d="M0 0 C1.65610866 -0.00389696 3.31221633 -0.00823366 4.96832275 -0.01298523 C8.42780811 -0.0204124 11.88719136 -0.02018241 15.34667969 -0.01489258 C19.74175046 -0.00911226 24.13639784 -0.02601122 28.53139877 -0.04923725 C31.94958875 -0.0640978 35.36767974 -0.06482955 38.7858963 -0.06172752 C40.40432827 -0.06223489 42.02276665 -0.06736038 43.64116669 -0.07753944 C62.7795738 -0.18313426 79.13391334 2.88836055 93.4765625 16.65234375 C99.08870172 22.80935086 104.890625 31.69744035 104.890625 40.30078125 C133.600625 40.30078125 162.310625 40.30078125 191.890625 40.30078125 C191.890625 47.56078125 191.890625 54.82078125 191.890625 62.30078125 C79.030625 62.30078125 -33.829375 62.30078125 -150.109375 62.30078125 C-150.109375 55.04078125 -150.109375 47.78078125 -150.109375 40.30078125 C-121.399375 40.30078125 -92.689375 40.30078125 -63.109375 40.30078125 C-62.449375 37.33078125 -61.789375 34.36078125 -61.109375 31.30078125 C-56.60141825 19.73216935 -46.68190033 10.10240041 -35.44921875 5.12109375 C-23.71089219 0.59746298 -12.43398823 -0.01227657 0 0 Z M-27.984375 33.23828125 C-28.81582031 33.96337891 -28.81582031 33.96337891 -29.6640625 34.703125 C-31.44882948 36.53236261 -31.44882948 36.53236261 -33.109375 40.30078125 C2.530625 40.30078125 38.170625 40.30078125 74.890625 40.30078125 C71.23628323 34.64927522 71.23628323 34.64927522 66.390625 30.98828125 C65.6378125 30.49714844 64.885 30.00601563 64.109375 29.5 C59.72536287 27.13047232 55.71536639 27.16599345 50.77050781 27.13964844 C49.70626083 27.13220108 49.70626083 27.13220108 48.62051392 27.12460327 C46.27824931 27.1100248 43.93605248 27.10318619 41.59375 27.09765625 C39.95953369 27.0919004 38.32531738 27.08614272 36.69110107 27.0803833 C33.26476732 27.06988499 29.83845694 27.06403496 26.41210938 27.06054688 C22.03648052 27.05507049 17.66116415 27.03105599 13.28563309 27.00257492 C9.90886554 26.98388518 6.53217224 26.97873954 3.15535736 26.977211 C1.5431218 26.97419725 -0.06911285 26.96621217 -1.6812973 26.95302582 C-15.81957186 26.64423497 -15.81957186 26.64423497 -27.984375 33.23828125 Z " fill="#5C5E69" transform="translate(235.109375,32.69921875)"/>
</svg>
